<svg width="168" height="54" viewBox="0 0 168 54" fill="none" xmlns="http://www.w3.org/2000/svg">
<path d="M63.9379 41.0534C63.9379 39.89 64.7045 39.3702 65.7346 39.3702C66.2856 39.3702 66.6929 39.494 67.0522 39.6673V35.9296C66.5012 35.6573 65.7346 35.5088 64.944 35.5088C61.5662 35.5088 59.5778 37.5633 59.5778 40.9544V41.2762H57.9727V44.9149H59.5778V53.6526H63.9379V44.9149H66.8845V41.2762H63.9379V41.0534Z" fill="#232A31"/>
<path d="M73.0187 53.6527V41.2763H68.6346V53.6527H73.0187ZM73.2822 37.7862C73.2822 36.4495 72.2042 35.2861 70.8147 35.2861C69.4731 35.2861 68.3711 36.4248 68.3711 37.7862C68.3711 39.1476 69.4731 40.2862 70.8147 40.2862C72.2042 40.2862 73.2822 39.1228 73.2822 37.7862Z" fill="#232A31"/>
<path d="M79.1887 47.0684C79.1887 45.7812 79.8116 45.0634 80.7699 45.0634C81.7281 45.0634 82.3031 45.7565 82.3031 47.0189V53.6526H86.6872V45.7812C86.6872 42.7861 85.106 40.9297 82.5187 40.9297C81.0574 40.9297 79.8595 41.5733 79.1887 42.7861V41.2762H74.8047V53.6526H79.1887V47.0684Z" fill="#232A31"/>
<path d="M93.8579 41.0283C90.2343 41.0283 87.9102 44.2709 87.9102 47.5136C87.9102 51.1275 90.4592 53.9988 93.8079 53.9988C96.307 53.9988 97.2566 52.4889 97.2566 52.4889V53.677H101.48V41.3254H97.2566V42.4392C97.2566 42.4392 96.182 41.0283 93.8579 41.0283V41.0283ZM94.7576 45.0135C96.4569 45.0135 97.3066 46.3254 97.3066 47.5136C97.3066 48.8007 96.382 50.0631 94.7576 50.0631C93.4331 50.0631 92.2085 48.974 92.2085 47.5631C92.2085 46.1522 93.1832 45.0135 94.7576 45.0135Z" fill="#232A31"/>
<path d="M107.939 47.0684C107.939 45.7812 108.562 45.0634 109.52 45.0634C110.478 45.0634 111.053 45.7565 111.053 47.0189V53.6526H115.437V45.7812C115.437 42.7861 113.856 40.9297 111.269 40.9297C109.807 40.9297 108.61 41.5733 107.939 42.7861V41.2762H103.555V53.6526H107.939V47.0684Z" fill="#232A31"/>
<path d="M116.73 47.4644C116.73 51.4744 119.509 53.9992 123.127 53.9992C124.061 53.9992 125.067 53.8011 126.002 53.3061V49.1971C125.331 49.6922 124.612 49.9397 123.822 49.9397C122.288 49.9397 121.162 48.9496 121.162 47.4644C121.162 45.9793 122.288 44.9891 123.822 44.9891C124.588 44.9891 125.307 45.2119 126.002 45.6822V41.5733C125.163 41.1525 124.133 40.9297 123.199 40.9297C119.438 40.9297 116.73 43.6772 116.73 47.4644V47.4644Z" fill="#232A31"/>
<path d="M135.539 49.2961C135.084 50.0635 134.509 50.3853 133.551 50.3853C132.401 50.3853 131.443 49.6674 131.347 48.6031H139.636C139.66 48.3803 139.684 48.0832 139.684 47.6872C139.684 43.603 137.168 40.9297 133.431 40.9297C129.814 40.9297 127.059 43.7268 127.059 47.4644C127.059 51.3506 129.742 53.9992 133.575 53.9992C136.282 53.9992 138.318 52.811 139.3 50.6575L135.539 49.2961ZM131.371 46.004C131.467 45.0882 132.281 44.3951 133.407 44.3951C134.533 44.3951 135.348 45.0387 135.443 46.004H131.371Z" fill="#232A31"/>
<path d="M5 9.68359H13.6265L18.6497 22.3963L23.738 9.68359H32.1374L19.4898 39.7788H11.0372L14.4993 31.8041L5 9.68359Z" fill="#5F01D1"/>
<path d="M40.8876 9.17773C34.406 9.17773 30.3086 14.928 30.3086 20.6544C30.3086 27.0983 34.8009 32.2071 40.7646 32.2071C45.2133 32.2071 46.8906 29.5259 46.8906 29.5259V31.6145H54.4146V9.68395H46.8906V11.6776C46.8906 11.6776 45.0192 9.17773 40.8876 9.17773V9.17773ZM42.488 16.2254C45.4786 16.2254 47.0219 18.5663 47.0219 20.6785C47.0219 22.953 45.3685 25.1851 42.488 25.1851C40.1006 25.1851 37.9432 23.2551 37.9432 20.7753C37.9432 18.2604 39.6785 16.2254 42.488 16.2254Z" fill="#5F01D1"/>
<path d="M57.0078 31.6142V0H64.8775V11.7534C64.8775 11.7534 66.7467 9.18027 70.6615 9.18027C75.4502 9.18027 78.2559 12.7098 78.2559 17.7533V31.6142H70.4438V19.6521C70.4438 17.9452 69.6219 16.2964 67.7602 16.2964C65.8651 16.2964 64.8775 17.9702 64.8775 19.6521V31.6142H57.0078Z" fill="#5F01D1"/>
<path d="M91.6705 9.17969C84.2479 9.17969 79.8281 14.763 79.8281 20.745C79.8281 27.5526 85.1795 32.2065 91.6986 32.2065C98.0172 32.2065 103.546 27.7638 103.546 20.8592C103.546 13.3043 97.7572 9.17969 91.6705 9.17969V9.17969ZM91.7414 16.2893C94.3633 16.2893 96.1774 18.4495 96.1774 20.7532C96.1774 22.718 94.487 25.1414 91.7414 25.1414C89.2256 25.1414 87.3375 23.1451 87.3375 20.7317C87.3375 18.4067 88.9072 16.2893 91.7414 16.2893V16.2893Z" fill="#5F01D1"/>
<path d="M116.655 9.17969C109.232 9.17969 104.812 14.763 104.812 20.745C104.812 27.5526 110.164 32.2065 116.683 32.2065C123.002 32.2065 128.531 27.7638 128.531 20.8592C128.531 13.3043 122.742 9.17969 116.655 9.17969V9.17969ZM116.726 16.2893C119.348 16.2893 121.162 18.4495 121.162 20.7532C121.162 22.718 119.471 25.1414 116.726 25.1414C114.21 25.1414 112.322 23.1451 112.322 20.7317C112.322 18.4067 113.892 16.2893 116.726 16.2893V16.2893Z" fill="#5F01D1"/>
<path d="M134.741 32.0801C137.627 32.0801 139.967 29.7657 139.967 26.9107C139.967 24.0557 137.627 21.7412 134.741 21.7412C131.855 21.7412 129.516 24.0557 129.516 26.9107C129.516 29.7657 131.855 32.0801 134.741 32.0801Z" fill="#5F01D1"/>
<path d="M141.685 19.842H132.277L140.627 0H149.999L141.685 19.842Z" fill="#5F01D1"/>
</svg>
