<svg width="168" height="54" viewBox="0 0 168 54" fill="none" xmlns="http://www.w3.org/2000/svg">
<g clip-path="url(#clip0)">
<path d="M0.246244 32.4006L2.3701 32.0616V12.4342L0 12.1261L0.123122 10H14.9593L14.59 15.9468L11.635 15.8543L11.4503 12.1261H6.86405V20.9692H8.86479L9.32649 18.9356L11.3888 18.9972V25.098H9.32649L8.83401 23.0028H6.83327V32.3697H11.4503L11.8813 28.3025L14.9901 28.395L15.2364 34.5882H0.153903L0.246244 32.4006Z" fill="black"/>
<path d="M16.6222 34.6196L16.7145 32.8016L18.3767 32.4627V20.0761L16.4375 19.8913V18.0425L21.3008 17.3338L21.6702 18.3815V19.0902C22.8398 17.8577 24.2557 17.1182 26.0718 17.1182C28.7189 17.1182 30.6889 18.7204 30.6889 21.8941V32.4319L32.4434 32.7708L32.351 34.5888H26.5643V22.8184C26.5643 21.1238 25.9487 20.1686 24.4097 20.1686C23.8864 20.1686 23.517 20.261 23.1169 20.4151C22.8706 20.6308 22.6244 20.9389 22.4089 21.2162V32.4935L24.1634 32.8325L24.0403 34.6504H16.6222V34.6196Z" fill="black"/>
<path d="M109.61 34.6196L109.672 32.8016L111.334 32.4627V20.0761L109.395 19.8913V18.0425L114.258 17.3338L114.627 18.3815V19.0902C115.797 17.8577 117.213 17.1182 119.029 17.1182C121.676 17.1182 123.646 18.7204 123.646 21.8941V32.4319L125.4 32.7708L125.308 34.5888H119.552V22.8184C119.552 21.1238 118.936 20.1686 117.397 20.1686C116.874 20.1686 116.505 20.261 116.105 20.4151C115.858 20.6308 115.612 20.9389 115.397 21.2162V32.4935L117.151 32.8325L117.028 34.6504H109.61V34.6196V34.6196Z" fill="black"/>
<path d="M41.6146 34.2807C40.9375 34.558 39.737 34.8661 38.1672 34.8661C36.1049 34.8661 34.1965 33.9418 34.1965 30.9222V20.0762L32.2266 19.7681L32.3189 17.6112L34.5351 17.5188L35.4893 14.2219L38.3211 14.0986V17.6421H41.3684L41.1529 19.7989L38.3519 20.107V30.953C38.3519 31.8465 38.8444 32.432 39.7678 32.432H41.4299L41.6146 34.2807Z" fill="black"/>
<path d="M156.825 34.6193L156.886 32.8321L158.456 32.4624V20.0758L156.609 19.891V18.0422L161.657 17.3335L161.996 18.5352V18.9358C163.32 17.9498 165.105 17.3027 167.259 17.3027L167.998 17.9498L167.475 22.6333L164.705 22.5408L164.428 20.045C163.781 20.1375 163.166 20.3223 162.642 20.6921V32.4932L164.397 32.863L164.274 34.6501H156.825V34.6193V34.6193Z" fill="black"/>
<path d="M84.3409 34.6193L84.4333 32.8321L86.0031 32.4624V20.0758L84.1562 19.891V18.0422L89.2043 17.3335L89.5428 18.5352V18.9358C90.8664 17.9498 92.6517 17.3027 94.8063 17.3027L95.545 17.9498L94.9602 22.6333L92.19 22.5408L91.9129 20.045C91.2666 20.1375 90.6509 20.3223 90.1277 20.6921V32.4932L91.8822 32.863L91.759 34.6501H84.3409V34.6193Z" fill="black"/>
<path d="M42.8448 34.6193L42.9372 32.8321L44.507 32.4624V20.0758L42.6602 19.891V18.0422L47.7082 17.3335L48.0467 18.5352V18.9358C49.3703 17.9498 51.1556 17.3027 53.2794 17.3027L54.0182 17.9498L53.4949 22.6333L50.7246 22.5408L50.4476 20.045C49.8012 20.1375 49.1856 20.3223 48.6624 20.6921V32.4932L50.4168 32.863L50.2937 34.6501H42.8448V34.6193Z" fill="black"/>
<path d="M58.7932 27.0701C58.7932 30.0281 60.086 32.3082 62.6407 32.3082C63.9643 32.3082 65.0108 32.0309 66.2421 31.4455L66.95 33.0785C65.688 34.0953 63.8412 34.8656 61.5326 34.8656C57.0387 34.8656 54.4531 30.9833 54.4531 25.9917C54.4531 21.7396 56.3307 17.0869 61.4711 17.0869C65.965 17.0869 67.658 21.2466 67.658 25.8684L67.227 26.9777L58.7932 27.0701ZM58.7316 25.0981L63.9027 24.8516C63.8104 22.7872 63.3795 19.5211 61.348 19.5211C60.8555 19.5211 60.5169 19.6135 59.9013 19.9216C59.0702 21.339 58.7316 23.8964 58.7316 25.0981Z" fill="black"/>
<path d="M130.324 27.0701C130.324 30.0281 131.617 32.3082 134.172 32.3082C135.496 32.3082 136.542 32.0309 137.773 31.4455L138.481 33.0785C137.219 34.0953 135.372 34.8656 133.064 34.8656C128.57 34.8656 125.984 30.9833 125.984 25.9917C125.984 21.7396 127.862 17.0869 133.002 17.0869C137.496 17.0869 139.189 21.2466 139.189 25.8684L138.758 26.9777L130.324 27.0701ZM130.263 25.0981L135.434 24.8516C135.342 22.7872 134.911 19.5211 132.879 19.5211C132.387 19.5211 132.048 19.6135 131.433 19.9216C130.601 21.339 130.263 23.8964 130.263 25.0981Z" fill="black"/>
<path d="M100.285 27.0701C100.285 30.0281 101.578 32.3082 104.133 32.3082C105.456 32.3082 106.503 32.0309 107.734 31.4455L108.442 33.0785C107.18 34.0953 105.333 34.8656 103.025 34.8656C98.5309 34.8656 95.9453 30.9833 95.9453 25.9917C95.9453 21.7396 97.8229 17.0869 102.963 17.0869C107.457 17.0869 109.15 21.2466 109.15 25.8684L108.719 26.9777L100.285 27.0701ZM100.224 25.0981L105.395 24.8516C105.303 22.7872 104.872 19.5211 102.84 19.5211C102.348 19.5211 102.009 19.6135 101.393 19.9216C100.562 21.339 100.193 23.8964 100.224 25.0981Z" fill="black"/>
<path d="M150.823 34.6195L150.392 33.1405C149.253 34.2189 148.145 34.866 146.421 34.866C143.774 34.866 141.404 33.541 141.404 29.8744V19.6447L139.465 19.4598V17.8267L145.067 17.1797L145.498 18.6587V29.3814C145.498 31.2609 146.267 32.2469 147.776 32.2469C148.207 32.2469 148.761 32.1853 149.253 32.0004C149.53 31.7231 149.807 31.3842 150.023 31.0452V19.6447L148.022 19.4598V17.8267L153.685 17.1797L154.116 18.6587V32.4626L155.871 32.8015L155.655 34.6195C155.655 34.6195 150.823 34.6195 150.823 34.6195Z" fill="black"/>
<path d="M76.0587 32.4011C75.1661 32.4011 74.4581 32.247 73.9041 31.9389V21.0621C74.1503 20.6924 74.4273 20.3535 74.7044 20.0453C75.2276 19.8605 75.6893 19.7988 76.2434 19.7988C78.5519 19.7988 78.9521 22.1406 78.9521 26.3311C78.9521 30.3675 78.3365 31.4767 78.1826 31.9389C77.5362 32.247 76.859 32.4011 76.0587 32.4011ZM82.9535 25.5916C82.9535 20.3843 81.4145 17.1182 77.567 17.1182C75.0122 17.1182 73.8117 18.5972 73.3192 19.2134V18.628L72.8883 17.149L67.8711 17.8577V19.6448L69.8103 19.8913V40.9053L68.1481 41.2442L68.0558 43.0005H75.4739L75.597 41.2442L73.8425 40.9053V34.2498C74.5505 34.6504 75.5354 34.8969 76.6128 34.8969C82.892 34.8969 82.9535 28.5187 82.9535 25.5916Z" fill="black"/>
</g>
<defs>
<clipPath id="clip0">
<rect width="168" height="33" fill="white" transform="translate(0 10)"/>
</clipPath>
</defs>
</svg>
