<svg width="48" height="48" viewBox="0 0 48 48" fill="none" xmlns="http://www.w3.org/2000/svg">
<path fill-rule="evenodd" clip-rule="evenodd" d="M32.0865 40.7759C31.0656 40.7759 30.2404 39.9506 30.2404 38.9297V36.0682H27.4712C26.4502 36.0682 25.625 35.243 25.625 34.222C25.625 33.2011 26.4502 32.3759 27.4712 32.3759H30.2404V29.518C30.2404 28.499 31.0656 27.6719 32.0865 27.6719C33.1075 27.6719 33.9327 28.499 33.9327 29.518V32.3759H36.6835C37.7044 32.3759 38.5296 33.2011 38.5296 34.222C38.5296 35.243 37.7044 36.0682 36.6835 36.0682H33.9327V38.9297C33.9327 39.9506 33.1075 40.7759 32.0865 40.7759Z" fill="#74CF7F"/>
<path fill-rule="evenodd" clip-rule="evenodd" d="M19.7727 7.21875C14.9616 7.21875 11.0625 11.1769 11.0625 16.0544C11.0625 20.9357 14.9616 24.8901 19.7727 24.8901C24.5838 24.8901 28.4829 20.9357 28.4829 16.0544C28.4829 11.1769 24.5838 7.21875 19.7727 7.21875Z" fill="#74CF7F"/>
<path opacity="0.4" fill-rule="evenodd" clip-rule="evenodd" d="M22.1053 27.3906H15.4167C10.493 27.3906 6.32813 31.6165 6.32813 36.6103C6.32813 37.5408 6.32812 38.6503 6.49982 39.59C6.51089 39.6528 6.51459 39.7174 6.52382 39.7783C6.58105 40.1291 6.94289 40.4522 7.46351 40.4522H18.029C18.6161 40.4522 19.1441 40.0959 19.362 39.5512L23.4475 29.3771C23.8296 28.4263 23.13 27.3906 22.1053 27.3906Z" fill="#74CF7F"/>
</svg>
