<svg width="48" height="48" viewBox="0 0 48 48" fill="none" xmlns="http://www.w3.org/2000/svg">
<path opacity="0.4" fill-rule="evenodd" clip-rule="evenodd" d="M38.9624 27.2668V24.2868C38.9624 23.9554 38.6936 23.6882 38.3626 23.6736C36.2488 23.5794 34.185 22.9872 32.3772 21.8972C31.9538 21.6418 31.3824 21.9324 31.3824 22.4268V26.6068C31.3824 29.4068 29.4824 31.3868 26.7624 31.3868H21.2624C18.5425 31.3868 16.6225 29.4068 16.6225 26.6068V21.4268C16.6225 18.6069 18.5425 16.6269 21.2624 16.6269H26.7624C27.097 16.6269 27.3752 16.249 27.2442 15.9412C26.4274 14.0217 26.0862 11.8443 26.3602 9.77262C26.41 9.39588 26.1264 9.04688 25.7464 9.04688H20.7424C20.7424 9.04688 17.6164 9.04688 17.4825 9.04688C12.4625 9.04688 9.1025 12.5469 9.0625 17.7469V30.2668C9.1025 35.4668 12.4625 38.9668 17.4825 38.9668H17.7425H30.2824H30.5424C35.5424 38.9668 38.9024 35.4668 38.9424 30.2668L38.9624 27.2668Z" fill="#74CF7F"/>
<path d="M36.6328 11.36C36.6328 12.2 35.9528 12.86 35.1328 12.86C34.2928 12.86 33.6328 12.2 33.6328 11.36V6C33.6328 5.16 34.2928 4.5 35.1328 4.5C35.9528 4.5 36.6328 5.16 36.6328 6V11.36Z" fill="#74CF7F"/>
<path d="M35.0668 17.6855H35.1268C35.9268 17.6855 36.5868 17.0055 36.6268 16.2055C36.6868 15.3655 36.0468 14.6655 35.2068 14.6255C34.4468 14.6055 33.6868 15.2055 33.6468 16.0455L33.6268 16.1655C33.5868 16.9855 34.2268 17.6255 35.0668 17.6855Z" fill="#74CF7F"/>
<path d="M21.2573 19.625C19.7772 19.625 19.6172 20.8851 19.6172 21.4251V26.6051C19.6172 27.2651 19.8372 28.3851 21.2573 28.3851H26.7573C28.1573 28.3851 28.3773 27.2651 28.3773 26.6051V21.4251C28.3773 20.7451 28.1573 19.625 26.7573 19.625H21.2573Z" fill="#74CF7F"/>
<path d="M20.7266 6C20.7266 5.17158 20.055 4.5 19.2266 4.5C18.3981 4.5 17.7266 5.17158 17.7266 6V9.05664H20.7266V6Z" fill="#74CF7F"/>
<path d="M38.9375 30.2344C38.9399 30.1394 38.9409 30.044 38.9409 29.9482V27.2344L41.9967 27.2602C42.8251 27.2602 43.4967 27.9318 43.4967 28.7602C43.4967 29.5886 42.8251 30.2602 41.9967 30.2602L38.9375 30.2344Z" fill="#74CF7F"/>
<path d="M30.2734 38.9219V41.9855C30.2734 42.8139 29.6018 43.4855 28.7734 43.4855C27.945 43.4855 27.2734 42.8139 27.2734 41.9855V38.9219H30.2734Z" fill="#74CF7F"/>
<path d="M17.7266 38.9219H20.7266V41.9855C20.7266 42.8139 20.055 43.4855 19.2266 43.4855C18.3981 43.4855 17.7266 42.8139 17.7266 41.9855V38.9219Z" fill="#74CF7F"/>
<path d="M9.07032 27.2656V29.9774C9.07032 30.0738 9.07148 30.17 9.0738 30.2656H6C5.17158 30.2656 4.5 29.594 4.5 28.7656C4.5 27.9372 5.17158 27.2656 6 27.2656H9.07032Z" fill="#74CF7F"/>
<path d="M9.07414 17.7344C9.0716 17.8347 9.07032 17.9354 9.07032 18.0365V20.7344H6C5.17158 20.7344 4.5 20.0628 4.5 19.2344C4.5 18.4059 5.17158 17.7344 6 17.7344H9.07414Z" fill="#74CF7F"/>
</svg>
