<svg width="48" height="48" viewBox="0 0 48 48" fill="none" xmlns="http://www.w3.org/2000/svg">
<path fill-rule="evenodd" clip-rule="evenodd" d="M33.8274 12.6117V39.1077H8.19531V12.6117C8.19531 8.08048 11.1137 5.04688 15.4529 5.04688H26.5697C30.9089 5.04688 33.8274 8.08048 33.8274 12.6117Z" fill="#74CF7F" fill-opacity="0.4"/>
<path fill-rule="evenodd" clip-rule="evenodd" d="M35.2873 39.1094H6.73687C5.93047 39.1094 5.29688 39.7622 5.29688 40.5494C5.29688 41.3558 5.93047 41.9894 6.73687 41.9894H35.2873C36.0937 41.9894 36.7273 41.3558 36.7273 40.5494C36.7273 39.7622 36.0937 39.1094 35.2873 39.1094Z" fill="#74CF7F"/>
<path fill-rule="evenodd" clip-rule="evenodd" d="M42.2761 15.5008L38.7433 11.9489C38.1673 11.3921 37.2649 11.3921 36.6889 11.9489C36.1321 12.5249 36.1321 13.4272 36.6889 13.984L39.8185 17.1329V30.976C39.8185 31.3792 39.5113 31.7056 39.1081 31.7056C38.7049 31.7056 38.3785 31.3792 38.3785 30.976V28.2304C38.3785 26.2528 36.7657 24.6208 34.7689 24.6208H33.8281V27.5008H34.7689C35.1721 27.5008 35.4985 27.8464 35.4985 28.2304V30.976C35.4985 32.9728 37.1113 34.5856 39.1081 34.5856C41.0857 34.5856 42.6985 32.9728 42.6985 30.976V16.5184C42.6985 16.1536 42.5641 15.7888 42.2761 15.5008Z" fill="#74CF7F"/>
<path fill-rule="evenodd" clip-rule="evenodd" d="M18.6431 32.3906C17.8482 32.3906 17.2031 33.0357 17.2031 33.8306C17.2031 34.6255 17.8482 35.2706 18.6431 35.2706H23.3913C24.1862 35.2706 24.8313 34.6255 24.8313 33.8306C24.8313 33.0357 24.1862 32.3906 23.3913 32.3906H18.6431Z" fill="#74CF7F"/>
<path fill-rule="evenodd" clip-rule="evenodd" d="M15.8253 15.4655C15.8253 14.8358 16.0423 14.0831 17.0733 14.0831H24.9453C25.9764 14.0831 26.1933 14.8358 26.1933 15.4655V19.9391C26.1933 20.5688 25.9764 21.3215 24.9453 21.3215H22.507L23.5226 18.3743C23.7818 17.6217 23.3825 16.8018 22.6298 16.5426C21.8753 16.2854 21.0574 16.6809 20.8001 17.4335L19.4599 21.3215H17.0733C16.0423 21.3215 15.8253 20.5688 15.8253 19.9391V15.4655ZM17.0733 24.2015H24.9453C27.3761 24.2015 29.0734 22.4485 29.0734 19.9391V15.4655C29.0734 12.9561 27.3761 11.2031 24.9453 11.2031H17.0733C14.681 11.2031 12.9453 12.9964 12.9453 15.4655V19.9391C12.9453 22.4485 14.6426 24.2015 17.0733 24.2015Z" fill="#74CF7F"/>
</svg>
