<svg width="48" height="48" viewBox="0 0 48 48" fill="none" xmlns="http://www.w3.org/2000/svg">
<g id="mac laptop notebook - Iconly Pro">
<path id="Vector" fill-rule="evenodd" clip-rule="evenodd" d="M26.6229 35.9992H21.3909C20.5629 35.9992 19.8909 35.3272 19.8909 34.4992C19.8909 33.6712 20.5629 32.9992 21.3909 32.9992H26.6229C27.4509 32.9992 28.1229 33.6712 28.1229 34.4992C28.1229 35.3272 27.4509 35.9992 26.6229 35.9992ZM42.6849 34.6353L40.2249 29.2812H7.78693L5.29293 34.7113C4.76693 36.1513 4.97693 37.7592 5.85493 39.0152C6.73293 40.2712 8.17093 41.0212 9.70293 41.0212H38.3069C39.8389 41.0212 41.2769 40.2712 42.1549 39.0152C43.0329 37.7592 43.2429 36.1493 42.6849 34.6353Z" fill="#74CF7F"/>
<path id="Vector_2" opacity="0.4" fill-rule="evenodd" clip-rule="evenodd" d="M39.924 12.8407C39.924 9.60275 37.29 6.96875 34.052 6.96875H13.9579C10.7199 6.96875 8.08594 9.60275 8.08594 12.8407V26.2827H39.924V12.8407Z" fill="#74CF7F"/>
</g>
</svg>
