<svg width="24" height="25" viewBox="0 0 24 25" fill="none" xmlns="http://www.w3.org/2000/svg">
<path fill-rule="evenodd" clip-rule="evenodd" d="M9.7154 20.0136C9.70477 20.1022 9.8101 20.1555 9.87579 20.0952C10.2268 19.7731 10.9514 19.1082 11.1015 18.9717C12.169 17.9992 12.168 17.9973 10.9623 17.1755C10.1117 16.5947 10.1002 16.5928 9.99559 17.596C9.93053 18.2134 9.78044 19.472 9.7154 20.0136ZM15.2165 9.89314C15.3013 9.81372 15.201 9.67925 15.1026 9.74101C13.4021 10.808 9.57084 13.2123 8.02375 14.1841C7.64263 14.4241 7.52263 14.7573 7.68295 15.1941C8.00263 16.0609 8.30695 16.9336 8.62855 17.8005C8.65087 17.8613 8.74233 18.0587 8.82363 18.2313C8.86418 18.3174 8.99105 18.2976 9.00384 18.2033C9.03395 17.9814 9.07048 17.7089 9.08071 17.619C9.14311 17.0709 9.21319 16.5237 9.24199 15.9736C9.26503 15.5281 9.46759 15.219 9.78919 14.9281C11.1008 13.742 13.8946 11.1311 15.2165 9.89314ZM22.4861 5.95786C22.1856 7.43434 21.8995 8.9137 21.5607 10.3815C20.809 13.6398 20.0208 16.8885 19.2471 20.1419C19.2269 20.2283 19.201 20.3128 19.177 20.3992C18.8179 21.6856 17.7571 22.0494 16.6704 21.2555C15.5501 20.4357 14.425 19.6216 13.3181 18.7835C13.0349 18.5694 12.8496 18.5771 12.5962 18.8219C11.929 19.4641 11.2483 20.0929 10.5543 20.7045C9.65191 21.4984 8.95687 21.3246 8.53255 20.188C7.91719 18.5377 7.31143 16.8837 6.74215 15.2181C6.59143 14.7745 6.34759 14.5643 5.91751 14.4347C4.77703 14.091 3.65095 13.6974 2.51431 13.3422C1.95367 13.1665 1.44871 12.9189 1.42279 12.2632C1.39879 11.6565 1.85191 11.3579 2.35687 11.1611C5.52199 9.92842 8.68039 8.67754 11.8589 7.47754C14.688 6.41002 17.5383 5.39914 20.3808 4.36618C20.6141 4.2817 20.8512 4.19626 21.0941 4.14826C21.8602 3.99562 22.2874 4.29994 22.5341 4.92778C22.633 5.17834 22.5264 5.76298 22.4861 5.95786Z" fill="#AEAEAE"/>
</svg>
