<svg width="204" height="34" viewBox="0 0 204 34" fill="none" xmlns="http://www.w3.org/2000/svg">
<g clip-path="url(#clip0)">
<path d="M39.3385 25.8356C38.8641 25.8356 38.5288 25.7349 38.3324 25.5335C38.1524 25.3322 38.0625 25.0134 38.0625 24.5772V10.0043C38.0625 9.56806 38.1605 9.24926 38.3569 9.0479C38.5532 8.82978 38.8804 8.7207 39.3385 8.7207H45.3508C47.6411 8.7207 49.3261 9.21569 50.4059 10.2057C51.4857 11.1956 52.0255 12.6722 52.0255 14.6354C52.0255 16.5818 51.4857 18.0499 50.4059 19.04C49.3426 20.0132 47.6575 20.4998 45.3508 20.4998H43.0194V24.5772C43.0194 25.0134 42.9213 25.3322 42.725 25.5335C42.5287 25.7349 42.1932 25.8356 41.7188 25.8356H39.3385ZM44.9581 16.8503C45.6289 16.8503 46.1442 16.6656 46.5041 16.2966C46.8804 15.9274 47.0685 15.3736 47.0685 14.6354C47.0685 13.8804 46.8804 13.3182 46.5041 12.9491C46.1442 12.5799 45.6289 12.3954 44.9581 12.3954H43.0194V16.8503H44.9581Z" fill="white"/>
<path d="M57.818 26.2131C56.2802 26.2131 55.045 25.7098 54.1125 24.703C53.1964 23.6795 52.7383 22.2448 52.7383 20.3991C52.7383 18.9897 53.0491 17.7564 53.6708 16.6993C54.3088 15.6421 55.2004 14.8284 56.3456 14.2579C57.5072 13.6707 58.8404 13.377 60.3456 13.377C61.5889 13.377 62.6851 13.5196 63.6339 13.8048C64.5991 14.0733 65.4825 14.4677 66.2841 14.9878V25.0553C66.2841 25.3741 66.2269 25.5839 66.1124 25.6846C65.9979 25.7853 65.7689 25.8356 65.4253 25.8356H62.9222C62.7423 25.8356 62.6032 25.8104 62.505 25.7601C62.4069 25.6929 62.3251 25.5922 62.2597 25.4581L61.9407 24.703C61.4662 25.2232 60.8937 25.6007 60.2229 25.8356C59.5685 26.0873 58.7669 26.2131 57.818 26.2131ZM59.6585 22.7901C60.2965 22.7901 60.7955 22.6307 61.1554 22.3119C61.5152 21.9932 61.6953 21.5401 61.6953 20.9528V17.0265C61.3844 16.8754 60.9917 16.8 60.5173 16.8C59.6503 16.8 58.9551 17.1104 58.4315 17.7312C57.9243 18.3521 57.6707 19.2246 57.6707 20.3488C57.6707 21.9763 58.3334 22.7901 59.6585 22.7901Z" fill="white"/>
<path d="M69.6991 25.8356C69.2246 25.8356 68.8893 25.7349 68.693 25.5335C68.4966 25.3323 68.3984 25.0135 68.3984 24.5772V14.5348C68.3984 14.2327 68.4475 14.0313 68.5457 13.9308C68.6602 13.8132 68.8892 13.7545 69.2328 13.7545H71.7604C71.9567 13.7545 72.104 13.7881 72.2021 13.8552C72.3166 13.9055 72.382 14.0062 72.3984 14.1573L72.5212 14.9123C72.9793 14.4425 73.5763 14.0733 74.3125 13.8048C75.065 13.5196 75.8994 13.377 76.8156 13.377C78.1407 13.377 79.2122 13.7629 80.0303 14.5348C80.8483 15.2898 81.2572 16.4141 81.2572 17.9075V24.5772C81.2572 25.0135 81.159 25.3323 80.9628 25.5335C80.7828 25.7349 80.4556 25.8356 79.9812 25.8356H77.6009C77.1264 25.8356 76.7828 25.7349 76.5702 25.5335C76.3738 25.3323 76.2756 25.0135 76.2756 24.5772V18.2346C76.2756 17.7312 76.1693 17.3705 75.9566 17.1523C75.744 16.9341 75.4086 16.8251 74.9505 16.8251C74.4598 16.8251 74.0671 16.9594 73.7727 17.2278C73.4945 17.4963 73.3555 17.8655 73.3555 18.3352V24.5772C73.3555 25.0135 73.2573 25.3323 73.061 25.5335C72.8811 25.7349 72.5538 25.8356 72.0794 25.8356H69.6991Z" fill="white"/>
<path d="M89.9313 26.2131C87.6408 26.2131 85.8739 25.6678 84.6307 24.5772C83.3873 23.4865 82.7656 21.9009 82.7656 19.8202C82.7656 18.545 83.052 17.4207 83.6245 16.4475C84.1971 15.4744 85.0233 14.7193 86.1031 14.1824C87.1992 13.6454 88.4915 13.377 89.9803 13.377C91.1091 13.377 92.058 13.486 92.8269 13.7041C93.6122 13.9223 94.3074 14.2579 94.9128 14.7109C95.0927 14.8284 95.1827 14.9794 95.1827 15.164C95.1827 15.2982 95.1173 15.4744 94.9864 15.6925L93.9803 17.4796C93.8658 17.7144 93.7267 17.8319 93.5631 17.8319C93.4649 17.8319 93.3095 17.7648 93.0968 17.6305C92.6552 17.3453 92.238 17.1355 91.8453 17.0014C91.469 16.8671 90.9946 16.8 90.422 16.8C89.604 16.8 88.9415 17.0684 88.4343 17.6054C87.9435 18.1423 87.6981 18.8806 87.6981 19.8202C87.6981 20.7767 87.9517 21.515 88.4589 22.0351C88.966 22.5385 89.6613 22.7901 90.5447 22.7901C91.0682 22.7901 91.5426 22.7147 91.9681 22.5636C92.3934 22.4126 92.8269 22.2028 93.2686 21.9344C93.4977 21.8002 93.6613 21.7331 93.7594 21.7331C93.9067 21.7331 94.0375 21.8505 94.152 22.0854L95.2563 24.0234C95.3381 24.1912 95.3791 24.3255 95.3791 24.4262C95.3791 24.5772 95.2809 24.7197 95.0845 24.854C94.3975 25.307 93.6449 25.6426 92.8269 25.8607C92.0253 26.0957 91.06 26.2131 89.9313 26.2131Z" fill="white"/>
<path d="M101.603 26.2131C100.065 26.2131 98.8302 25.7098 97.8978 24.703C96.9815 23.6795 96.5234 22.2448 96.5234 20.3991C96.5234 18.9897 96.8343 17.7564 97.456 16.6993C98.094 15.6421 98.9856 14.8284 100.131 14.2579C101.292 13.6707 102.626 13.377 104.131 13.377C105.374 13.377 106.47 13.5196 107.419 13.8048C108.384 14.0733 109.268 14.4677 110.069 14.9878V25.0553C110.069 25.3741 110.012 25.5839 109.898 25.6846C109.783 25.7853 109.554 25.8356 109.21 25.8356H106.707C106.527 25.8356 106.388 25.8104 106.29 25.7601C106.192 25.6929 106.11 25.5922 106.045 25.4581L105.726 24.703C105.251 25.2232 104.679 25.6007 104.008 25.8356C103.354 26.0873 102.552 26.2131 101.603 26.2131ZM103.444 22.7901C104.082 22.7901 104.581 22.6307 104.941 22.3119C105.301 21.9932 105.48 21.5401 105.48 20.9528V17.0265C105.17 16.8754 104.777 16.8 104.303 16.8C103.435 16.8 102.74 17.1104 102.217 17.7312C101.709 18.3521 101.456 19.2246 101.456 20.3488C101.456 21.9763 102.119 22.7901 103.444 22.7901Z" fill="white"/>
<path d="M125.484 24.8791C125.599 25.0134 125.656 25.1643 125.656 25.3322C125.656 25.4831 125.607 25.6091 125.509 25.7098C125.411 25.7936 125.28 25.8356 125.116 25.8356H121.312C121.083 25.8356 120.912 25.8188 120.797 25.7852C120.699 25.7349 120.593 25.6425 120.478 25.5084L117.141 20.8521V24.5772C117.141 25.0134 117.042 25.3322 116.846 25.5335C116.65 25.7349 116.314 25.8356 115.84 25.8356H113.46C112.985 25.8356 112.65 25.7349 112.454 25.5335C112.274 25.3322 112.184 25.0134 112.184 24.5772V10.0043C112.184 9.56806 112.282 9.24926 112.478 9.0479C112.674 8.82978 113.002 8.7207 113.46 8.7207H115.84C116.314 8.7207 116.65 8.82978 116.846 9.0479C117.042 9.24926 117.141 9.56806 117.141 10.0043V18.4359L120.38 14.1069C120.478 13.9726 120.584 13.8804 120.699 13.83C120.813 13.7797 120.985 13.7544 121.214 13.7544H125.018C125.181 13.7544 125.304 13.8048 125.386 13.9055C125.484 13.9894 125.533 14.1069 125.533 14.2579C125.533 14.4257 125.476 14.5767 125.361 14.7109L121.165 19.644L125.484 24.8791Z" fill="white"/>
<path d="M133.45 26.2131C132.075 26.2131 130.849 25.9783 129.769 25.5084C128.705 25.0386 127.863 24.3338 127.241 23.3943C126.619 22.4546 126.309 21.3052 126.309 19.946C126.309 17.8151 126.898 16.1876 128.076 15.0634C129.254 13.9391 130.947 13.377 133.155 13.377C135.315 13.377 136.951 13.9308 138.063 15.0381C139.192 16.1287 139.756 17.6474 139.756 19.5937C139.756 20.4326 139.396 20.8521 138.676 20.8521H130.971C130.971 21.5737 131.233 22.1274 131.757 22.5133C132.296 22.8992 133.105 23.0922 134.185 23.0922C134.856 23.0922 135.413 23.0335 135.854 22.916C136.312 22.7817 136.771 22.5889 137.229 22.3371C137.425 22.2532 137.557 22.2113 137.622 22.2113C137.768 22.2113 137.892 22.3119 137.99 22.5133L138.824 24.1241C138.905 24.2919 138.946 24.4178 138.946 24.5016C138.946 24.6527 138.848 24.7953 138.652 24.9295C137.981 25.3826 137.221 25.7098 136.369 25.9111C135.519 26.1124 134.546 26.2131 133.45 26.2131ZM135.339 18.3604C135.339 17.7228 135.16 17.2278 134.799 16.8754C134.439 16.5231 133.9 16.347 133.179 16.347C132.46 16.347 131.912 16.5315 131.536 16.9007C131.16 17.253 130.971 17.7395 130.971 18.3604H135.339Z" fill="white"/>
<path d="M148.171 26.2137C146.796 26.2137 145.496 26.071 144.269 25.7858C143.043 25.4837 142.052 25.0643 141.3 24.5274C141.022 24.3427 140.883 24.1499 140.883 23.9485C140.883 23.8142 140.931 23.6716 141.029 23.5206L142.232 21.5574C142.363 21.3561 142.494 21.2554 142.624 21.2554C142.707 21.2554 142.846 21.3141 143.043 21.4316C143.647 21.784 144.334 22.0692 145.103 22.2873C145.872 22.5054 146.633 22.6145 147.385 22.6145C148.154 22.6145 148.719 22.4971 149.079 22.2621C149.455 22.0272 149.643 21.6497 149.643 21.1295C149.643 20.6262 149.439 20.2319 149.03 19.9466C148.637 19.6613 147.893 19.3006 146.796 18.8643C145.144 18.2267 143.852 17.5136 142.919 16.7251C142.004 15.9196 141.546 14.8289 141.546 13.4531C141.546 11.7919 142.126 10.5251 143.287 9.65254C144.449 8.78001 145.996 8.34375 147.926 8.34375C149.267 8.34375 150.412 8.4696 151.361 8.72128C152.326 8.95619 153.144 9.32534 153.815 9.82871C154.093 10.0468 154.232 10.2482 154.232 10.4328C154.232 10.5502 154.184 10.6845 154.085 10.8355L152.883 12.7986C152.735 13 152.604 13.1006 152.49 13.1006C152.408 13.1006 152.269 13.0419 152.072 12.9245C151.124 12.2869 149.995 11.9681 148.686 11.9681C147.983 11.9681 147.443 12.0855 147.067 12.3204C146.69 12.5553 146.502 12.9413 146.502 13.4782C146.502 13.8473 146.6 14.1494 146.796 14.3843C146.993 14.6191 147.255 14.8289 147.582 15.0135C147.926 15.1813 148.449 15.3994 149.152 15.6679L149.619 15.8441C150.829 16.3307 151.778 16.8005 152.465 17.2535C153.169 17.6897 153.7 18.2352 154.06 18.8895C154.421 19.5272 154.601 20.3326 154.601 21.3058C154.601 22.799 154.052 23.9905 152.956 24.8797C151.876 25.769 150.281 26.2137 148.171 26.2137Z" fill="white"/>
<path d="M159.812 25.836C159.567 25.836 159.378 25.794 159.247 25.7102C159.117 25.6262 159.019 25.4585 158.954 25.2067L155.788 14.3338C155.755 14.2331 155.738 14.1577 155.738 14.1073C155.738 13.8724 155.903 13.7549 156.229 13.7549H159.469C159.682 13.7549 159.836 13.7969 159.934 13.8808C160.032 13.9479 160.099 14.0653 160.131 14.2331L161.457 19.9464L163.124 15.3406C163.207 15.1392 163.289 15.005 163.37 14.9378C163.469 14.854 163.632 14.812 163.861 14.812H165.407C165.636 14.812 165.792 14.854 165.873 14.9378C165.971 15.005 166.062 15.1392 166.144 15.3406L167.787 19.9464L169.137 14.2331C169.186 14.0653 169.252 13.9479 169.334 13.8808C169.415 13.7969 169.563 13.7549 169.775 13.7549H173.039C173.366 13.7549 173.53 13.8724 173.53 14.1073C173.53 14.1577 173.513 14.2331 173.481 14.3338L170.291 25.2067C170.225 25.4585 170.127 25.6262 169.997 25.7102C169.882 25.794 169.702 25.836 169.456 25.836H167.051C166.822 25.836 166.651 25.794 166.536 25.7102C166.422 25.6095 166.323 25.4417 166.242 25.2067L164.622 20.6513L163.002 25.2067C162.937 25.4417 162.839 25.6095 162.707 25.7102C162.593 25.794 162.422 25.836 162.192 25.836H159.812Z" fill="white"/>
<path d="M179.751 26.2131C178.214 26.2131 176.978 25.7098 176.046 24.703C175.13 23.6795 174.672 22.2448 174.672 20.3991C174.672 18.9897 174.983 17.7564 175.604 16.6993C176.243 15.6421 177.134 14.8284 178.279 14.2579C179.44 13.6707 180.774 13.377 182.279 13.377C183.522 13.377 184.618 13.5196 185.567 13.8048C186.532 14.0733 187.416 14.4677 188.217 14.9878V25.0553C188.217 25.3741 188.16 25.5839 188.045 25.6846C187.931 25.7853 187.702 25.8356 187.358 25.8356H184.855C184.676 25.8356 184.537 25.8104 184.438 25.7601C184.34 25.6929 184.259 25.5922 184.194 25.4581L183.874 24.703C183.399 25.2232 182.827 25.6007 182.156 25.8356C181.502 26.0873 180.7 26.2131 179.751 26.2131ZM181.591 22.7901C182.23 22.7901 182.729 22.6307 183.088 22.3119C183.449 21.9932 183.629 21.5401 183.629 20.9528V17.0265C183.318 16.8754 182.925 16.8 182.451 16.8C181.584 16.8 180.889 17.1104 180.365 17.7312C179.857 18.3521 179.604 19.2246 179.604 20.3488C179.604 21.9763 180.267 22.7901 181.591 22.7901Z" fill="white"/>
<path d="M191.608 30.9196C191.134 30.9196 190.799 30.8191 190.602 30.6177C190.423 30.4163 190.332 30.0975 190.332 29.6613V15.2395C191.069 14.7026 191.993 14.2579 193.105 13.9055C194.218 13.5532 195.38 13.377 196.59 13.377C201.53 13.377 204.001 15.5247 204.001 19.8202C204.001 21.7666 203.477 23.3187 202.431 24.4765C201.384 25.6342 199.903 26.2131 197.988 26.2131C197.449 26.2131 196.925 26.146 196.419 26.0117C195.928 25.8776 195.519 25.6929 195.191 25.4581V29.6613C195.191 30.0975 195.093 30.4163 194.897 30.6177C194.7 30.8191 194.365 30.9196 193.891 30.9196H191.608ZM196.934 22.8154C197.638 22.8154 198.161 22.5469 198.505 22.0099C198.864 21.4563 199.044 20.7179 199.044 19.7951C199.044 18.7044 198.831 17.9409 198.407 17.5047C197.997 17.0517 197.359 16.8251 196.492 16.8251C195.936 16.8251 195.494 16.9007 195.167 17.0517V21.0535C195.167 21.624 195.322 22.0603 195.633 22.3622C195.945 22.6643 196.378 22.8154 196.934 22.8154Z" fill="white"/>
<path fill-rule="evenodd" clip-rule="evenodd" d="M5.59722 5.88505C5.11882 3.25754 7.08452 0.830078 9.69062 0.830078C11.9904 0.830078 13.8548 2.74224 13.8548 5.10102V10.3664C14.4301 10.3248 15.0145 10.3035 15.6065 10.3035C16.1753 10.3035 16.7372 10.3232 17.2905 10.3616V5.10102C17.2905 2.74224 19.1548 0.830078 21.4547 0.830078C24.0608 0.830078 26.0264 3.25754 25.5481 5.88505L24.4212 12.0743C28.2887 13.8061 31.2131 16.8139 31.2131 20.5935V22.8802C31.2131 25.9883 29.2083 28.5906 26.4055 30.3474C23.5809 32.1177 19.7597 33.1701 15.6065 33.1701C11.4534 33.1701 7.6322 32.1177 4.80758 30.3474C2.00484 28.5906 0 25.9883 0 22.8802V20.5935C0 16.8339 2.89438 13.8376 6.72926 12.1024L5.59722 5.88505ZM22.977 12.8874L24.2958 5.64518C24.6278 3.82155 23.2635 2.13676 21.4547 2.13676C19.8585 2.13676 18.5645 3.46389 18.5645 5.10102V11.8016C18.1463 11.7466 17.7214 11.7031 17.2905 11.6715C16.7382 11.631 16.1763 11.6101 15.6065 11.6101C15.0135 11.6101 14.4289 11.6327 13.8548 11.6765C13.424 11.7095 12.999 11.7543 12.5808 11.8107V5.10102C12.5808 3.46389 11.2868 2.13676 9.69062 2.13676C7.88185 2.13676 6.51753 3.82153 6.84958 5.64518L8.1726 12.9114C4.03664 14.4871 1.274 17.3382 1.274 20.5935V22.8802C1.274 27.8416 7.6909 31.8635 15.6065 31.8635C23.5222 31.8635 29.9392 27.8416 29.9392 22.8802V20.5935C29.9392 17.3214 27.1482 14.4581 22.977 12.8874Z" fill="#633001"/>
<path d="M29.9386 22.8805C29.9386 27.8419 23.5216 31.8638 15.6059 31.8638C7.69034 31.8638 1.27344 27.8419 1.27344 22.8805V20.5938H29.9386V22.8805Z" fill="#FEDC90"/>
<path fill-rule="evenodd" clip-rule="evenodd" d="M6.84901 5.64515C6.51697 3.82151 7.88127 2.13672 9.69007 2.13672C11.2863 2.13672 12.5802 3.46387 12.5802 5.101V11.8106C13.5556 11.6792 14.568 11.6101 15.6059 11.6101C16.6201 11.6101 17.6095 11.6761 18.5639 11.8016V5.101C18.5639 3.46387 19.8579 2.13672 21.4541 2.13672C23.263 2.13672 24.6272 3.82151 24.2952 5.64515L22.9765 12.8874C27.1476 14.4581 29.9386 17.3215 29.9386 20.5935C29.9386 25.5549 23.5216 29.5768 15.6059 29.5768C7.69034 29.5768 1.27344 25.5549 1.27344 20.5935C1.27344 17.3381 4.03607 14.4871 8.17203 12.9114L6.84901 5.64515Z" fill="#D1884F"/>
<path d="M11.6264 19.9402C11.6264 21.2934 10.9134 22.3903 10.0339 22.3903C9.15439 22.3903 8.44141 21.2934 8.44141 19.9402C8.44141 18.5871 9.15439 17.4902 10.0339 17.4902C10.9134 17.4902 11.6264 18.5871 11.6264 19.9402Z" fill="#633001"/>
<path d="M22.6146 19.9402C22.6146 21.2934 21.9017 22.3903 21.0222 22.3903C20.1427 22.3903 19.4297 21.2934 19.4297 19.9402C19.4297 18.5871 20.1427 17.4902 21.0222 17.4902C21.9017 17.4902 22.6146 18.5871 22.6146 19.9402Z" fill="#633001"/>
</g>
<defs>
<clipPath id="clip0">
<rect width="204" height="34" fill="white"/>
</clipPath>
</defs>
</svg>
