<svg width="186" height="50" viewBox="0 0 186 50" fill="none" xmlns="http://www.w3.org/2000/svg">
<g clip-path="url(#clip0)">
<path d="M76.8835 19.6336C76.3776 17.6285 75.1024 16.1613 72.6088 16.1613C68.9289 16.1613 67.39 19.4616 67.39 22.8107C67.39 26.1599 68.9289 29.4619 72.6088 29.4619C75.2805 29.4619 76.7446 27.4332 76.9832 24.8901H79.9167C79.6763 29.0707 76.7677 31.9543 72.6141 31.9543C67.4684 31.9543 64.3906 27.7973 64.3906 22.8089C64.3906 17.8205 67.4577 13.6562 72.6034 13.6562C76.4738 13.6798 79.5267 15.857 79.8882 19.6228L76.8835 19.6336Z" fill="white"/>
<path d="M81.6914 25.1982C81.6914 21.3347 83.9748 18.5488 87.9663 18.5488C91.9578 18.5488 94.2412 21.3347 94.2412 25.1982C94.2412 29.0618 91.9578 31.8748 87.9663 31.8748C83.9748 31.8748 81.6914 29.0872 81.6914 25.1982ZM91.5001 25.1982C91.5001 23.0246 90.4189 20.7496 87.9663 20.7496C85.5137 20.7496 84.4326 23.0228 84.4326 25.1982C84.4326 27.3736 85.5137 29.674 87.9663 29.674C90.4189 29.674 91.5001 27.399 91.5001 25.1982Z" fill="white"/>
<path d="M96.6016 14.0732H99.3427V16.7142H96.6016V14.0732ZM96.6016 18.8914H99.3427V31.5327H96.6016V18.8914Z" fill="white"/>
<path d="M102.32 18.8911H104.917V20.7495L104.965 20.7984C105.359 20.11 105.924 19.5394 106.604 19.1441C107.284 18.7488 108.054 18.5428 108.837 18.5469C111.531 18.5469 113.237 20.0141 113.237 22.8488V31.5306H110.496V23.5842C110.448 21.6045 109.678 20.7495 108.068 20.7495C106.241 20.7495 105.061 22.2149 105.061 24.0733V31.5324H102.32V18.8911Z" fill="white"/>
<path d="M131.487 31.5323H129.563L129.107 29.4782C127.504 31.3367 126.029 31.9471 123.942 31.9471C118.8 31.9507 115.715 27.7846 115.715 22.8017C115.715 17.8187 118.8 13.6562 123.938 13.6562C127.679 13.6562 130.838 15.6849 131.294 19.6228H128.361C128.072 17.3242 126.102 16.1505 123.938 16.1505C120.259 16.1505 118.72 19.4507 118.72 22.7999C118.72 26.149 120.259 29.4511 123.938 29.4511C127.014 29.5 128.698 27.618 128.747 24.6583H124.179V22.338H131.481L131.487 31.5323Z" fill="white"/>
<path d="M136.515 25.9318C136.515 27.9134 137.573 29.674 139.856 29.674C141.443 29.674 142.405 28.964 142.884 27.5711H145.483C144.882 30.3334 142.574 31.8748 139.856 31.8748C135.962 31.8748 133.773 29.1107 133.773 25.2236C133.773 21.6281 136.089 18.5488 139.785 18.5488C143.703 18.5488 146.108 22.1425 145.652 25.9318H136.515ZM142.911 24.0987C142.814 22.3381 141.635 20.7496 139.785 20.7496C137.884 20.7496 136.588 22.215 136.515 24.0987H142.911Z" fill="white"/>
<path d="M156.134 23.1206C155.916 21.5792 154.81 20.7496 153.296 20.7496C151.871 20.7496 149.882 21.5067 149.882 25.3449C149.882 27.4479 150.796 29.674 153.175 29.674C154.762 29.674 155.868 28.5981 156.134 26.7886H158.875C158.369 30.0653 156.381 31.8748 153.175 31.8748C149.28 31.8748 147.141 29.0618 147.141 25.3449C147.141 21.5303 149.185 18.5488 153.271 18.5488C156.157 18.5488 158.615 20.016 158.875 23.1206H156.134Z" fill="white"/>
<path d="M161.191 14.0732H163.933V24.0011L168.886 18.8914H172.252L167.491 23.5356L172.708 31.5327H169.36L165.561 25.3941L163.925 27.008V31.5363H161.191V14.0732Z" fill="white"/>
<path d="M173.449 25.1982C173.449 21.3347 175.733 18.5488 179.724 18.5488C183.716 18.5488 186.001 21.3347 186.001 25.1982C186.001 29.0618 183.716 31.8748 179.724 31.8748C175.733 31.8748 173.449 29.0872 173.449 25.1982ZM183.26 25.1982C183.26 23.0246 182.177 20.7496 179.724 20.7496C177.272 20.7496 176.19 23.0228 176.19 25.1982C176.19 27.3736 177.272 29.674 179.724 29.674C182.177 29.674 183.26 27.399 183.26 25.1982Z" fill="white"/>
<path d="M49.159 24.8851C49.1804 29.829 47.7598 34.6682 45.0768 38.791C42.3937 42.9137 38.5688 46.1347 34.0856 48.0468C29.6024 49.9588 24.6624 50.4759 19.8903 49.5327C15.1181 48.5895 10.7282 46.2283 7.27558 42.7478C3.82298 39.2673 1.46281 34.8238 0.493523 29.9792C-0.475761 25.1346 -0.0106194 20.1065 1.83013 15.5307C3.67087 10.955 6.80454 7.03706 10.8349 4.27248C14.8652 1.5079 19.6111 0.0208043 24.4725 -0.000738909C30.9911 -0.0296261 37.2541 2.576 41.8837 7.24297C46.5132 11.9099 49.1302 18.256 49.159 24.8851Z" fill="#8DC63F"/>
<path d="M47.3165 24.895C47.3369 29.4674 46.0235 33.9431 43.5426 37.7564C41.0616 41.5696 37.5244 44.5491 33.3784 46.3179C29.2323 48.0868 24.6636 48.5656 20.2499 47.6938C15.8362 46.822 11.7759 44.6388 8.58237 41.4202C5.38883 38.2017 3.20552 34.0924 2.30855 29.6119C1.41157 25.1314 1.84121 20.4811 3.54313 16.249C5.24506 12.0168 8.14282 8.39299 11.87 5.8357C15.5971 3.2784 19.9863 1.90253 24.4824 1.88206C30.511 1.8551 36.3033 4.26437 40.5854 8.57999C44.8675 12.8956 47.2887 18.7642 47.3165 24.895Z" fill="#F9E988"/>
<path d="M24.9979 3.3802C26.443 3.11936 27.9219 3.11936 29.367 3.3802C30.8261 3.61515 32.2364 4.0957 33.5402 4.8021C34.8368 5.52663 35.9572 6.51019 37.0722 7.43215C38.1872 8.35412 39.2968 9.29782 40.353 10.3303C41.4312 11.3467 42.3721 12.5039 43.1512 13.7718C43.9533 15.0297 44.6107 16.3771 45.1104 17.7875C46.0598 20.6241 46.3893 23.6798 45.9155 26.5942H45.7748C45.2992 23.7052 44.6544 20.9519 43.6374 18.3327C43.16 17.0138 42.5984 15.7281 41.956 14.4837C41.2858 13.2391 40.5473 12.0339 39.7439 10.8737C38.9268 9.7008 37.9255 8.67271 36.7801 7.83065C35.6259 6.99381 34.2989 6.45222 33.0147 5.9378C31.7306 5.42339 30.457 4.89085 29.1176 4.49961C27.7782 4.10836 26.4174 3.81492 24.9961 3.53055L24.9979 3.3802Z" fill="white"/>
<path d="M36.1135 16.7348C34.4642 16.2494 32.7543 15.5611 31.023 14.8655C30.9233 14.4236 30.5386 13.8729 29.7602 13.2009C28.6292 12.2029 26.5043 12.2282 24.668 12.6702C22.641 12.1848 20.639 12.0127 18.7172 12.4891C2.99871 16.8924 11.9115 27.6354 6.14062 38.4346C6.96173 40.2061 15.8122 50.5415 28.6185 47.7684C28.6185 47.7684 24.2387 37.0652 34.1222 31.9283C42.1391 27.7459 47.9313 20.0079 36.1135 16.7348Z" fill="#8BC53F"/>
<path d="M38.0542 23.7654C38.0553 23.957 38.0004 24.1447 37.8966 24.3047C37.7928 24.4646 37.6446 24.5897 37.4709 24.664C37.2972 24.7384 37.1057 24.7586 36.9207 24.7223C36.7356 24.686 36.5653 24.5946 36.4313 24.4599C36.2973 24.3251 36.2056 24.153 36.1678 23.9652C36.13 23.7774 36.1478 23.5825 36.2189 23.405C36.2901 23.2275 36.4114 23.0755 36.5675 22.9681C36.7236 22.8607 36.9075 22.8028 37.096 22.8018C37.3486 22.8008 37.5912 22.9017 37.7708 23.0823C37.9504 23.2629 38.0524 23.5085 38.0542 23.7654Z" fill="white"/>
<path d="M24.6641 12.6634C25.8093 12.7467 29.9505 14.1124 31.0191 14.8587C30.1286 12.2323 27.1309 11.8827 24.6641 12.6634Z" fill="#009345"/>
<path d="M25.7565 19.3055C25.7569 20.1897 25.4993 21.0542 25.0165 21.7896C24.5337 22.525 23.8473 23.0982 23.0441 23.4368C22.2409 23.7755 21.357 23.8643 20.5042 23.692C19.6514 23.5197 18.8679 23.0941 18.253 22.4689C17.638 21.8438 17.2192 21.0473 17.0494 20.1801C16.8797 19.3129 16.9666 18.4139 17.2993 17.597C17.6319 16.78 18.1954 16.0817 18.9183 15.5904C19.6412 15.0991 20.4912 14.8369 21.3607 14.8369C21.9379 14.8367 22.5094 14.9521 23.0427 15.1765C23.5761 15.401 24.0607 15.7301 24.4689 16.1451C24.8771 16.5601 25.2009 17.0527 25.4219 17.595C25.6428 18.1373 25.7565 18.7185 25.7565 19.3055Z" fill="white"/>
<path d="M24.4497 19.3447C24.4497 19.9666 24.2684 20.5745 23.9286 21.0916C23.5888 21.6087 23.1059 22.0118 22.5409 22.2498C21.9759 22.4878 21.3542 22.55 20.7544 22.4287C20.1546 22.3074 19.6037 22.0079 19.1713 21.5681C18.7388 21.1284 18.4443 20.5681 18.325 19.9581C18.2057 19.3482 18.267 18.7159 18.501 18.1413C18.735 17.5668 19.1313 17.0757 19.6398 16.7301C20.1483 16.3846 20.7461 16.2002 21.3577 16.2002C22.1777 16.2002 22.9642 16.5315 23.5441 17.1212C24.1239 17.7109 24.4497 18.5107 24.4497 19.3447Z" fill="#58595B"/>
<path d="M41.6105 25.7358C38.0483 28.288 33.998 30.2243 28.252 30.2243C25.5625 30.2243 25.0175 27.3261 23.2399 28.7426C22.3227 29.478 19.0881 31.1227 16.5215 30.9977C13.9549 30.8727 9.79418 29.3422 8.63466 23.7705C8.17513 29.3422 7.94002 33.4466 5.88281 38.1507C9.97941 44.8218 19.7471 49.9678 28.6136 47.7507C27.6607 40.9854 33.4743 34.3595 36.7498 30.9687C37.9966 29.6845 40.3655 27.5888 41.6105 25.7322V25.7358Z" fill="#8BC53F"/>
<path d="M41.4762 25.9019C40.3702 26.9271 39.0539 27.686 37.7145 28.3562C36.3588 29.0108 34.9454 29.5342 33.4932 29.9194C32.0398 30.3016 30.5241 30.5896 28.9887 30.4483C27.4534 30.307 25.8842 29.7763 24.8672 28.6062L24.9153 28.55C26.1621 29.3724 27.6012 29.6622 29.0333 29.7038C30.4848 29.7487 31.9366 29.6272 33.3614 29.3416C34.8006 29.0352 36.2085 28.5925 37.5667 28.0193C38.9257 27.4487 40.2704 26.7876 41.4281 25.8457L41.4762 25.9019Z" fill="#58595B"/>
</g>
<defs>
<clipPath id="clip0">
<rect width="186" height="50" fill="white"/>
</clipPath>
</defs>
</svg>
