<svg width="20" height="20" viewBox="0 0 20 20" fill="none" xmlns="http://www.w3.org/2000/svg">
<mask id="path-1-inside-1" fill="white">
<path d="M9.96133 0.435547C4.46055 0.435547 0 4.82069 0 10.2302C0 14.5578 2.85422 18.2292 6.81219 19.5244C7.31 19.615 7.49281 19.3119 7.49281 19.0532C7.49281 18.8196 7.48352 18.048 7.4793 17.2296C4.70797 17.8221 4.1232 16.0739 4.1232 16.0739C3.67008 14.9418 3.01719 14.6408 3.01719 14.6408C2.11344 14.0329 3.08531 14.0453 3.08531 14.0453C4.08563 14.1145 4.61234 15.0547 4.61234 15.0547C5.50078 16.5521 6.94266 16.1192 7.51109 15.869C7.60047 15.2359 7.85867 14.8038 8.14352 14.5593C5.93102 14.3115 3.60508 13.4717 3.60508 9.71866C3.60508 8.64936 3.99422 7.77556 4.63148 7.08965C4.52805 6.84291 4.18711 5.84674 4.72797 4.49759C4.72797 4.49759 5.56445 4.23434 7.46805 5.5016C8.26258 5.28451 9.11477 5.17574 9.96133 5.17205C10.8079 5.17574 11.6607 5.28451 12.4568 5.5016C14.3581 4.23434 15.1934 4.49759 15.1934 4.49759C15.7356 5.84674 15.3945 6.84291 15.2911 7.08965C15.9298 7.77556 16.3162 8.64928 16.3162 9.71866C16.3162 13.4806 13.9859 14.309 11.7678 14.5514C12.1251 14.8554 12.4434 15.4515 12.4434 16.3652C12.4434 17.6757 12.4319 18.7305 12.4319 19.0532C12.4319 19.3138 12.6112 19.6192 13.1162 19.5231C17.072 18.2264 19.9226 14.5563 19.9226 10.2302C19.9226 4.82069 15.4627 0.435547 9.96133 0.435547Z"/>
</mask>
<path d="M9.96133 0.435547C4.46055 0.435547 0 4.82069 0 10.2302C0 14.5578 2.85422 18.2292 6.81219 19.5244C7.31 19.615 7.49281 19.3119 7.49281 19.0532C7.49281 18.8196 7.48352 18.048 7.4793 17.2296C4.70797 17.8221 4.1232 16.0739 4.1232 16.0739C3.67008 14.9418 3.01719 14.6408 3.01719 14.6408C2.11344 14.0329 3.08531 14.0453 3.08531 14.0453C4.08563 14.1145 4.61234 15.0547 4.61234 15.0547C5.50078 16.5521 6.94266 16.1192 7.51109 15.869C7.60047 15.2359 7.85867 14.8038 8.14352 14.5593C5.93102 14.3115 3.60508 13.4717 3.60508 9.71866C3.60508 8.64936 3.99422 7.77556 4.63148 7.08965C4.52805 6.84291 4.18711 5.84674 4.72797 4.49759C4.72797 4.49759 5.56445 4.23434 7.46805 5.5016C8.26258 5.28451 9.11477 5.17574 9.96133 5.17205C10.8079 5.17574 11.6607 5.28451 12.4568 5.5016C14.3581 4.23434 15.1934 4.49759 15.1934 4.49759C15.7356 5.84674 15.3945 6.84291 15.2911 7.08965C15.9298 7.77556 16.3162 8.64928 16.3162 9.71866C16.3162 13.4806 13.9859 14.309 11.7678 14.5514C12.1251 14.8554 12.4434 15.4515 12.4434 16.3652C12.4434 17.6757 12.4319 18.7305 12.4319 19.0532C12.4319 19.3138 12.6112 19.6192 13.1162 19.5231C17.072 18.2264 19.9226 14.5563 19.9226 10.2302C19.9226 4.82069 15.4627 0.435547 9.96133 0.435547Z" fill="#7994B0"/>
<path d="M6.81219 19.5244L3.7751 28.8057L4.40781 29.0128L5.06277 29.132L6.81219 19.5244ZM7.4793 17.2296L17.2448 17.1792L17.1829 5.1687L5.4376 7.67978L7.4793 17.2296ZM4.1232 16.0739L13.3844 12.976L13.2947 12.7078L13.1896 12.4452L4.1232 16.0739ZM3.01719 14.6408L-2.4335 22.7438L-1.78305 23.1813L-1.07112 23.5095L3.01719 14.6408ZM3.08531 14.0453L3.75865 4.30296L3.48481 4.28403L3.21035 4.28052L3.08531 14.0453ZM4.61234 15.0547L-3.90753 19.8275L-3.84821 19.9334L-3.78627 20.0378L4.61234 15.0547ZM7.51109 15.869L11.4452 24.8071L16.421 22.6171L17.1808 17.234L7.51109 15.869ZM8.14352 14.5593L14.5054 21.9683L31.5285 7.35105L9.2302 4.85427L8.14352 14.5593ZM4.63148 7.08965L11.7858 13.7367L16.0728 9.12254L13.6377 3.31406L4.63148 7.08965ZM4.72797 4.49759L1.79633 -4.81761L-2.61541 -3.42917L-4.3364 0.863781L4.72797 4.49759ZM7.46805 5.5016L2.05638 13.6306L5.75536 16.0931L10.0419 14.9219L7.46805 5.5016ZM9.96133 5.17205L10.0039 -4.59348L9.96133 -4.59367L9.91879 -4.59348L9.96133 5.17205ZM12.4568 5.5016L9.88762 14.9232L14.1751 16.0923L17.8729 13.6277L12.4568 5.5016ZM15.1934 4.49759L24.2547 0.856098L22.5329 -3.42846L18.1288 -4.81643L15.1934 4.49759ZM15.2911 7.08965L6.28485 3.31406L3.84689 9.12955L8.14406 13.7445L15.2911 7.08965ZM11.7678 14.5514L10.7068 4.8436L-11.8187 7.30559L5.43959 21.9892L11.7678 14.5514ZM13.1162 19.5231L14.9432 29.1163L15.5606 28.9987L16.1579 28.8029L13.1162 19.5231ZM19.9226 10.2302H29.6882H19.9226ZM9.96133 -9.33008C-0.776341 -9.33008 -9.76562 -0.727919 -9.76562 10.2302H9.76562C9.76562 10.2269 9.76578 10.2334 9.76313 10.2462C9.76061 10.2583 9.757 10.269 9.75361 10.2769C9.74726 10.2917 9.74685 10.2852 9.76452 10.2678C9.78226 10.2504 9.80652 10.2337 9.8343 10.2221C9.85602 10.2131 9.89313 10.2012 9.96133 10.2012V-9.33008ZM-9.76562 10.2302C-9.76562 18.994 -3.9905 26.2646 3.7751 28.8057L9.84928 10.243C9.82684 10.2357 9.80612 10.225 9.78754 10.2117C9.76807 10.1976 9.7562 10.1843 9.75107 10.1774C9.7467 10.1716 9.75165 10.1765 9.75768 10.1943C9.76062 10.203 9.76292 10.2122 9.76435 10.2208C9.76581 10.2297 9.76562 10.2334 9.76562 10.2302H-9.76562ZM5.06277 29.132C7.48479 29.573 10.9633 29.2871 13.8591 26.6901C16.4892 24.3315 17.2584 21.2781 17.2584 19.0532H-2.27281C-2.27281 17.087 -1.59497 14.3145 0.81922 12.1495C3.49924 9.74604 6.6374 9.56634 8.56161 9.91671L5.06277 29.132ZM17.2584 19.0532C17.2584 18.8802 17.2554 18.563 17.2529 18.2749C17.25 17.9515 17.2468 17.5693 17.2448 17.1792L-2.2862 17.2799C-2.28399 17.7083 -2.28047 18.1211 -2.27761 18.4465C-2.27615 18.6124 -2.27492 18.7498 -2.27402 18.8624C-2.27358 18.918 -2.27326 18.9629 -2.27305 18.9982C-2.27295 19.0157 -2.27289 19.0292 -2.27285 19.0393C-2.27281 19.0498 -2.27281 19.0539 -2.27281 19.0532H17.2584ZM5.4376 7.67978C5.77409 7.60783 6.51868 7.50709 7.52731 7.6899C8.57264 7.87935 9.62139 8.32418 10.555 9.01207C11.4531 9.67386 12.0785 10.4357 12.5034 11.1054C12.7166 11.4414 12.8889 11.7686 13.0296 12.0752C13.1004 12.2295 13.1646 12.3818 13.2232 12.5311C13.2525 12.6059 13.2805 12.6804 13.3073 12.7544C13.3207 12.7915 13.3338 12.8284 13.3467 12.8654C13.3531 12.8838 13.3595 12.9023 13.3657 12.9207C13.3689 12.9299 13.372 12.9391 13.3751 12.9484C13.3767 12.953 13.379 12.9599 13.3798 12.9622C13.3821 12.9691 13.3844 12.976 4.1232 16.0739C-5.13802 19.1719 -5.13569 19.1788 -5.13337 19.1857C-5.13259 19.1881 -5.13024 19.195 -5.12867 19.1997C-5.12552 19.209 -5.12234 19.2184 -5.11912 19.2278C-5.11268 19.2467 -5.10611 19.2658 -5.09939 19.2851C-5.08596 19.3236 -5.07196 19.3631 -5.05736 19.4035C-5.02817 19.4841 -4.99653 19.5683 -4.96226 19.6557C-4.89383 19.8304 -4.81432 20.0196 -4.7221 20.2206C-4.53862 20.6205 -4.29899 21.0797 -3.9877 21.5702C-3.36648 22.5492 -2.4217 23.7111 -1.03095 24.7358C2.07577 27.025 5.87875 27.5581 9.521 26.7794L5.4376 7.67978ZM13.1896 12.4452C12.4567 10.614 11.4216 9.12741 10.2564 7.9786C9.68654 7.41681 9.11386 6.96353 8.57447 6.60094C8.30543 6.42008 8.04568 6.26245 7.79958 6.12532C7.67654 6.05676 7.55685 5.99329 7.44104 5.93456C7.38313 5.9052 7.32618 5.87702 7.27024 5.84997C7.24227 5.83644 7.21455 5.8232 7.18709 5.81024C7.17336 5.80376 7.1597 5.79734 7.1461 5.791C7.1393 5.78783 7.13252 5.78467 7.12575 5.78153C7.12237 5.77997 7.1173 5.77762 7.11561 5.77684C7.11055 5.7745 7.1055 5.77217 3.01719 14.6408C-1.07112 23.5095 -1.07617 23.5072 -1.08122 23.5048C-1.0829 23.5041 -1.08795 23.5017 -1.09132 23.5002C-1.09804 23.497 -1.10477 23.4939 -1.11149 23.4908C-1.12493 23.4845 -1.13835 23.4782 -1.15177 23.4719C-1.1786 23.4592 -1.20537 23.4464 -1.23209 23.4335C-1.28553 23.4076 -1.33876 23.3813 -1.39178 23.3544C-1.4978 23.3006 -1.60302 23.2448 -1.70733 23.1866C-1.91595 23.0704 -2.12115 22.9451 -2.3219 22.8102C-2.72472 22.5394 -3.10586 22.2321 -3.45582 21.8871C-4.18135 21.1718 -4.66339 20.4018 -4.94321 19.7027L13.1896 12.4452ZM8.46787 6.5379C8.64548 6.65738 9.05792 6.94626 9.54319 7.41472C9.95519 7.81244 10.9296 8.82007 11.6288 10.4591C12.4364 12.3519 12.877 15.1889 11.5714 18.1382C10.4111 20.7594 8.46681 22.0846 7.48789 22.6334C6.45572 23.2121 5.55716 23.4597 5.12698 23.564C4.63622 23.683 4.23716 23.736 3.99831 23.7618C3.74297 23.7895 3.53045 23.8007 3.37856 23.8059C3.2983 23.8087 3.22377 23.8101 3.15571 23.8106C3.12141 23.8109 3.08803 23.811 3.05563 23.8109C3.0394 23.8109 3.02335 23.8108 3.00748 23.8107C2.99954 23.8106 2.99164 23.8105 2.98377 23.8104C2.97984 23.8104 2.97592 23.8104 2.972 23.8103C2.97005 23.8103 2.96711 23.8102 2.96613 23.8102C2.96321 23.8102 2.96028 23.8102 3.08531 14.0453C3.21035 4.28052 3.20741 4.28048 3.20447 4.28044C3.20348 4.28043 3.20052 4.28039 3.19854 4.28037C3.19456 4.28032 3.19055 4.28028 3.1865 4.28024C3.1784 4.28015 3.17015 4.28008 3.16174 4.28001C3.14494 4.27988 3.12751 4.27978 3.10947 4.27973C3.07345 4.27964 3.03473 4.27972 2.99353 4.28006C2.91168 4.28074 2.81714 4.28247 2.71208 4.28605C2.51057 4.29293 2.22918 4.30799 1.89685 4.34396C1.61924 4.374 -0.166585 4.53352 -2.0632 5.5968C-3.10712 6.18204 -5.10227 7.55315 -6.28825 10.2323C-7.61942 13.2395 -7.17925 16.1464 -6.33571 18.1236C-5.60047 19.8469 -4.55374 20.9533 -4.02191 21.4667C-3.41681 22.0508 -2.83704 22.4723 -2.4335 22.7438L8.46787 6.5379ZM2.41197 23.7877C-0.126622 23.6123 -1.77782 22.3436 -2.49953 21.6585C-2.89049 21.2874 -3.17641 20.9347 -3.37851 20.6573C-3.48396 20.5126 -3.57867 20.3717 -3.6642 20.2365C-3.70728 20.1684 -3.7489 20.1005 -3.78919 20.0327C-3.80936 19.9987 -3.82929 19.9646 -3.84898 19.9305C-3.85883 19.9134 -3.86863 19.8963 -3.87839 19.8791C-3.88327 19.8705 -3.88813 19.8619 -3.89299 19.8533C-3.89542 19.849 -3.89784 19.8447 -3.90027 19.8404C-3.90148 19.8383 -3.9033 19.835 -3.9039 19.834C-3.90571 19.8307 -3.90753 19.8275 4.61234 15.0547C13.1322 10.282 13.1304 10.2787 13.1286 10.2755C13.128 10.2744 13.1261 10.2711 13.1249 10.2689C13.1225 10.2646 13.12 10.2602 13.1175 10.2558C13.1125 10.2469 13.1074 10.238 13.1023 10.229C13.092 10.2109 13.0815 10.1924 13.0706 10.1736C13.0488 10.1358 13.0258 10.0965 13.0016 10.0556C12.9531 9.97403 12.8992 9.88579 12.8397 9.79187C12.7215 9.60502 12.5778 9.39011 12.4073 9.15614C12.0752 8.7003 11.5951 8.10826 10.9474 7.49343C9.71227 6.32089 7.29756 4.54754 3.75865 4.30296L2.41197 23.7877ZM-3.78627 20.0378C-1.67594 23.5946 1.77542 25.5334 5.3271 25.8454C8.22977 26.1004 10.5012 25.2226 11.4452 24.8071L3.57701 6.93085C3.95255 6.76555 5.21883 6.22938 7.03634 6.38905C8.06507 6.47943 9.29132 6.79905 10.4904 7.53934C11.7003 8.28636 12.5145 9.23494 13.011 10.0717L-3.78627 20.0378ZM17.1808 17.234C16.9952 18.5491 16.3063 20.4219 14.5054 21.9683L1.7816 7.15024C-0.589004 9.18581 -1.79427 11.9226 -2.15866 14.504L17.1808 17.234ZM9.2302 4.85427C8.67208 4.79178 9.88905 4.78657 11.2706 5.92982C12.0595 6.58271 12.6649 7.41543 13.0264 8.28882C13.3627 9.10133 13.3707 9.66193 13.3707 9.71866H-6.16055C-6.16055 13.7901 -4.7794 17.9996 -1.18136 20.977C1.91626 23.5404 5.40245 24.079 7.05683 24.2642L9.2302 4.85427ZM13.3707 9.71866C13.3707 10.3952 13.2422 11.1555 12.9335 11.9194C12.6282 12.6749 12.2086 13.2817 11.7858 13.7367L-2.52286 0.44264C-4.74481 2.83418 -6.16055 6.04913 -6.16055 9.71866H13.3707ZM13.6377 3.31406C14.175 4.59577 14.498 6.37112 13.7923 8.1314L-4.3364 0.863781C-6.1238 5.32236 -5.11895 9.09005 -4.37476 10.8652L13.6377 3.31406ZM4.72797 4.49759C7.65961 13.8128 7.65037 13.8157 7.64114 13.8186C7.63806 13.8195 7.62882 13.8224 7.62266 13.8243C7.61034 13.8282 7.59802 13.832 7.58569 13.8357C7.56104 13.8433 7.53638 13.8507 7.51171 13.858C7.46236 13.8727 7.41297 13.887 7.36355 13.9008C7.26471 13.9285 7.16582 13.9545 7.06692 13.9788C6.86901 14.0274 6.67177 14.069 6.47555 14.1039C6.08208 14.1738 5.69865 14.2153 5.32848 14.232C4.58214 14.2656 3.93275 14.1966 3.40361 14.0871C2.35949 13.8708 1.89276 13.5217 2.05638 13.6306L12.8797 -2.62744C11.1397 -3.78578 9.30298 -4.63687 7.36472 -5.03831C6.3885 -5.2405 5.41102 -5.32287 4.44835 -5.27945C3.97001 -5.25787 3.50636 -5.2057 3.05971 -5.12636C2.8369 -5.08678 2.61982 -5.04071 2.40873 -4.98887C2.30324 -4.96297 2.19943 -4.93566 2.0973 -4.90706C2.04624 -4.89277 1.99563 -4.87816 1.94546 -4.86324C1.92038 -4.85578 1.89541 -4.84825 1.87055 -4.84064C1.85812 -4.83684 1.84572 -4.83302 1.83335 -4.82918C1.82717 -4.82726 1.81791 -4.82437 1.81482 -4.82341C1.80557 -4.82051 1.79633 -4.81761 4.72797 4.49759ZM10.0419 14.9219C10.0128 14.9299 9.99233 14.9344 9.98055 14.9367C9.96871 14.9391 9.96323 14.9397 9.96382 14.9397C9.96438 14.9396 9.96887 14.939 9.97675 14.9385C9.98462 14.938 9.99388 14.9376 10.0039 14.9376L9.91879 -4.59348C8.28741 -4.58638 6.57902 -4.37908 4.89417 -3.91873L10.0419 14.9219ZM9.91879 14.9376C9.92878 14.9376 9.93816 14.938 9.94628 14.9385C9.95441 14.9391 9.9593 14.9397 9.96039 14.9398C9.96152 14.94 9.95675 14.9394 9.94579 14.9372C9.93488 14.935 9.91544 14.9308 9.88762 14.9232L15.026 -3.92001C13.3427 -4.37901 11.6355 -4.58638 10.0039 -4.59348L9.91879 14.9376ZM17.8729 13.6277C18.0356 13.5192 17.5674 13.8696 16.5211 14.0865C15.9909 14.1965 15.3402 14.2657 14.5926 14.2319C14.2217 14.2152 13.8377 14.1736 13.4436 14.1035C13.2471 14.0685 13.0496 14.0267 12.8514 13.978C12.7524 13.9537 12.6534 13.9276 12.5544 13.8999C12.505 13.886 12.4555 13.8717 12.4061 13.857C12.3814 13.8496 12.3567 13.8422 12.3321 13.8346C12.3197 13.8308 12.3074 13.827 12.295 13.8232C12.2889 13.8213 12.2796 13.8184 12.2765 13.8174C12.2673 13.8145 12.2581 13.8116 15.1934 4.49759C18.1288 -4.81643 18.1196 -4.81934 18.1103 -4.82224C18.1072 -4.82321 18.0979 -4.8261 18.0918 -4.82803C18.0794 -4.83188 18.067 -4.83571 18.0545 -4.83952C18.0296 -4.84715 18.0046 -4.8547 17.9795 -4.86217C17.9293 -4.87713 17.8786 -4.89178 17.8275 -4.90611C17.7253 -4.93478 17.6213 -4.96215 17.5157 -4.98812C17.3044 -5.04009 17.0871 -5.08628 16.864 -5.12596C16.4169 -5.20549 15.9527 -5.25779 15.4739 -5.27942C14.5102 -5.32295 13.5319 -5.24036 12.5551 -5.0378C10.6159 -4.63564 8.77932 -3.78331 7.04066 -2.62447L17.8729 13.6277ZM6.13215 8.13908C5.42338 6.37542 5.74734 4.59623 6.28485 3.31406L24.2973 10.8652C25.0417 9.0896 26.0479 5.31806 24.2547 0.856098L6.13215 8.13908ZM8.14406 13.7445C7.71427 13.2829 7.29148 12.6701 6.98546 11.9107C6.67651 11.1441 6.55063 10.3863 6.55063 9.71866H26.0819C26.0819 6.06583 24.6805 2.84299 22.4381 0.43478L8.14406 13.7445ZM6.55063 9.71866C6.55063 9.66538 6.55802 9.10284 6.89658 8.28632C7.26094 7.40758 7.87178 6.56989 8.66816 5.91447C10.0591 4.76974 11.2828 4.78065 10.7068 4.8436L12.8289 24.2592C14.471 24.0797 17.9689 23.5552 21.0795 20.9952C24.7 18.0155 26.0819 13.7923 26.0819 9.71866H6.55063ZM5.43959 21.9892C3.18101 20.0676 2.67781 17.6896 2.67781 16.3652H22.2091C22.2091 13.2134 21.0691 9.64318 18.096 7.1136L5.43959 21.9892ZM2.67781 16.3652C2.67781 16.9926 2.67504 17.5619 2.67222 18.0193C2.66964 18.4361 2.66625 18.852 2.66625 19.0532H22.1975C22.1975 18.9317 22.1999 18.6588 22.2031 18.14C22.2061 17.6617 22.2091 17.0484 22.2091 16.3652H2.67781ZM2.66625 19.0532C2.66625 21.2012 3.38772 24.2889 6.06068 26.6886C9.01402 29.3401 12.5512 29.5718 14.9432 29.1163L11.2892 9.92986C13.1762 9.57048 16.3712 9.69755 19.1086 12.1552C21.5657 14.3611 22.1975 17.1657 22.1975 19.0532H2.66625ZM16.1579 28.8029C23.9209 26.2584 29.6882 18.9888 29.6882 10.2302H10.157C10.157 10.2338 10.1567 10.2302 10.1582 10.2216C10.1596 10.2132 10.1618 10.2042 10.1647 10.1955C10.1707 10.1779 10.1756 10.1729 10.1714 10.1786C10.1665 10.1852 10.1548 10.1983 10.1357 10.2121C10.1174 10.2253 10.0969 10.2359 10.0745 10.2432L16.1579 28.8029ZM29.6882 10.2302C29.6882 -0.727475 20.7 -9.33008 9.96133 -9.33008V10.2012C10.0298 10.2012 10.067 10.2132 10.0886 10.2222C10.1163 10.2337 10.1405 10.2503 10.1581 10.2677C10.1757 10.2849 10.1753 10.2913 10.1689 10.2766C10.1655 10.2687 10.1619 10.258 10.1594 10.2459C10.1568 10.2333 10.157 10.2268 10.157 10.2302H29.6882Z" fill="#43596F" mask="url(#path-1-inside-1)"/>
<path d="M3.73164 14.3887C3.70977 14.4374 3.6318 14.452 3.56094 14.4186C3.48868 14.3867 3.44805 14.3203 3.47149 14.2714C3.49297 14.2214 3.57094 14.2074 3.64305 14.241C3.71547 14.2729 3.75672 14.3399 3.73164 14.3887ZM4.22164 14.8186C4.17414 14.8619 4.08125 14.8418 4.01821 14.7734C3.95305 14.7051 3.94086 14.6138 3.98907 14.5698C4.03805 14.5266 4.12813 14.5468 4.19344 14.6151C4.2586 14.6842 4.27125 14.7749 4.22157 14.8187L4.22164 14.8186ZM4.55782 15.3686C4.49672 15.4103 4.39688 15.3712 4.33524 15.2841C4.27422 15.1971 4.27422 15.0926 4.33657 15.0508C4.39844 15.0089 4.49672 15.0465 4.55922 15.133C4.62016 15.2215 4.62016 15.326 4.55774 15.3687L4.55782 15.3686ZM5.12625 16.0057C5.07165 16.0648 4.95539 16.049 4.87024 15.9682C4.78321 15.8892 4.75891 15.7772 4.81368 15.7179C4.86891 15.6586 4.98586 15.6753 5.07164 15.7554C5.15813 15.8342 5.18454 15.9471 5.12633 16.0057H5.12625ZM5.86094 16.2208C5.83696 16.2974 5.72493 16.3323 5.61211 16.2997C5.49946 16.2662 5.42571 16.1763 5.44844 16.0988C5.47188 16.0216 5.58438 15.9853 5.69805 16.0201C5.81055 16.0535 5.88446 16.1427 5.86102 16.2208H5.86094ZM6.69719 16.312C6.7 16.3928 6.6043 16.4598 6.48586 16.4612C6.36672 16.4637 6.27039 16.3984 6.26914 16.3189C6.26914 16.2374 6.36266 16.171 6.48172 16.1691C6.60016 16.1668 6.69719 16.2317 6.69719 16.312ZM7.5186 16.281C7.53282 16.3598 7.45047 16.4408 7.33289 16.4623C7.21727 16.483 7.11024 16.4344 7.09547 16.3563C7.0811 16.2755 7.165 16.1946 7.28039 16.1736C7.39821 16.1535 7.5036 16.2009 7.5186 16.281Z" fill="#7994B0"/>
</svg>
