<svg width="41" height="50" viewBox="0 0 41 50" fill="none" xmlns="http://www.w3.org/2000/svg">
<path opacity="0.5" d="M39.9798 23.6906C40.3497 24.2285 40.5347 24.4975 40.6071 24.7837C40.6711 25.037 40.6711 25.2989 40.6071 25.5522C40.5347 25.8385 40.3497 26.1074 39.9798 26.6453L23.7135 47.3875C22.7345 48.8109 22.245 49.5226 21.6077 49.7622C21.0518 49.9712 20.4178 49.9712 19.8618 49.7622C19.2246 49.5226 18.7351 48.8109 17.7561 47.3875L1.48979 26.6453C1.11983 26.1074 0.934852 25.8385 0.862489 25.5522C0.798469 25.2989 0.798469 25.037 0.862489 24.7837C0.934852 24.4975 1.11983 24.2285 1.48979 23.6906L17.7561 2.94848C18.7351 1.52508 19.2246 0.813377 19.8618 0.573747C20.4178 0.364692 21.0518 0.364694 21.6077 0.573747C22.245 0.813376 22.7345 1.52508 23.7135 2.94848L39.9798 23.6906Z" fill="url(#paint0_linear)"/>
<defs>
<linearGradient id="paint0_linear" x1="37.1496" y1="12.5566" x2="10.9502" y2="43.4094" gradientUnits="userSpaceOnUse">
<stop stop-color="#344AE6" stop-opacity="0.6"/>
<stop offset="1" stop-color="#298DFF" stop-opacity="0.4"/>
</linearGradient>
</defs>
</svg>
