<svg width="44" height="38" viewBox="0 0 44 38" fill="none" xmlns="http://www.w3.org/2000/svg">
<path opacity="0.5" d="M19.468 2.51835C20.2989 1.10161 20.7144 0.393242 21.2568 0.155516C21.7299 -0.0518384 22.2701 -0.0518384 22.7432 0.155516C23.2856 0.393242 23.7011 1.10161 24.532 2.51834L42.8096 33.6828C43.6405 35.0996 44.056 35.8079 43.9939 36.3892C43.9398 36.8962 43.6697 37.3568 43.2507 37.6565C42.7704 38 41.9395 38 40.2777 38L3.72233 38C2.06053 38 1.22963 38 0.749293 37.6565C0.330327 37.3568 0.0601984 36.8962 0.00606618 36.3892C-0.0559948 35.8079 0.359455 35.0996 1.19036 33.6828L19.468 2.51835Z" fill="url(#paint0_linear)"/>
<defs>
<linearGradient id="paint0_linear" x1="-4.95368" y1="23.4071" x2="48.9515" y2="23.4071" gradientUnits="userSpaceOnUse">
<stop stop-color="#344AE6" stop-opacity="0.6"/>
<stop offset="1" stop-color="#298DFF" stop-opacity="0.4"/>
</linearGradient>
</defs>
</svg>
