<svg width="40" height="40" viewBox="0 0 40 40" fill="none" xmlns="http://www.w3.org/2000/svg">
<path opacity="0.5" d="M3.2 40C2.0799 40 1.51984 40 1.09202 39.782C0.715695 39.5903 0.409734 39.2843 0.217987 38.908C0 38.4802 0 37.9201 0 36.8V3.2C0 2.0799 0 1.51984 0.217987 1.09202C0.409734 0.715695 0.715695 0.409734 1.09202 0.217987C1.51984 0 2.0799 0 3.2 0H20.9874C20.9944 0 21 0.00563475 21 0.0125856C21 0.0192958 21.0053 0.0248284 21.012 0.0251625C31.5874 0.55222 40 9.29368 40 20C40 30.7063 31.5874 39.4478 21.012 39.9748C21.0053 39.9752 21 39.9807 21 39.9874C21 39.9944 20.9944 40 20.9874 40H3.2Z" fill="url(#paint0_linear)"/>
<defs>
<linearGradient id="paint0_linear" x1="-7.20844e-07" y1="19" x2="40" y2="19" gradientUnits="userSpaceOnUse">
<stop stop-color="#344AE6" stop-opacity="0.6"/>
<stop offset="1" stop-color="#298DFF" stop-opacity="0.4"/>
</linearGradient>
</defs>
</svg>
