<svg width="50" height="35" viewBox="0 0 50 35" fill="none" xmlns="http://www.w3.org/2000/svg">
<path opacity="0.5" d="M23.2775 1.20502C23.9146 0.784946 24.2331 0.574912 24.5769 0.493257C24.8808 0.42109 25.1973 0.42109 25.5012 0.493257C25.845 0.574912 26.1635 0.784947 26.8006 1.20502L47.5379 14.8788C48.8906 15.7708 49.567 16.2168 49.8021 16.7804C50.0076 17.2731 50.0076 17.8275 49.8021 18.3202C49.567 18.8838 48.8906 19.3298 47.5379 20.2218L26.8006 33.8956C26.1635 34.3157 25.845 34.5257 25.5012 34.6074C25.1973 34.6796 24.8808 34.6796 24.5769 34.6074C24.2331 34.5257 23.9146 34.3157 23.2775 33.8956L2.54026 20.2218C1.18749 19.3298 0.511103 18.8838 0.276022 18.3202C0.0705347 17.8275 0.0705344 17.2731 0.276023 16.7804C0.511102 16.2168 1.18749 15.7708 2.54026 14.8788L23.2775 1.20502Z" fill="url(#paint0_linear)"/>
<defs>
<linearGradient id="paint0_linear" x1="12.4277" y1="3.6114" x2="38.978" y2="30.1617" gradientUnits="userSpaceOnUse">
<stop stop-color="#344AE6" stop-opacity="0.6"/>
<stop offset="1" stop-color="#298DFF" stop-opacity="0.4"/>
</linearGradient>
</defs>
</svg>
