<svg width="24" height="54" viewBox="0 0 24 54" fill="none" xmlns="http://www.w3.org/2000/svg">
<path opacity="0.5" d="M23.7305 49.4668C23.7305 51.2833 23.7305 52.1915 23.349 52.717C23.0162 53.1754 22.5046 53.4712 21.9413 53.5309C21.2956 53.5994 20.5084 53.1463 18.9341 52.2401L1.60491 42.2653C1.02074 41.929 0.728662 41.7609 0.516218 41.5254C0.328249 41.317 0.186237 41.0714 0.0994129 40.8046C0.00128365 40.503 0.00128365 40.1659 0.00128365 39.4919V4.53431C0.00128365 2.71782 0.00128365 1.80958 0.38279 1.28405C0.715563 0.825649 1.22711 0.529861 1.79041 0.470135C2.43619 0.401661 3.22335 0.854755 4.79766 1.76094L22.1268 11.7358C22.711 12.072 23.0031 12.2402 23.2155 12.4757C23.4035 12.6841 23.5455 12.9297 23.6323 13.1965C23.7305 13.4981 23.7305 13.8351 23.7305 14.5092V49.4668Z" fill="url(#paint0_linear)"/>
<defs>
<linearGradient id="paint0_linear" x1="23.7305" y1="28.4006" x2="0.00128407" y2="28.4006" gradientUnits="userSpaceOnUse">
<stop stop-color="#344AE6" stop-opacity="0.6"/>
<stop offset="1" stop-color="#298DFF" stop-opacity="0.4"/>
</linearGradient>
</defs>
</svg>
