<svg width="663" height="663" viewBox="0 0 663 663" fill="none" xmlns="http://www.w3.org/2000/svg">
<rect width="663" height="663" rx="12" fill="#F5F8FD"/>
<rect opacity="0.2" x="266" y="267" width="130" height="130" rx="65" fill="#BAC8D7"/>
<g filter="url(#filter0_d)">
<rect x="281" y="282" width="100" height="100" rx="50" fill="white"/>
</g>
<path opacity="0.6" fill-rule="evenodd" clip-rule="evenodd" d="M317.146 326.007C316.535 326.35 316 326.083 316 325.36V322.392L327.116 316V318.968C327.116 319.691 326.619 320.566 325.97 320.908L317.146 326.007Z" fill="#298DFF"/>
<path opacity="0.6" fill-rule="evenodd" clip-rule="evenodd" d="M333.418 346.516C334.029 346.174 334.029 345.565 333.418 345.223L324.555 340.124C323.944 339.782 322.913 339.782 322.302 340.124L319.742 341.608L330.858 348L333.418 346.516Z" fill="#344AE6"/>
<path opacity="0.6" fill-rule="evenodd" clip-rule="evenodd" d="M343.083 320.909C342.472 320.566 341.938 320.833 341.938 321.556V331.753C341.938 332.476 342.434 333.351 343.083 333.694L345.643 335.178V322.393L343.083 320.909Z" fill="#4264F2"/>
<path fill-rule="evenodd" clip-rule="evenodd" d="M316 322.392L327.116 316L337.124 321.746C337.735 322.088 337.735 322.697 337.124 323.039L328.262 328.138C327.651 328.48 326.619 328.48 326.008 328.138L316 322.392Z" fill="#298DFF"/>
<path fill-rule="evenodd" clip-rule="evenodd" d="M319.705 330.078C319.705 329.355 320.202 329.089 320.851 329.431L329.713 334.53C330.324 334.872 330.859 335.748 330.859 336.471V347.962L319.705 341.569V330.078Z" fill="#344AE6"/>
<path fill-rule="evenodd" clip-rule="evenodd" d="M335.671 340.923C335.06 341.265 334.525 340.999 334.525 340.276V330.079C334.525 329.356 335.022 328.481 335.671 328.138L345.68 322.393V335.177L335.671 340.923Z" fill="#4264F2"/>
<ellipse cx="332.633" cy="310.883" rx="204.633" ry="202.883" stroke="#298DFF" stroke-width="2" stroke-linecap="round" stroke-dasharray="1 6"/>
<g filter="url(#filter1_d)">
<ellipse cx="338.498" cy="516" rx="50.4977" ry="50" fill="white"/>
</g>
<path d="M352 509H349V508C349 507.47 348.789 506.961 348.414 506.586C348.039 506.212 347.53 506.001 347 506H331C330.47 506.001 329.962 506.212 329.587 506.586C329.212 506.961 329.001 507.47 329 508V509H325.984C325.454 509.001 324.946 509.212 324.571 509.586C324.196 509.961 323.985 510.47 323.984 511V513C323.986 514.326 324.513 515.597 325.451 516.534C326.388 517.471 327.659 517.998 328.984 518H329.49C330.695 521.742 334.008 524.543 338 524.948V528H335C334.735 528 334.481 528.105 334.293 528.293C334.106 528.48 334 528.735 334 529C334 529.265 334.106 529.52 334.293 529.707C334.481 529.895 334.735 530 335 530H343C343.265 530 343.52 529.895 343.707 529.707C343.895 529.52 344 529.265 344 529C344 528.735 343.895 528.48 343.707 528.293C343.52 528.105 343.265 528 343 528H340V524.951C341.948 524.754 343.795 523.991 345.313 522.755C346.831 521.52 347.954 519.867 348.543 518H349C350.326 517.998 351.597 517.471 352.534 516.534C353.471 515.597 353.999 514.326 354 513V511C354 510.47 353.789 509.961 353.414 509.586C353.039 509.212 352.53 509.001 352 509ZM328.984 516C328.189 515.999 327.426 515.683 326.864 515.12C326.302 514.558 325.985 513.795 325.984 513V511H329V514.887C329.001 515.259 329.022 515.63 329.063 516H328.984ZM352 513C351.999 513.795 351.683 514.558 351.121 515.12C350.558 515.683 349.796 515.999 349 516H348.951C348.984 515.67 349 515.337 349 515V511H352V513Z" fill="url(#paint0_linear)"/>
<path d="M340.767 547.172V541.844H339.495L334.863 547.508L335.211 548.648H339.111V550.712H340.767V548.648H341.727V547.172H340.767ZM339.111 544.412V547.172H336.879L339.111 544.412Z" fill="#BAC8D7"/>
<g filter="url(#filter2_d)">
<ellipse cx="470.687" cy="147" rx="49.6865" ry="50" fill="white"/>
</g>
<path d="M480.996 141H476.496V137.5C476.496 136.041 475.917 134.642 474.885 133.611C473.854 132.579 472.455 132 470.996 132C469.537 132 468.138 132.579 467.107 133.611C466.076 134.642 465.496 136.041 465.496 137.5V141H460.996C460.466 141.001 459.957 141.212 459.583 141.586C459.208 141.961 458.997 142.47 458.996 143V157C458.997 157.53 459.208 158.039 459.583 158.414C459.957 158.788 460.466 158.999 460.996 159H480.996C481.526 158.999 482.035 158.788 482.41 158.414C482.785 158.039 482.995 157.53 482.996 157V143C482.995 142.47 482.785 141.961 482.41 141.586C482.035 141.212 481.526 141.001 480.996 141ZM467.496 137.5C467.496 136.572 467.865 135.682 468.521 135.025C469.178 134.369 470.068 134 470.996 134C471.924 134 472.815 134.369 473.471 135.025C474.127 135.682 474.496 136.572 474.496 137.5V141H467.496V137.5ZM477.996 155H463.996C463.731 155 463.477 154.895 463.289 154.707C463.101 154.52 462.996 154.265 462.996 154C462.996 153.735 463.101 153.48 463.289 153.293C463.477 153.105 463.731 153 463.996 153H477.996C478.261 153 478.516 153.105 478.703 153.293C478.891 153.48 478.996 153.735 478.996 154C478.996 154.265 478.891 154.52 478.703 154.707C478.516 154.895 478.261 155 477.996 155ZM477.996 151H463.996C463.731 151 463.477 150.895 463.289 150.707C463.101 150.52 462.996 150.265 462.996 150C462.996 149.735 463.101 149.48 463.289 149.293C463.477 149.105 463.731 149 463.996 149H477.996C478.261 149 478.516 149.105 478.703 149.293C478.891 149.48 478.996 149.735 478.996 150C478.996 150.265 478.891 150.52 478.703 150.707C478.516 150.895 478.261 151 477.996 151ZM477.996 147H463.996C463.731 147 463.477 146.895 463.289 146.707C463.101 146.52 462.996 146.265 462.996 146C462.996 145.735 463.101 145.48 463.289 145.293C463.477 145.105 463.731 145 463.996 145H477.996C478.261 145 478.516 145.105 478.703 145.293C478.891 145.48 478.996 145.735 478.996 146C478.996 146.265 478.891 146.52 478.703 146.707C478.516 146.895 478.261 147 477.996 147Z" fill="url(#paint1_linear)"/>
<path d="M472.164 178.7C473.268 177.548 473.82 176.54 473.82 175.688C473.82 174.896 473.544 174.248 473.004 173.744C472.464 173.228 471.768 172.976 470.928 172.976C469.788 172.976 468.744 173.432 467.82 174.356L468.792 175.628C469.5 174.968 470.16 174.644 470.784 174.644C471.492 174.644 472.008 175.112 472.008 175.784C472.008 176 471.936 176.228 471.804 176.468C471.672 176.708 471.552 176.9 471.444 177.032C471.336 177.164 471.144 177.356 470.88 177.632L468.12 180.524V182H473.904V180.368H470.604L472.164 178.7Z" fill="#BAC8D7"/>
<g filter="url(#filter3_d)">
<ellipse cx="524.091" cy="370" rx="50.0905" ry="50" fill="white"/>
</g>
<path d="M534.974 368.77C534.936 368.61 534.86 368.462 534.751 368.339C534.642 368.215 534.505 368.12 534.351 368.063L527.147 365.361L528.981 356.195C529.023 355.982 528.995 355.76 528.901 355.564C528.806 355.368 528.65 355.209 528.457 355.109C528.263 355.01 528.042 354.977 527.828 355.014C527.614 355.051 527.417 355.158 527.269 355.317L513.269 370.317C513.157 370.437 513.076 370.583 513.034 370.742C512.991 370.901 512.989 371.067 513.026 371.228C513.064 371.388 513.14 371.536 513.249 371.659C513.358 371.783 513.495 371.878 513.649 371.935L520.853 374.637L519.019 383.803C518.977 384.016 519.005 384.238 519.099 384.434C519.194 384.63 519.35 384.789 519.543 384.889C519.737 384.988 519.958 385.022 520.172 384.984C520.386 384.947 520.583 384.84 520.731 384.681L534.731 369.681C534.843 369.561 534.924 369.415 534.966 369.256C535.009 369.097 535.011 368.931 534.974 368.77Z" fill="url(#paint2_linear)"/>
<path d="M523.655 405.352C524.603 405.352 525.371 405.112 525.959 404.62C526.547 404.128 526.847 403.504 526.847 402.724C526.847 401.656 526.211 400.78 525.107 400.54V400.492C525.983 400.192 526.607 399.448 526.607 398.5C526.607 397.84 526.343 397.3 525.803 396.856C525.263 396.412 524.603 396.184 523.799 396.184C522.731 396.184 521.675 396.604 520.967 397.264L521.819 398.536C522.455 398.08 523.043 397.852 523.583 397.852C524.303 397.852 524.819 398.236 524.819 398.872C524.819 399.496 524.291 399.916 523.475 399.916H522.503V401.5H523.631C524.447 401.5 524.999 401.944 524.999 402.604C524.999 403.276 524.459 403.72 523.559 403.72C522.923 403.72 522.239 403.504 521.507 403.06L520.763 404.476C521.687 405.064 522.659 405.352 523.655 405.352Z" fill="#BAC8D7"/>
<g filter="url(#filter4_d)">
<ellipse cx="203.494" cy="147" rx="50.4944" ry="50" fill="white"/>
</g>
<path d="M214.894 139.553L212.894 135.553C212.811 135.387 212.684 135.247 212.526 135.149C212.368 135.052 212.186 135 212 135H194C193.814 135 193.632 135.052 193.474 135.149C193.316 135.247 193.189 135.387 193.106 135.553L191.106 139.553C191.036 139.692 191 139.845 191 140V157C191.001 157.53 191.212 158.039 191.586 158.414C191.961 158.788 192.47 158.999 193 159H213C213.53 158.999 214.039 158.788 214.414 158.414C214.788 158.039 214.999 157.53 215 157V140C215 139.845 214.964 139.692 214.894 139.553ZM207.95 150.464L203.707 154.707C203.7 154.714 203.693 154.72 203.686 154.726C203.669 154.742 203.653 154.758 203.635 154.772C203.627 154.779 203.618 154.785 203.609 154.792C203.592 154.805 203.574 154.819 203.556 154.831C203.549 154.836 203.542 154.84 203.535 154.844C203.514 154.857 203.494 154.87 203.472 154.881C203.467 154.884 203.461 154.887 203.456 154.889C203.432 154.901 203.408 154.913 203.383 154.924C203.38 154.925 203.376 154.926 203.373 154.928C203.346 154.938 203.319 154.948 203.291 154.957C203.288 154.958 203.284 154.958 203.28 154.959C203.253 154.967 203.225 154.975 203.197 154.98C203.189 154.982 203.18 154.983 203.172 154.984C203.148 154.988 203.124 154.993 203.1 154.995C203.033 155.002 202.967 155.002 202.9 154.995C202.876 154.993 202.852 154.988 202.828 154.984C202.82 154.983 202.811 154.982 202.803 154.98C202.775 154.975 202.747 154.967 202.72 154.959C202.716 154.958 202.712 154.958 202.709 154.957C202.681 154.948 202.654 154.938 202.627 154.927C202.624 154.926 202.62 154.925 202.617 154.924C202.592 154.913 202.568 154.901 202.544 154.889C202.539 154.887 202.533 154.884 202.528 154.881C202.506 154.87 202.486 154.857 202.465 154.844C202.458 154.84 202.451 154.836 202.444 154.831C202.426 154.819 202.408 154.805 202.391 154.792C202.382 154.785 202.373 154.779 202.365 154.772C202.348 154.758 202.332 154.743 202.315 154.728C202.308 154.721 202.3 154.714 202.293 154.707L198.05 150.464C197.863 150.277 197.757 150.023 197.757 149.757C197.757 149.492 197.863 149.238 198.05 149.05C198.238 148.863 198.492 148.757 198.757 148.757C199.023 148.757 199.277 148.863 199.464 149.05L202 151.586V144C202 143.735 202.105 143.48 202.293 143.293C202.48 143.105 202.735 143 203 143C203.265 143 203.52 143.105 203.707 143.293C203.895 143.48 204 143.735 204 144V151.586L206.536 149.05C206.628 148.957 206.739 148.884 206.86 148.833C206.981 148.783 207.111 148.757 207.243 148.757C207.374 148.757 207.504 148.783 207.625 148.833C207.747 148.884 207.857 148.957 207.95 149.05C208.043 149.143 208.116 149.253 208.167 149.375C208.217 149.496 208.243 149.626 208.243 149.757C208.243 149.889 208.217 150.019 208.167 150.14C208.116 150.261 208.043 150.372 207.95 150.464L207.95 150.464ZM193.618 139L194.618 137H211.382L212.382 139H193.618Z" fill="url(#paint3_linear)"/>
<path d="M200.956 175.316L201.868 176.576L203.284 175.484V182H205.024V173.132H203.704L200.956 175.316Z" fill="#BAC8D7"/>
<g filter="url(#filter5_d)">
<ellipse cx="147.687" cy="376" rx="49.6865" ry="50" fill="white"/>
</g>
<path fill-rule="evenodd" clip-rule="evenodd" d="M147.496 377.864L135.496 370.864C135.345 370.776 135.22 370.65 135.133 370.498C135.046 370.346 135 370.175 135 370C135 369.825 135.046 369.654 135.133 369.502C135.22 369.35 135.345 369.224 135.496 369.136L147.496 362.136C147.649 362.047 147.823 362 148 362C148.177 362 148.351 362.047 148.504 362.136L160.504 369.136C160.655 369.224 160.78 369.35 160.867 369.502C160.954 369.654 161 369.825 161 370C161 370.175 160.954 370.346 160.867 370.498C160.78 370.65 160.655 370.776 160.504 370.864L148.504 377.864C148.351 377.953 148.177 378 148 378C147.823 378 147.649 377.953 147.496 377.864ZM159.496 375.136L148 381.842L136.504 375.136C136.275 375.003 136.002 374.965 135.746 375.033C135.489 375.1 135.27 375.267 135.136 375.496C135.003 375.725 134.965 375.998 135.033 376.254C135.1 376.511 135.267 376.73 135.496 376.864L147.496 383.864C147.649 383.953 147.823 384 148 384C148.177 384 148.351 383.953 148.504 383.864L160.504 376.864C160.733 376.73 160.9 376.511 160.967 376.254C161.035 375.998 160.997 375.725 160.864 375.496C160.73 375.267 160.511 375.1 160.254 375.033C159.998 374.965 159.725 375.003 159.496 375.136ZM159.496 381.136L148 387.842L136.504 381.136C136.275 381.003 136.002 380.965 135.746 381.033C135.489 381.1 135.27 381.267 135.136 381.496C135.003 381.725 134.965 381.998 135.033 382.254C135.1 382.511 135.267 382.73 135.496 382.864L147.496 389.864C147.649 389.953 147.823 390 148 390C148.177 390 148.351 389.953 148.504 389.864L160.504 382.864C160.617 382.798 160.717 382.71 160.796 382.605C160.876 382.501 160.934 382.381 160.967 382.254C161.001 382.127 161.009 381.995 160.991 381.865C160.973 381.735 160.93 381.61 160.864 381.496C160.798 381.383 160.71 381.283 160.605 381.204C160.501 381.124 160.381 381.066 160.254 381.033C160.127 381 159.995 380.991 159.865 381.009C159.735 381.027 159.61 381.07 159.496 381.136Z" fill="url(#paint4_linear)"/>
<path d="M148.109 405.099C147.689 405.099 147.293 405.171 146.921 405.315L147.113 403.575H150.485V401.943H145.793L145.313 406.383L146.345 407.211C146.765 406.815 147.245 406.623 147.809 406.623C148.673 406.623 149.309 407.187 149.309 407.955C149.309 408.723 148.697 409.323 147.701 409.323C146.993 409.323 146.273 409.071 145.517 408.555L144.809 409.971C145.721 410.631 146.717 410.955 147.785 410.955C148.781 410.955 149.573 410.667 150.185 410.103C150.797 409.539 151.097 408.819 151.097 407.955C151.097 407.103 150.809 406.419 150.233 405.891C149.657 405.363 148.949 405.099 148.109 405.099Z" fill="#BAC8D7"/>
<rect width="663" height="663" rx="12" fill="#F5F8FD"/>
<circle cx="331" cy="332" r="205" stroke="#298DFF" stroke-width="2" stroke-linecap="round" stroke-dasharray="1 6"/>
<g filter="url(#filter6_d)">
<circle cx="330" cy="537" r="50" fill="white"/>
</g>
<path d="M343 529H340V528C340 527.47 339.789 526.961 339.414 526.586C339.039 526.212 338.53 526.001 338 526H322C321.47 526.001 320.962 526.212 320.587 526.586C320.212 526.961 320.001 527.47 320 528V529H316.984C316.454 529.001 315.946 529.212 315.571 529.586C315.196 529.961 314.985 530.47 314.984 531V533C314.986 534.326 315.513 535.597 316.451 536.534C317.388 537.471 318.659 537.998 319.984 538H320.49C321.695 541.742 325.008 544.543 329 544.948V548H326C325.735 548 325.481 548.105 325.293 548.293C325.106 548.48 325 548.735 325 549C325 549.265 325.106 549.52 325.293 549.707C325.481 549.895 325.735 550 326 550H334C334.265 550 334.52 549.895 334.707 549.707C334.895 549.52 335 549.265 335 549C335 548.735 334.895 548.48 334.707 548.293C334.52 548.105 334.265 548 334 548H331V544.951C332.948 544.754 334.795 543.991 336.313 542.755C337.831 541.52 338.954 539.867 339.543 538H340C341.326 537.998 342.597 537.471 343.534 536.534C344.471 535.597 344.999 534.326 345 533V531C345 530.47 344.789 529.961 344.414 529.586C344.039 529.212 343.53 529.001 343 529ZM319.984 536C319.189 535.999 318.426 535.683 317.864 535.12C317.302 534.558 316.985 533.795 316.984 533V531H320V534.887C320.001 535.259 320.022 535.63 320.063 536H319.984ZM343 533C342.999 533.795 342.683 534.558 342.121 535.12C341.558 535.683 340.796 535.999 340 536H339.951C339.984 535.67 340 535.337 340 535V531H343V533Z" fill="url(#paint5_linear)"/>
<g filter="url(#filter7_d)">
<ellipse cx="451.687" cy="167" rx="49.6865" ry="50" fill="white"/>
</g>
<path d="M461.996 161H457.496V157.5C457.496 156.041 456.917 154.642 455.885 153.611C454.854 152.579 453.455 152 451.996 152C450.537 152 449.138 152.579 448.107 153.611C447.076 154.642 446.496 156.041 446.496 157.5V161H441.996C441.466 161.001 440.957 161.212 440.583 161.586C440.208 161.961 439.997 162.47 439.996 163V177C439.997 177.53 440.208 178.039 440.583 178.414C440.957 178.788 441.466 178.999 441.996 179H461.996C462.526 178.999 463.035 178.788 463.41 178.414C463.785 178.039 463.995 177.53 463.996 177V163C463.995 162.47 463.785 161.961 463.41 161.586C463.035 161.212 462.526 161.001 461.996 161ZM448.496 157.5C448.496 156.572 448.865 155.682 449.521 155.025C450.178 154.369 451.068 154 451.996 154C452.924 154 453.815 154.369 454.471 155.025C455.127 155.682 455.496 156.572 455.496 157.5V161H448.496V157.5ZM458.996 175H444.996C444.731 175 444.477 174.895 444.289 174.707C444.101 174.52 443.996 174.265 443.996 174C443.996 173.735 444.101 173.48 444.289 173.293C444.477 173.105 444.731 173 444.996 173H458.996C459.261 173 459.516 173.105 459.703 173.293C459.891 173.48 459.996 173.735 459.996 174C459.996 174.265 459.891 174.52 459.703 174.707C459.516 174.895 459.261 175 458.996 175ZM458.996 171H444.996C444.731 171 444.477 170.895 444.289 170.707C444.101 170.52 443.996 170.265 443.996 170C443.996 169.735 444.101 169.48 444.289 169.293C444.477 169.105 444.731 169 444.996 169H458.996C459.261 169 459.516 169.105 459.703 169.293C459.891 169.48 459.996 169.735 459.996 170C459.996 170.265 459.891 170.52 459.703 170.707C459.516 170.895 459.261 171 458.996 171ZM458.996 167H444.996C444.731 167 444.477 166.895 444.289 166.707C444.101 166.52 443.996 166.265 443.996 166C443.996 165.735 444.101 165.48 444.289 165.293C444.477 165.105 444.731 165 444.996 165H458.996C459.261 165 459.516 165.105 459.703 165.293C459.891 165.48 459.996 165.735 459.996 166C459.996 166.265 459.891 166.52 459.703 166.707C459.516 166.895 459.261 167 458.996 167Z" fill="url(#paint6_linear)"/>
<path d="M333.855 126.605L329.355 122.275L329.355 130.936L333.855 126.605Z" fill="#298DFF"/>
<g filter="url(#filter8_d)">
<ellipse cx="526.091" cy="395" rx="50.0905" ry="50" fill="white"/>
</g>
<path d="M536.974 393.77C536.936 393.61 536.86 393.462 536.751 393.339C536.642 393.215 536.505 393.12 536.351 393.063L529.147 390.361L530.981 381.195C531.023 380.982 530.995 380.76 530.901 380.564C530.806 380.368 530.65 380.209 530.457 380.109C530.263 380.01 530.042 379.977 529.828 380.014C529.614 380.051 529.417 380.158 529.269 380.317L515.269 395.317C515.157 395.437 515.076 395.583 515.034 395.742C514.991 395.901 514.989 396.067 515.026 396.228C515.064 396.388 515.14 396.536 515.249 396.659C515.358 396.783 515.495 396.878 515.649 396.935L522.853 399.637L521.019 408.803C520.977 409.016 521.005 409.238 521.099 409.434C521.194 409.63 521.35 409.789 521.543 409.889C521.737 409.988 521.958 410.022 522.172 409.984C522.386 409.947 522.583 409.84 522.731 409.681L536.731 394.681C536.843 394.561 536.924 394.415 536.966 394.256C537.009 394.097 537.011 393.931 536.974 393.77Z" fill="url(#paint7_linear)"/>
<path d="M604.423 406.24C605.923 406.24 607.123 405.84 608.063 405.04C609.003 404.24 609.483 403.2 609.483 401.94C609.483 400.16 608.383 398.72 606.603 398.32V398.24C608.123 397.76 609.163 396.46 609.163 394.86C609.163 393.76 608.743 392.82 607.903 392.08C607.063 391.34 605.983 390.96 604.643 390.96C602.983 390.96 601.283 391.64 600.223 392.7L601.243 394.1C602.363 393.24 603.443 392.8 604.483 392.8C605.983 392.8 607.123 393.68 607.123 395.12C607.123 396.54 605.963 397.52 604.343 397.52H602.543V399.3H604.363C606.143 399.3 607.403 400.36 607.403 401.88C607.403 403.38 606.243 404.4 604.403 404.4C603.303 404.4 602.083 403.98 600.783 403.16L599.883 404.78C601.323 405.76 602.843 406.24 604.423 406.24Z" fill="#4264F2"/>
<g filter="url(#filter9_d)">
<ellipse cx="210.494" cy="166" rx="50.4944" ry="50" fill="white"/>
</g>
<path d="M221.894 158.553L219.894 154.553C219.811 154.387 219.684 154.247 219.526 154.149C219.368 154.052 219.186 154 219 154H201C200.814 154 200.632 154.052 200.474 154.149C200.316 154.247 200.189 154.387 200.106 154.553L198.106 158.553C198.036 158.692 198 158.845 198 159V176C198.001 176.53 198.212 177.039 198.586 177.414C198.961 177.788 199.47 177.999 200 178H220C220.53 177.999 221.039 177.788 221.414 177.414C221.788 177.039 221.999 176.53 222 176V159C222 158.845 221.964 158.692 221.894 158.553ZM214.95 169.464L210.707 173.707C210.7 173.714 210.693 173.72 210.686 173.726C210.669 173.742 210.653 173.758 210.635 173.772C210.627 173.779 210.618 173.785 210.609 173.792C210.592 173.805 210.574 173.819 210.556 173.831C210.549 173.836 210.542 173.84 210.535 173.844C210.514 173.857 210.494 173.87 210.472 173.881C210.467 173.884 210.461 173.887 210.456 173.889C210.432 173.901 210.408 173.913 210.383 173.924C210.38 173.925 210.376 173.926 210.373 173.928C210.346 173.938 210.319 173.948 210.291 173.957C210.288 173.958 210.284 173.958 210.28 173.959C210.253 173.967 210.225 173.975 210.197 173.98C210.189 173.982 210.18 173.983 210.172 173.984C210.148 173.988 210.124 173.993 210.1 173.995C210.033 174.002 209.967 174.002 209.9 173.995C209.876 173.993 209.852 173.988 209.828 173.984C209.82 173.983 209.811 173.982 209.803 173.98C209.775 173.975 209.747 173.967 209.72 173.959C209.716 173.958 209.712 173.958 209.709 173.957C209.681 173.948 209.654 173.938 209.627 173.927C209.624 173.926 209.62 173.925 209.617 173.924C209.592 173.913 209.568 173.901 209.544 173.889C209.539 173.887 209.533 173.884 209.528 173.881C209.506 173.87 209.486 173.857 209.465 173.844C209.458 173.84 209.451 173.836 209.444 173.831C209.426 173.819 209.408 173.805 209.391 173.792C209.382 173.785 209.373 173.779 209.365 173.772C209.348 173.758 209.332 173.743 209.315 173.728C209.308 173.721 209.3 173.714 209.293 173.707L205.05 169.464C204.863 169.277 204.757 169.023 204.757 168.757C204.757 168.492 204.863 168.238 205.05 168.05C205.238 167.863 205.492 167.757 205.757 167.757C206.023 167.757 206.277 167.863 206.464 168.05L209 170.586V163C209 162.735 209.105 162.48 209.293 162.293C209.48 162.105 209.735 162 210 162C210.265 162 210.52 162.105 210.707 162.293C210.895 162.48 211 162.735 211 163V170.586L213.536 168.05C213.628 167.957 213.739 167.884 213.86 167.833C213.981 167.783 214.111 167.757 214.243 167.757C214.374 167.757 214.504 167.783 214.625 167.833C214.747 167.884 214.857 167.957 214.95 168.05C215.043 168.143 215.116 168.253 215.167 168.375C215.217 168.496 215.243 168.626 215.243 168.757C215.243 168.889 215.217 169.019 215.167 169.14C215.116 169.261 215.043 169.372 214.95 169.464L214.95 169.464ZM200.618 158L201.618 156H218.382L219.382 158H200.618Z" fill="url(#paint8_linear)"/>
<g filter="url(#filter10_d)">
<ellipse cx="135.687" cy="395" rx="49.6865" ry="50" fill="white"/>
</g>
<path fill-rule="evenodd" clip-rule="evenodd" d="M135.496 396.864L123.496 389.864C123.345 389.776 123.22 389.65 123.133 389.498C123.046 389.346 123 389.175 123 389C123 388.825 123.046 388.654 123.133 388.502C123.22 388.35 123.345 388.224 123.496 388.136L135.496 381.136C135.649 381.047 135.823 381 136 381C136.177 381 136.351 381.047 136.504 381.136L148.504 388.136C148.655 388.224 148.78 388.35 148.867 388.502C148.954 388.654 149 388.825 149 389C149 389.175 148.954 389.346 148.867 389.498C148.78 389.65 148.655 389.776 148.504 389.864L136.504 396.864C136.351 396.953 136.177 397 136 397C135.823 397 135.649 396.953 135.496 396.864ZM147.496 394.136L136 400.842L124.504 394.136C124.275 394.003 124.002 393.965 123.746 394.033C123.489 394.1 123.27 394.267 123.136 394.496C123.003 394.725 122.965 394.998 123.033 395.254C123.1 395.511 123.267 395.73 123.496 395.864L135.496 402.864C135.649 402.953 135.823 403 136 403C136.177 403 136.351 402.953 136.504 402.864L148.504 395.864C148.733 395.73 148.9 395.511 148.967 395.254C149.035 394.998 148.997 394.725 148.864 394.496C148.73 394.267 148.511 394.1 148.254 394.033C147.998 393.965 147.725 394.003 147.496 394.136ZM147.496 400.136L136 406.842L124.504 400.136C124.275 400.003 124.002 399.965 123.746 400.033C123.489 400.1 123.27 400.267 123.136 400.496C123.003 400.725 122.965 400.998 123.033 401.254C123.1 401.511 123.267 401.73 123.496 401.864L135.496 408.864C135.649 408.953 135.823 409 136 409C136.177 409 136.351 408.953 136.504 408.864L148.504 401.864C148.617 401.798 148.717 401.71 148.796 401.605C148.876 401.501 148.934 401.381 148.967 401.254C149.001 401.127 149.009 400.995 148.991 400.865C148.973 400.735 148.93 400.61 148.864 400.496C148.798 400.383 148.71 400.283 148.605 400.204C148.501 400.124 148.381 400.066 148.254 400.033C148.127 400 147.995 399.991 147.865 400.009C147.735 400.027 147.61 400.07 147.496 400.136Z" fill="url(#paint9_linear)"/>
<path d="M57.9773 396.36C57.1173 396.36 56.3173 396.56 55.5773 396.94L56.0773 393H61.9373V391.22H54.5373L53.6973 398.6L55.0173 399.36C55.7573 398.58 56.6773 398.18 57.7373 398.18C58.6573 398.18 59.4173 398.48 60.0173 399.08C60.6173 399.66 60.9173 400.4 60.9173 401.28C60.9173 402.18 60.6173 402.92 59.9973 403.52C59.3773 404.1 58.5973 404.4 57.6173 404.4C56.3373 404.4 55.0973 403.9 53.8973 402.9L52.9573 404.46C54.3773 405.64 55.9573 406.24 57.6973 406.24C59.2173 406.24 60.4773 405.78 61.4573 404.84C62.4373 403.9 62.9373 402.7 62.9373 401.26C62.9373 399.84 62.4573 398.68 61.5173 397.76C60.5773 396.82 59.3973 396.36 57.9773 396.36Z" fill="#4264F2"/>
<path d="M334.963 614.54V605.22H333.823L325.743 615.08L326.163 616.28H333.043V620H334.963V616.28H336.623V614.54H334.963ZM333.043 608.84V614.54H328.383L333.043 608.84Z" fill="#4264F2"/>
<path d="M514.354 116.62C515.734 115.1 516.414 113.7 516.414 112.4C516.414 111.06 515.994 110 515.134 109.18C514.274 108.36 513.174 107.96 511.834 107.96C510.114 107.96 508.534 108.66 507.114 110.06L508.214 111.48C509.374 110.36 510.574 109.8 511.794 109.8C513.314 109.8 514.474 110.84 514.474 112.3C514.474 113.58 513.714 114.6 512.114 116.26L507.374 121.34V123H516.594V121.16H510.234L514.354 116.62Z" fill="#4264F2"/>
<path d="M147.723 111.74L148.823 113.12L151.503 110.88V123H153.483V108.22H151.903L147.723 111.74Z" fill="#4264F2"/>
<rect opacity="0.2" x="266" y="267" width="130" height="130" rx="65" fill="#BAC8D7"/>
<g filter="url(#filter11_d)">
<rect x="281" y="282" width="100" height="100" rx="50" fill="white"/>
</g>
<path opacity="0.6" fill-rule="evenodd" clip-rule="evenodd" d="M317.146 326.007C316.535 326.35 316 326.083 316 325.36V322.392L327.116 316V318.968C327.116 319.691 326.619 320.566 325.97 320.908L317.146 326.007Z" fill="#298DFF"/>
<path opacity="0.6" fill-rule="evenodd" clip-rule="evenodd" d="M333.418 346.516C334.029 346.174 334.029 345.565 333.418 345.223L324.555 340.124C323.944 339.782 322.913 339.782 322.302 340.124L319.742 341.608L330.858 348L333.418 346.516Z" fill="#344AE6"/>
<path opacity="0.6" fill-rule="evenodd" clip-rule="evenodd" d="M343.083 320.909C342.472 320.566 341.938 320.833 341.938 321.556V331.753C341.938 332.476 342.434 333.351 343.083 333.694L345.643 335.178V322.393L343.083 320.909Z" fill="#4264F2"/>
<path fill-rule="evenodd" clip-rule="evenodd" d="M316 322.392L327.116 316L337.124 321.746C337.735 322.088 337.735 322.697 337.124 323.039L328.262 328.138C327.651 328.48 326.619 328.48 326.008 328.138L316 322.392Z" fill="#298DFF"/>
<path fill-rule="evenodd" clip-rule="evenodd" d="M319.705 330.078C319.705 329.355 320.202 329.089 320.851 329.431L329.713 334.53C330.324 334.872 330.859 335.748 330.859 336.471V347.962L319.705 341.569V330.078Z" fill="#344AE6"/>
<path fill-rule="evenodd" clip-rule="evenodd" d="M335.671 340.923C335.06 341.265 334.525 340.999 334.525 340.276V330.079C334.525 329.356 335.022 328.481 335.671 328.138L345.68 322.393V335.177L335.671 340.923Z" fill="#4264F2"/>
<rect width="663" height="663" rx="12" fill="#F5F8FD"/>
<circle cx="331" cy="332" r="205" stroke="#298DFF" stroke-width="2" stroke-linecap="round" stroke-dasharray="1 6"/>
<g filter="url(#filter12_d)">
<circle cx="330" cy="537" r="50" fill="white"/>
</g>
<path d="M343 529H340V528C340 527.47 339.789 526.961 339.414 526.586C339.039 526.212 338.53 526.001 338 526H322C321.47 526.001 320.962 526.212 320.587 526.586C320.212 526.961 320.001 527.47 320 528V529H316.984C316.454 529.001 315.946 529.212 315.571 529.586C315.196 529.961 314.985 530.47 314.984 531V533C314.986 534.326 315.513 535.597 316.451 536.534C317.388 537.471 318.659 537.998 319.984 538H320.49C321.695 541.742 325.008 544.543 329 544.948V548H326C325.735 548 325.481 548.105 325.293 548.293C325.106 548.48 325 548.735 325 549C325 549.265 325.106 549.52 325.293 549.707C325.481 549.895 325.735 550 326 550H334C334.265 550 334.52 549.895 334.707 549.707C334.895 549.52 335 549.265 335 549C335 548.735 334.895 548.48 334.707 548.293C334.52 548.105 334.265 548 334 548H331V544.951C332.948 544.754 334.795 543.991 336.313 542.755C337.831 541.52 338.954 539.867 339.543 538H340C341.326 537.998 342.597 537.471 343.534 536.534C344.471 535.597 344.999 534.326 345 533V531C345 530.47 344.789 529.961 344.414 529.586C344.039 529.212 343.53 529.001 343 529ZM319.984 536C319.189 535.999 318.426 535.683 317.864 535.12C317.302 534.558 316.985 533.795 316.984 533V531H320V534.887C320.001 535.259 320.022 535.63 320.063 536H319.984ZM343 533C342.999 533.795 342.683 534.558 342.121 535.12C341.558 535.683 340.796 535.999 340 536H339.951C339.984 535.67 340 535.337 340 535V531H343V533Z" fill="url(#paint10_linear)"/>
<g filter="url(#filter13_d)">
<ellipse cx="451.687" cy="167" rx="49.6865" ry="50" fill="white"/>
</g>
<path d="M461.996 161H457.496V157.5C457.496 156.041 456.917 154.642 455.885 153.611C454.854 152.579 453.455 152 451.996 152C450.537 152 449.138 152.579 448.107 153.611C447.076 154.642 446.496 156.041 446.496 157.5V161H441.996C441.466 161.001 440.957 161.212 440.583 161.586C440.208 161.961 439.997 162.47 439.996 163V177C439.997 177.53 440.208 178.039 440.583 178.414C440.957 178.788 441.466 178.999 441.996 179H461.996C462.526 178.999 463.035 178.788 463.41 178.414C463.785 178.039 463.995 177.53 463.996 177V163C463.995 162.47 463.785 161.961 463.41 161.586C463.035 161.212 462.526 161.001 461.996 161ZM448.496 157.5C448.496 156.572 448.865 155.682 449.521 155.025C450.178 154.369 451.068 154 451.996 154C452.924 154 453.815 154.369 454.471 155.025C455.127 155.682 455.496 156.572 455.496 157.5V161H448.496V157.5ZM458.996 175H444.996C444.731 175 444.477 174.895 444.289 174.707C444.101 174.52 443.996 174.265 443.996 174C443.996 173.735 444.101 173.48 444.289 173.293C444.477 173.105 444.731 173 444.996 173H458.996C459.261 173 459.516 173.105 459.703 173.293C459.891 173.48 459.996 173.735 459.996 174C459.996 174.265 459.891 174.52 459.703 174.707C459.516 174.895 459.261 175 458.996 175ZM458.996 171H444.996C444.731 171 444.477 170.895 444.289 170.707C444.101 170.52 443.996 170.265 443.996 170C443.996 169.735 444.101 169.48 444.289 169.293C444.477 169.105 444.731 169 444.996 169H458.996C459.261 169 459.516 169.105 459.703 169.293C459.891 169.48 459.996 169.735 459.996 170C459.996 170.265 459.891 170.52 459.703 170.707C459.516 170.895 459.261 171 458.996 171ZM458.996 167H444.996C444.731 167 444.477 166.895 444.289 166.707C444.101 166.52 443.996 166.265 443.996 166C443.996 165.735 444.101 165.48 444.289 165.293C444.477 165.105 444.731 165 444.996 165H458.996C459.261 165 459.516 165.105 459.703 165.293C459.891 165.48 459.996 165.735 459.996 166C459.996 166.265 459.891 166.52 459.703 166.707C459.516 166.895 459.261 167 458.996 167Z" fill="url(#paint11_linear)"/>
<path d="M335 127L326.75 118.34L326.75 135.66L335 127Z" fill="#298DFF"/>
<path d="M136.997 265.589L126.497 271.316L143.227 275.799L136.997 265.589Z" fill="#298DFF"/>
<path d="M527.507 274.214L533.737 264.003L517.006 268.486L527.507 274.214Z" fill="#298DFF"/>
<path d="M452 497.16L463.475 500.535L454.815 485.535L452 497.16Z" fill="#298DFF"/>
<path d="M204.072 493.071L203.781 505.028L216.029 492.781L204.072 493.071Z" fill="#298DFF"/>
<path d="M204.535 493.536L204.655 499.779L210.779 493.656L204.535 493.536Z" fill="#298DFF"/>
<g filter="url(#filter14_d)">
<ellipse cx="526.091" cy="395" rx="50.0905" ry="50" fill="white"/>
</g>
<path d="M536.974 393.77C536.936 393.61 536.86 393.462 536.751 393.339C536.642 393.215 536.505 393.12 536.351 393.063L529.147 390.361L530.981 381.195C531.023 380.982 530.995 380.76 530.901 380.564C530.806 380.368 530.65 380.209 530.457 380.109C530.263 380.01 530.042 379.977 529.828 380.014C529.614 380.051 529.417 380.158 529.269 380.317L515.269 395.317C515.157 395.437 515.076 395.583 515.034 395.742C514.991 395.901 514.989 396.067 515.026 396.228C515.064 396.388 515.14 396.536 515.249 396.659C515.358 396.783 515.495 396.878 515.649 396.935L522.853 399.637L521.019 408.803C520.977 409.016 521.005 409.238 521.099 409.434C521.194 409.63 521.35 409.789 521.543 409.889C521.737 409.988 521.958 410.022 522.172 409.984C522.386 409.947 522.583 409.84 522.731 409.681L536.731 394.681C536.843 394.561 536.924 394.415 536.966 394.256C537.009 394.097 537.011 393.931 536.974 393.77Z" fill="url(#paint12_linear)"/>
<path d="M604.31 411.288C606.182 411.288 607.694 410.808 608.87 409.824C610.046 408.84 610.646 407.592 610.646 406.056C610.646 403.92 609.35 402.168 607.166 401.688V401.592C608.918 400.992 610.19 399.48 610.19 397.584C610.19 396.264 609.662 395.184 608.582 394.296C607.526 393.408 606.206 392.952 604.598 392.952C602.486 392.952 600.398 393.768 599.03 395.088L600.614 397.44C601.934 396.504 603.134 396.024 604.238 396.024C605.75 396.024 606.854 396.864 606.854 398.232C606.854 399.576 605.75 400.512 604.022 400.512H602.03V403.44H604.286C606.038 403.44 607.238 404.424 607.238 405.864C607.238 407.28 606.086 408.264 604.166 408.264C602.87 408.264 601.478 407.808 600.014 406.896L598.622 409.536C600.446 410.712 602.342 411.288 604.31 411.288Z" fill="#273D51"/>
<g filter="url(#filter15_d)">
<ellipse cx="210.494" cy="166" rx="50.4944" ry="50" fill="white"/>
</g>
<path d="M221.894 158.553L219.894 154.553C219.811 154.387 219.684 154.247 219.526 154.149C219.368 154.052 219.186 154 219 154H201C200.814 154 200.632 154.052 200.474 154.149C200.316 154.247 200.189 154.387 200.106 154.553L198.106 158.553C198.036 158.692 198 158.845 198 159V176C198.001 176.53 198.212 177.039 198.586 177.414C198.961 177.788 199.47 177.999 200 178H220C220.53 177.999 221.039 177.788 221.414 177.414C221.788 177.039 221.999 176.53 222 176V159C222 158.845 221.964 158.692 221.894 158.553ZM214.95 169.464L210.707 173.707C210.7 173.714 210.693 173.72 210.686 173.726C210.669 173.742 210.653 173.758 210.635 173.772C210.627 173.779 210.618 173.785 210.609 173.792C210.592 173.805 210.574 173.819 210.556 173.831C210.549 173.836 210.542 173.84 210.535 173.844C210.514 173.857 210.494 173.87 210.472 173.881C210.467 173.884 210.461 173.887 210.456 173.889C210.432 173.901 210.408 173.913 210.383 173.924C210.38 173.925 210.376 173.926 210.373 173.928C210.346 173.938 210.319 173.948 210.291 173.957C210.288 173.958 210.284 173.958 210.28 173.959C210.253 173.967 210.225 173.975 210.197 173.98C210.189 173.982 210.18 173.983 210.172 173.984C210.148 173.988 210.124 173.993 210.1 173.995C210.033 174.002 209.967 174.002 209.9 173.995C209.876 173.993 209.852 173.988 209.828 173.984C209.82 173.983 209.811 173.982 209.803 173.98C209.775 173.975 209.747 173.967 209.72 173.959C209.716 173.958 209.712 173.958 209.709 173.957C209.681 173.948 209.654 173.938 209.627 173.927C209.624 173.926 209.62 173.925 209.617 173.924C209.592 173.913 209.568 173.901 209.544 173.889C209.539 173.887 209.533 173.884 209.528 173.881C209.506 173.87 209.486 173.857 209.465 173.844C209.458 173.84 209.451 173.836 209.444 173.831C209.426 173.819 209.408 173.805 209.391 173.792C209.382 173.785 209.373 173.779 209.365 173.772C209.348 173.758 209.332 173.743 209.315 173.728C209.308 173.721 209.3 173.714 209.293 173.707L205.05 169.464C204.863 169.277 204.757 169.023 204.757 168.757C204.757 168.492 204.863 168.238 205.05 168.05C205.238 167.863 205.492 167.757 205.757 167.757C206.023 167.757 206.277 167.863 206.464 168.05L209 170.586V163C209 162.735 209.105 162.48 209.293 162.293C209.48 162.105 209.735 162 210 162C210.265 162 210.52 162.105 210.707 162.293C210.895 162.48 211 162.735 211 163V170.586L213.536 168.05C213.628 167.957 213.739 167.884 213.86 167.833C213.981 167.783 214.111 167.757 214.243 167.757C214.374 167.757 214.504 167.783 214.625 167.833C214.747 167.884 214.857 167.957 214.95 168.05C215.043 168.143 215.116 168.253 215.167 168.375C215.217 168.496 215.243 168.626 215.243 168.757C215.243 168.889 215.217 169.019 215.167 169.14C215.116 169.261 215.043 169.372 214.95 169.464L214.95 169.464ZM200.618 158L201.618 156H218.382L219.382 158H200.618Z" fill="url(#paint13_linear)"/>
<g filter="url(#filter16_d)">
<ellipse cx="135.687" cy="395" rx="49.6865" ry="50" fill="white"/>
</g>
<path fill-rule="evenodd" clip-rule="evenodd" d="M135.496 396.864L123.496 389.864C123.345 389.776 123.22 389.65 123.133 389.498C123.046 389.346 123 389.175 123 389C123 388.825 123.046 388.654 123.133 388.502C123.22 388.35 123.345 388.224 123.496 388.136L135.496 381.136C135.649 381.047 135.823 381 136 381C136.177 381 136.351 381.047 136.504 381.136L148.504 388.136C148.655 388.224 148.78 388.35 148.867 388.502C148.954 388.654 149 388.825 149 389C149 389.175 148.954 389.346 148.867 389.498C148.78 389.65 148.655 389.776 148.504 389.864L136.504 396.864C136.351 396.953 136.177 397 136 397C135.823 397 135.649 396.953 135.496 396.864ZM147.496 394.136L136 400.842L124.504 394.136C124.275 394.003 124.002 393.965 123.746 394.033C123.489 394.1 123.27 394.267 123.136 394.496C123.003 394.725 122.965 394.998 123.033 395.254C123.1 395.511 123.267 395.73 123.496 395.864L135.496 402.864C135.649 402.953 135.823 403 136 403C136.177 403 136.351 402.953 136.504 402.864L148.504 395.864C148.733 395.73 148.9 395.511 148.967 395.254C149.035 394.998 148.997 394.725 148.864 394.496C148.73 394.267 148.511 394.1 148.254 394.033C147.998 393.965 147.725 394.003 147.496 394.136ZM147.496 400.136L136 406.842L124.504 400.136C124.275 400.003 124.002 399.965 123.746 400.033C123.489 400.1 123.27 400.267 123.136 400.496C123.003 400.725 122.965 400.998 123.033 401.254C123.1 401.511 123.267 401.73 123.496 401.864L135.496 408.864C135.649 408.953 135.823 409 136 409C136.177 409 136.351 408.953 136.504 408.864L148.504 401.864C148.617 401.798 148.717 401.71 148.796 401.605C148.876 401.501 148.934 401.381 148.967 401.254C149.001 401.127 149.009 400.995 148.991 400.865C148.973 400.735 148.93 400.61 148.864 400.496C148.798 400.383 148.71 400.283 148.605 400.204C148.501 400.124 148.381 400.066 148.254 400.033C148.127 400 147.995 399.991 147.865 400.009C147.735 400.027 147.61 400.07 147.496 400.136Z" fill="url(#paint14_linear)"/>
<path d="M58.1325 399.528C57.2445 399.528 56.4045 399.696 55.6365 400.032L56.0925 396.264H62.9085V393.264H53.6445L52.6605 402.144L54.6045 403.632C55.4445 402.792 56.4525 402.384 57.6285 402.384C59.4765 402.384 60.8205 403.632 60.8205 405.288C60.8205 406.992 59.4765 408.264 57.4365 408.264C55.9725 408.264 54.5085 407.736 53.0205 406.68L51.7005 409.296C53.5005 410.616 55.4445 411.288 57.5805 411.288C59.5245 411.288 61.1085 410.712 62.3085 409.584C63.5085 408.456 64.1085 407.016 64.1085 405.288C64.1085 403.584 63.5325 402.216 62.3805 401.136C61.2525 400.056 59.8365 399.528 58.1325 399.528Z" fill="#273D51"/>
<path d="M335.948 618.04V607.264H333.668L324.308 618.712L324.956 620.8H332.876V625H335.948V620.8H337.868V618.04H335.948ZM332.876 612.184V618.04H328.124L332.876 612.184Z" fill="#273D51"/>
<path d="M514.458 121.16C516.522 118.952 517.554 117.008 517.554 115.352C517.554 113.768 517.026 112.472 515.946 111.464C514.866 110.456 513.498 109.952 511.842 109.952C509.61 109.952 507.57 110.84 505.77 112.64L507.546 114.992C508.962 113.672 510.306 113.024 511.602 113.024C513.114 113.024 514.242 114.032 514.242 115.472C514.242 116.36 513.546 117.536 513.042 118.136C512.778 118.424 512.394 118.856 511.842 119.408L506.298 125.288V128H517.746V125H510.858L514.458 121.16Z" fill="#273D51"/>
<path d="M146.554 114.608L148.258 116.912L151.162 114.632V128H154.378V110.264H151.93L146.554 114.608Z" fill="#273D51"/>
<rect opacity="0.2" x="266" y="267" width="130" height="130" rx="65" fill="#BAC8D7"/>
<g filter="url(#filter17_d)">
<rect x="281" y="282" width="100" height="100" rx="50" fill="white"/>
</g>
<path opacity="0.6" fill-rule="evenodd" clip-rule="evenodd" d="M317.146 326.007C316.535 326.35 316 326.083 316 325.36V322.392L327.116 316V318.968C327.116 319.691 326.619 320.566 325.97 320.908L317.146 326.007Z" fill="#298DFF"/>
<path opacity="0.6" fill-rule="evenodd" clip-rule="evenodd" d="M333.418 346.516C334.029 346.174 334.029 345.565 333.418 345.223L324.555 340.124C323.944 339.782 322.913 339.782 322.302 340.124L319.742 341.608L330.858 348L333.418 346.516Z" fill="#344AE6"/>
<path opacity="0.6" fill-rule="evenodd" clip-rule="evenodd" d="M343.083 320.909C342.472 320.566 341.938 320.833 341.938 321.556V331.753C341.938 332.476 342.434 333.351 343.083 333.694L345.643 335.178V322.393L343.083 320.909Z" fill="#4264F2"/>
<path fill-rule="evenodd" clip-rule="evenodd" d="M316 322.392L327.116 316L337.124 321.746C337.735 322.088 337.735 322.697 337.124 323.039L328.262 328.138C327.651 328.48 326.619 328.48 326.008 328.138L316 322.392Z" fill="#298DFF"/>
<path fill-rule="evenodd" clip-rule="evenodd" d="M319.705 330.078C319.705 329.355 320.202 329.089 320.851 329.431L329.713 334.53C330.324 334.872 330.859 335.748 330.859 336.471V347.962L319.705 341.569V330.078Z" fill="#344AE6"/>
<path fill-rule="evenodd" clip-rule="evenodd" d="M335.671 340.923C335.06 341.265 334.525 340.999 334.525 340.276V330.079C334.525 329.356 335.022 328.481 335.671 328.138L345.68 322.393V335.177L335.671 340.923Z" fill="#4264F2"/>
<defs>
<filter id="filter0_d" x="247" y="262" width="180" height="180" filterUnits="userSpaceOnUse" color-interpolation-filters="sRGB">
<feFlood flood-opacity="0" result="BackgroundImageFix"/>
<feColorMatrix in="SourceAlpha" type="matrix" values="0 0 0 0 0 0 0 0 0 0 0 0 0 0 0 0 0 0 127 0"/>
<feOffset dx="6" dy="20"/>
<feGaussianBlur stdDeviation="20"/>
<feColorMatrix type="matrix" values="0 0 0 0 0.0941667 0 0 0 0 0.270179 0 0 0 0 0.470833 0 0 0 0.05 0"/>
<feBlend mode="normal" in2="BackgroundImageFix" result="effect1_dropShadow"/>
<feBlend mode="normal" in="SourceGraphic" in2="effect1_dropShadow" result="shape"/>
</filter>
<filter id="filter1_d" x="264" y="448" width="160.995" height="160" filterUnits="userSpaceOnUse" color-interpolation-filters="sRGB">
<feFlood flood-opacity="0" result="BackgroundImageFix"/>
<feColorMatrix in="SourceAlpha" type="matrix" values="0 0 0 0 0 0 0 0 0 0 0 0 0 0 0 0 0 0 127 0"/>
<feOffset dx="6" dy="12"/>
<feGaussianBlur stdDeviation="15"/>
<feColorMatrix type="matrix" values="0 0 0 0 0.112153 0 0 0 0 0.167355 0 0 0 0 0.395833 0 0 0 0.06 0"/>
<feBlend mode="normal" in2="BackgroundImageFix" result="effect1_dropShadow"/>
<feBlend mode="normal" in="SourceGraphic" in2="effect1_dropShadow" result="shape"/>
</filter>
<filter id="filter2_d" x="397" y="79" width="159.373" height="160" filterUnits="userSpaceOnUse" color-interpolation-filters="sRGB">
<feFlood flood-opacity="0" result="BackgroundImageFix"/>
<feColorMatrix in="SourceAlpha" type="matrix" values="0 0 0 0 0 0 0 0 0 0 0 0 0 0 0 0 0 0 127 0"/>
<feOffset dx="6" dy="12"/>
<feGaussianBlur stdDeviation="15"/>
<feColorMatrix type="matrix" values="0 0 0 0 0.112153 0 0 0 0 0.167355 0 0 0 0 0.395833 0 0 0 0.06 0"/>
<feBlend mode="normal" in2="BackgroundImageFix" result="effect1_dropShadow"/>
<feBlend mode="normal" in="SourceGraphic" in2="effect1_dropShadow" result="shape"/>
</filter>
<filter id="filter3_d" x="450" y="302" width="160.181" height="160" filterUnits="userSpaceOnUse" color-interpolation-filters="sRGB">
<feFlood flood-opacity="0" result="BackgroundImageFix"/>
<feColorMatrix in="SourceAlpha" type="matrix" values="0 0 0 0 0 0 0 0 0 0 0 0 0 0 0 0 0 0 127 0"/>
<feOffset dx="6" dy="12"/>
<feGaussianBlur stdDeviation="15"/>
<feColorMatrix type="matrix" values="0 0 0 0 0.112153 0 0 0 0 0.167355 0 0 0 0 0.395833 0 0 0 0.06 0"/>
<feBlend mode="normal" in2="BackgroundImageFix" result="effect1_dropShadow"/>
<feBlend mode="normal" in="SourceGraphic" in2="effect1_dropShadow" result="shape"/>
</filter>
<filter id="filter4_d" x="129" y="79" width="160.989" height="160" filterUnits="userSpaceOnUse" color-interpolation-filters="sRGB">
<feFlood flood-opacity="0" result="BackgroundImageFix"/>
<feColorMatrix in="SourceAlpha" type="matrix" values="0 0 0 0 0 0 0 0 0 0 0 0 0 0 0 0 0 0 127 0"/>
<feOffset dx="6" dy="12"/>
<feGaussianBlur stdDeviation="15"/>
<feColorMatrix type="matrix" values="0 0 0 0 0.112153 0 0 0 0 0.167355 0 0 0 0 0.395833 0 0 0 0.06 0"/>
<feBlend mode="normal" in2="BackgroundImageFix" result="effect1_dropShadow"/>
<feBlend mode="normal" in="SourceGraphic" in2="effect1_dropShadow" result="shape"/>
</filter>
<filter id="filter5_d" x="74" y="308" width="159.373" height="160" filterUnits="userSpaceOnUse" color-interpolation-filters="sRGB">
<feFlood flood-opacity="0" result="BackgroundImageFix"/>
<feColorMatrix in="SourceAlpha" type="matrix" values="0 0 0 0 0 0 0 0 0 0 0 0 0 0 0 0 0 0 127 0"/>
<feOffset dx="6" dy="12"/>
<feGaussianBlur stdDeviation="15"/>
<feColorMatrix type="matrix" values="0 0 0 0 0.112153 0 0 0 0 0.167355 0 0 0 0 0.395833 0 0 0 0.06 0"/>
<feBlend mode="normal" in2="BackgroundImageFix" result="effect1_dropShadow"/>
<feBlend mode="normal" in="SourceGraphic" in2="effect1_dropShadow" result="shape"/>
</filter>
<filter id="filter6_d" x="256" y="469" width="160" height="160" filterUnits="userSpaceOnUse" color-interpolation-filters="sRGB">
<feFlood flood-opacity="0" result="BackgroundImageFix"/>
<feColorMatrix in="SourceAlpha" type="matrix" values="0 0 0 0 0 0 0 0 0 0 0 0 0 0 0 0 0 0 127 0"/>
<feOffset dx="6" dy="12"/>
<feGaussianBlur stdDeviation="15"/>
<feColorMatrix type="matrix" values="0 0 0 0 0.112153 0 0 0 0 0.167355 0 0 0 0 0.395833 0 0 0 0.06 0"/>
<feBlend mode="normal" in2="BackgroundImageFix" result="effect1_dropShadow"/>
<feBlend mode="normal" in="SourceGraphic" in2="effect1_dropShadow" result="shape"/>
</filter>
<filter id="filter7_d" x="378" y="99" width="159.373" height="160" filterUnits="userSpaceOnUse" color-interpolation-filters="sRGB">
<feFlood flood-opacity="0" result="BackgroundImageFix"/>
<feColorMatrix in="SourceAlpha" type="matrix" values="0 0 0 0 0 0 0 0 0 0 0 0 0 0 0 0 0 0 127 0"/>
<feOffset dx="6" dy="12"/>
<feGaussianBlur stdDeviation="15"/>
<feColorMatrix type="matrix" values="0 0 0 0 0.112153 0 0 0 0 0.167355 0 0 0 0 0.395833 0 0 0 0.06 0"/>
<feBlend mode="normal" in2="BackgroundImageFix" result="effect1_dropShadow"/>
<feBlend mode="normal" in="SourceGraphic" in2="effect1_dropShadow" result="shape"/>
</filter>
<filter id="filter8_d" x="452" y="327" width="160.181" height="160" filterUnits="userSpaceOnUse" color-interpolation-filters="sRGB">
<feFlood flood-opacity="0" result="BackgroundImageFix"/>
<feColorMatrix in="SourceAlpha" type="matrix" values="0 0 0 0 0 0 0 0 0 0 0 0 0 0 0 0 0 0 127 0"/>
<feOffset dx="6" dy="12"/>
<feGaussianBlur stdDeviation="15"/>
<feColorMatrix type="matrix" values="0 0 0 0 0.112153 0 0 0 0 0.167355 0 0 0 0 0.395833 0 0 0 0.06 0"/>
<feBlend mode="normal" in2="BackgroundImageFix" result="effect1_dropShadow"/>
<feBlend mode="normal" in="SourceGraphic" in2="effect1_dropShadow" result="shape"/>
</filter>
<filter id="filter9_d" x="136" y="98" width="160.989" height="160" filterUnits="userSpaceOnUse" color-interpolation-filters="sRGB">
<feFlood flood-opacity="0" result="BackgroundImageFix"/>
<feColorMatrix in="SourceAlpha" type="matrix" values="0 0 0 0 0 0 0 0 0 0 0 0 0 0 0 0 0 0 127 0"/>
<feOffset dx="6" dy="12"/>
<feGaussianBlur stdDeviation="15"/>
<feColorMatrix type="matrix" values="0 0 0 0 0.112153 0 0 0 0 0.167355 0 0 0 0 0.395833 0 0 0 0.06 0"/>
<feBlend mode="normal" in2="BackgroundImageFix" result="effect1_dropShadow"/>
<feBlend mode="normal" in="SourceGraphic" in2="effect1_dropShadow" result="shape"/>
</filter>
<filter id="filter10_d" x="62" y="327" width="159.373" height="160" filterUnits="userSpaceOnUse" color-interpolation-filters="sRGB">
<feFlood flood-opacity="0" result="BackgroundImageFix"/>
<feColorMatrix in="SourceAlpha" type="matrix" values="0 0 0 0 0 0 0 0 0 0 0 0 0 0 0 0 0 0 127 0"/>
<feOffset dx="6" dy="12"/>
<feGaussianBlur stdDeviation="15"/>
<feColorMatrix type="matrix" values="0 0 0 0 0.112153 0 0 0 0 0.167355 0 0 0 0 0.395833 0 0 0 0.06 0"/>
<feBlend mode="normal" in2="BackgroundImageFix" result="effect1_dropShadow"/>
<feBlend mode="normal" in="SourceGraphic" in2="effect1_dropShadow" result="shape"/>
</filter>
<filter id="filter11_d" x="247" y="262" width="180" height="180" filterUnits="userSpaceOnUse" color-interpolation-filters="sRGB">
<feFlood flood-opacity="0" result="BackgroundImageFix"/>
<feColorMatrix in="SourceAlpha" type="matrix" values="0 0 0 0 0 0 0 0 0 0 0 0 0 0 0 0 0 0 127 0"/>
<feOffset dx="6" dy="20"/>
<feGaussianBlur stdDeviation="20"/>
<feColorMatrix type="matrix" values="0 0 0 0 0.0941667 0 0 0 0 0.270179 0 0 0 0 0.470833 0 0 0 0.05 0"/>
<feBlend mode="normal" in2="BackgroundImageFix" result="effect1_dropShadow"/>
<feBlend mode="normal" in="SourceGraphic" in2="effect1_dropShadow" result="shape"/>
</filter>
<filter id="filter12_d" x="256" y="469" width="160" height="160" filterUnits="userSpaceOnUse" color-interpolation-filters="sRGB">
<feFlood flood-opacity="0" result="BackgroundImageFix"/>
<feColorMatrix in="SourceAlpha" type="matrix" values="0 0 0 0 0 0 0 0 0 0 0 0 0 0 0 0 0 0 127 0"/>
<feOffset dx="6" dy="12"/>
<feGaussianBlur stdDeviation="15"/>
<feColorMatrix type="matrix" values="0 0 0 0 0.112153 0 0 0 0 0.167355 0 0 0 0 0.395833 0 0 0 0.06 0"/>
<feBlend mode="normal" in2="BackgroundImageFix" result="effect1_dropShadow"/>
<feBlend mode="normal" in="SourceGraphic" in2="effect1_dropShadow" result="shape"/>
</filter>
<filter id="filter13_d" x="378" y="99" width="159.373" height="160" filterUnits="userSpaceOnUse" color-interpolation-filters="sRGB">
<feFlood flood-opacity="0" result="BackgroundImageFix"/>
<feColorMatrix in="SourceAlpha" type="matrix" values="0 0 0 0 0 0 0 0 0 0 0 0 0 0 0 0 0 0 127 0"/>
<feOffset dx="6" dy="12"/>
<feGaussianBlur stdDeviation="15"/>
<feColorMatrix type="matrix" values="0 0 0 0 0.112153 0 0 0 0 0.167355 0 0 0 0 0.395833 0 0 0 0.06 0"/>
<feBlend mode="normal" in2="BackgroundImageFix" result="effect1_dropShadow"/>
<feBlend mode="normal" in="SourceGraphic" in2="effect1_dropShadow" result="shape"/>
</filter>
<filter id="filter14_d" x="452" y="327" width="160.181" height="160" filterUnits="userSpaceOnUse" color-interpolation-filters="sRGB">
<feFlood flood-opacity="0" result="BackgroundImageFix"/>
<feColorMatrix in="SourceAlpha" type="matrix" values="0 0 0 0 0 0 0 0 0 0 0 0 0 0 0 0 0 0 127 0"/>
<feOffset dx="6" dy="12"/>
<feGaussianBlur stdDeviation="15"/>
<feColorMatrix type="matrix" values="0 0 0 0 0.112153 0 0 0 0 0.167355 0 0 0 0 0.395833 0 0 0 0.06 0"/>
<feBlend mode="normal" in2="BackgroundImageFix" result="effect1_dropShadow"/>
<feBlend mode="normal" in="SourceGraphic" in2="effect1_dropShadow" result="shape"/>
</filter>
<filter id="filter15_d" x="136" y="98" width="160.989" height="160" filterUnits="userSpaceOnUse" color-interpolation-filters="sRGB">
<feFlood flood-opacity="0" result="BackgroundImageFix"/>
<feColorMatrix in="SourceAlpha" type="matrix" values="0 0 0 0 0 0 0 0 0 0 0 0 0 0 0 0 0 0 127 0"/>
<feOffset dx="6" dy="12"/>
<feGaussianBlur stdDeviation="15"/>
<feColorMatrix type="matrix" values="0 0 0 0 0.112153 0 0 0 0 0.167355 0 0 0 0 0.395833 0 0 0 0.06 0"/>
<feBlend mode="normal" in2="BackgroundImageFix" result="effect1_dropShadow"/>
<feBlend mode="normal" in="SourceGraphic" in2="effect1_dropShadow" result="shape"/>
</filter>
<filter id="filter16_d" x="62" y="327" width="159.373" height="160" filterUnits="userSpaceOnUse" color-interpolation-filters="sRGB">
<feFlood flood-opacity="0" result="BackgroundImageFix"/>
<feColorMatrix in="SourceAlpha" type="matrix" values="0 0 0 0 0 0 0 0 0 0 0 0 0 0 0 0 0 0 127 0"/>
<feOffset dx="6" dy="12"/>
<feGaussianBlur stdDeviation="15"/>
<feColorMatrix type="matrix" values="0 0 0 0 0.112153 0 0 0 0 0.167355 0 0 0 0 0.395833 0 0 0 0.06 0"/>
<feBlend mode="normal" in2="BackgroundImageFix" result="effect1_dropShadow"/>
<feBlend mode="normal" in="SourceGraphic" in2="effect1_dropShadow" result="shape"/>
</filter>
<filter id="filter17_d" x="247" y="262" width="180" height="180" filterUnits="userSpaceOnUse" color-interpolation-filters="sRGB">
<feFlood flood-opacity="0" result="BackgroundImageFix"/>
<feColorMatrix in="SourceAlpha" type="matrix" values="0 0 0 0 0 0 0 0 0 0 0 0 0 0 0 0 0 0 127 0"/>
<feOffset dx="6" dy="20"/>
<feGaussianBlur stdDeviation="20"/>
<feColorMatrix type="matrix" values="0 0 0 0 0.0941667 0 0 0 0 0.270179 0 0 0 0 0.470833 0 0 0 0.05 0"/>
<feBlend mode="normal" in2="BackgroundImageFix" result="effect1_dropShadow"/>
<feBlend mode="normal" in="SourceGraphic" in2="effect1_dropShadow" result="shape"/>
</filter>
<linearGradient id="paint0_linear" x1="338.992" y1="506" x2="338.992" y2="530" gradientUnits="userSpaceOnUse">
<stop stop-color="#298DFF"/>
<stop offset="1" stop-color="#344AE6"/>
</linearGradient>
<linearGradient id="paint1_linear" x1="470.996" y1="132" x2="470.996" y2="159" gradientUnits="userSpaceOnUse">
<stop stop-color="#298DFF"/>
<stop offset="1" stop-color="#344AE6"/>
</linearGradient>
<linearGradient id="paint2_linear" x1="524" y1="354.999" x2="524" y2="384.999" gradientUnits="userSpaceOnUse">
<stop stop-color="#298DFF"/>
<stop offset="1" stop-color="#344AE6"/>
</linearGradient>
<linearGradient id="paint3_linear" x1="203" y1="135" x2="203" y2="159" gradientUnits="userSpaceOnUse">
<stop stop-color="#298DFF"/>
<stop offset="1" stop-color="#344AE6"/>
</linearGradient>
<linearGradient id="paint4_linear" x1="148" y1="362" x2="148" y2="390" gradientUnits="userSpaceOnUse">
<stop stop-color="#298DFF"/>
<stop offset="1" stop-color="#344AE6"/>
</linearGradient>
<linearGradient id="paint5_linear" x1="329.992" y1="526" x2="329.992" y2="550" gradientUnits="userSpaceOnUse">
<stop stop-color="#298DFF"/>
<stop offset="1" stop-color="#344AE6"/>
</linearGradient>
<linearGradient id="paint6_linear" x1="451.996" y1="152" x2="451.996" y2="179" gradientUnits="userSpaceOnUse">
<stop stop-color="#298DFF"/>
<stop offset="1" stop-color="#344AE6"/>
</linearGradient>
<linearGradient id="paint7_linear" x1="526" y1="379.999" x2="526" y2="409.999" gradientUnits="userSpaceOnUse">
<stop stop-color="#298DFF"/>
<stop offset="1" stop-color="#344AE6"/>
</linearGradient>
<linearGradient id="paint8_linear" x1="210" y1="154" x2="210" y2="178" gradientUnits="userSpaceOnUse">
<stop stop-color="#298DFF"/>
<stop offset="1" stop-color="#344AE6"/>
</linearGradient>
<linearGradient id="paint9_linear" x1="136" y1="381" x2="136" y2="409" gradientUnits="userSpaceOnUse">
<stop stop-color="#298DFF"/>
<stop offset="1" stop-color="#344AE6"/>
</linearGradient>
<linearGradient id="paint10_linear" x1="329.992" y1="526" x2="329.992" y2="550" gradientUnits="userSpaceOnUse">
<stop stop-color="#298DFF"/>
<stop offset="1" stop-color="#344AE6"/>
</linearGradient>
<linearGradient id="paint11_linear" x1="451.996" y1="152" x2="451.996" y2="179" gradientUnits="userSpaceOnUse">
<stop stop-color="#298DFF"/>
<stop offset="1" stop-color="#344AE6"/>
</linearGradient>
<linearGradient id="paint12_linear" x1="526" y1="379.999" x2="526" y2="409.999" gradientUnits="userSpaceOnUse">
<stop stop-color="#298DFF"/>
<stop offset="1" stop-color="#344AE6"/>
</linearGradient>
<linearGradient id="paint13_linear" x1="210" y1="154" x2="210" y2="178" gradientUnits="userSpaceOnUse">
<stop stop-color="#298DFF"/>
<stop offset="1" stop-color="#344AE6"/>
</linearGradient>
<linearGradient id="paint14_linear" x1="136" y1="381" x2="136" y2="409" gradientUnits="userSpaceOnUse">
<stop stop-color="#298DFF"/>
<stop offset="1" stop-color="#344AE6"/>
</linearGradient>
</defs>
</svg>
