<svg width="763" height="637" viewBox="0 0 763 637" fill="none" xmlns="http://www.w3.org/2000/svg">
<path d="M0 12C0 5.37259 5.37258 0 12 0H751C757.627 0 763 5.37258 763 12V622C763 628.627 757.627 634 751 634H12C5.37259 634 0 628.627 0 622V12Z" fill="#F5F8FD"/>
<g filter="url(#filter0_d)">
<rect x="521" y="557" width="38" height="20" rx="4" fill="#344AE6" fill-opacity="0.2"/>
<path d="M536.484 571L533.004 566.164L536.256 562.132H534.108L530.748 566.32V562.132H528.972V571H530.748V568.792L531.84 567.484L534.3 571H536.484ZM543.34 571V569.344H539.116V567.352H543.028V565.696H539.116V563.788H543.34V562.132H537.328V571H543.34ZM546.12 571L547.992 567.892L549.84 571H551.892L549.108 566.512L551.904 562.132H549.816L548.004 565.168L546.276 562.132H544.224L546.876 566.512L544.032 571H546.12Z" fill="#4264F2"/>
</g>
<g filter="url(#filter1_d)">
<rect x="569" y="557" width="38" height="20" rx="4" fill="#344AE6" fill-opacity="0.2"/>
<path d="M582.074 566.14C582.794 565.888 583.286 565.12 583.286 564.34C583.286 563.752 583.058 563.236 582.614 562.792C582.17 562.348 581.558 562.132 580.766 562.132H576.902V571H580.946C581.798 571 582.482 570.748 582.986 570.256C583.502 569.764 583.754 569.152 583.754 568.42C583.754 567.328 583.166 566.416 582.074 566.14ZM580.466 563.68C581.126 563.68 581.522 564.1 581.522 564.616C581.522 565.144 581.126 565.612 580.394 565.612H578.654V563.68H580.466ZM578.654 569.44V567.1H580.598C581.462 567.1 581.918 567.64 581.918 568.276C581.918 568.9 581.45 569.44 580.598 569.44H578.654ZM586.739 571H588.539V563.848H591.071V562.132H584.207V563.848H586.739V571ZM595.946 571.132C597.59 571.132 599.042 570.364 599.858 569.248L598.634 568.132C597.95 568.996 597.086 569.428 596.054 569.428C595.25 569.428 594.578 569.164 594.038 568.624C593.498 568.084 593.234 567.412 593.234 566.596C593.234 565.756 593.51 565.06 594.05 564.52C594.59 563.968 595.262 563.692 596.066 563.692C597.062 563.692 597.902 564.124 598.598 564.976L599.786 563.812C599.006 562.708 597.566 561.976 595.97 561.976C594.698 561.976 593.618 562.408 592.718 563.284C591.83 564.148 591.386 565.252 591.386 566.596C591.386 567.928 591.818 569.02 592.694 569.872C593.57 570.712 594.662 571.132 595.946 571.132Z" fill="#4264F2"/>
</g>
<g filter="url(#filter2_d)">
<rect x="617" y="557" width="38" height="20" rx="4" fill="#344AE6" fill-opacity="0.2"/>
<path d="M630.961 571V569.344H626.737V567.352H630.649V565.696H626.737V563.788H630.961V562.132H624.949V571H630.961ZM634.305 571H636.105V563.848H638.637V562.132H631.773V563.848H634.305V571ZM641.561 571V567.388H645.281V571H647.057V562.132H645.281V565.672H641.561V562.132H639.785V571H641.561Z" fill="#4264F2"/>
</g>
<g filter="url(#filter3_d)">
<rect x="665" y="557" width="38" height="20" rx="4" fill="#344AE6" fill-opacity="0.2"/>
<path d="M678.815 567.616L674.135 562.132H673.007V571H674.759V565.564L679.355 571H680.567V562.132H678.815V567.616ZM684.311 571V567.472H687.947V565.804H684.311V563.812H688.451V562.132H682.535V571H684.311ZM691.481 571H693.281V563.848H695.813V562.132H688.949V563.848H691.481V571Z" fill="#4264F2"/>
</g>
<g filter="url(#filter4_d)">
<rect x="150" y="407" width="100" height="100" rx="50" fill="white"/>
</g>
<path d="M210 445H190C189.47 445.001 188.961 445.212 188.587 445.587C188.212 445.961 188.001 446.47 188 447V454.333C188 465.516 197.478 469.224 199.379 469.854C199.782 469.99 200.218 469.99 200.621 469.854C202.521 469.224 212 465.517 212 454.333V447C211.999 446.47 211.788 445.961 211.413 445.587C211.039 445.212 210.53 445.001 210 445ZM206.19 453.724L198.856 460.724C198.67 460.901 198.423 461 198.166 461C197.909 461 197.662 460.901 197.476 460.724L193.81 457.224C193.714 457.133 193.638 457.024 193.585 456.904C193.532 456.784 193.503 456.655 193.499 456.523C193.496 456.392 193.519 456.261 193.567 456.139C193.614 456.016 193.685 455.904 193.776 455.809C193.866 455.714 193.975 455.638 194.095 455.584C194.215 455.531 194.345 455.503 194.476 455.499C194.608 455.496 194.738 455.519 194.861 455.567C194.983 455.614 195.095 455.686 195.19 455.776L198.166 458.617L204.81 452.276C204.905 452.186 205.017 452.114 205.139 452.067C205.262 452.019 205.392 451.996 205.524 451.999C205.655 452.003 205.785 452.031 205.905 452.084C206.025 452.138 206.134 452.214 206.224 452.309C206.315 452.404 206.386 452.516 206.433 452.639C206.481 452.761 206.504 452.892 206.501 453.023C206.497 453.155 206.468 453.284 206.415 453.404C206.362 453.524 206.286 453.633 206.19 453.724H206.19Z" fill="url(#paint0_linear)"/>
<path d="M156.386 534H158.174V525.132H156.386V534ZM164.204 531.264L161.864 525.132H159.812L163.496 534H164.912L168.548 525.132H166.532L164.204 531.264ZM173.912 534.144C175.22 534.144 176.312 533.7 177.2 532.812C178.1 531.924 178.544 530.844 178.544 529.572C178.544 528.3 178.1 527.22 177.2 526.32C176.312 525.42 175.22 524.976 173.924 524.976C172.628 524.976 171.536 525.42 170.636 526.32C169.748 527.22 169.304 528.312 169.304 529.596C169.304 530.88 169.748 531.96 170.624 532.836C171.5 533.712 172.604 534.144 173.912 534.144ZM176.696 529.572C176.708 530.376 176.444 531.048 175.904 531.588C175.364 532.128 174.704 532.392 173.924 532.392C173.144 532.392 172.484 532.128 171.944 531.588C171.416 531.048 171.152 530.376 171.152 529.572C171.152 528.768 171.416 528.084 171.956 527.544C172.496 527.004 173.144 526.728 173.924 526.728C174.704 526.728 175.352 527.004 175.892 527.544C176.432 528.084 176.696 528.756 176.696 529.572ZM187.261 531.264L184.921 525.132H182.869L186.553 534H187.969L191.605 525.132H189.589L187.261 531.264ZM197.044 528.24C196.468 527.604 195.772 527.292 194.956 527.292C194.032 527.292 193.252 527.616 192.64 528.264C192.028 528.9 191.716 529.716 191.716 530.7C191.716 531.684 192.016 532.512 192.628 533.172C193.24 533.832 194.02 534.156 194.956 534.156C195.784 534.156 196.48 533.856 197.044 533.244V534H198.652V527.46H197.044V528.24ZM197.068 530.724C197.068 531.252 196.888 531.696 196.54 532.068C196.192 532.44 195.76 532.62 195.232 532.62C194.704 532.62 194.272 532.44 193.924 532.068C193.576 531.696 193.408 531.252 193.408 530.724C193.408 530.208 193.576 529.764 193.912 529.392C194.26 529.02 194.692 528.84 195.232 528.84C195.76 528.84 196.192 529.02 196.54 529.392C196.888 529.764 197.068 530.208 197.068 530.724ZM202.466 524.88H200.774V534H202.466V524.88ZM206.205 526.428C206.601 526.032 206.601 525.336 206.205 524.952C205.809 524.556 205.113 524.556 204.717 524.952C204.321 525.336 204.321 526.032 204.717 526.428C205.113 526.824 205.809 526.824 206.205 526.428ZM206.301 527.46H204.609V534H206.301V527.46ZM213.291 528.216C212.751 527.604 212.091 527.292 211.299 527.292C210.375 527.292 209.607 527.616 208.983 528.276C208.371 528.936 208.059 529.752 208.059 530.724C208.059 531.708 208.371 532.524 208.983 533.184C209.595 533.832 210.375 534.156 211.299 534.156C212.127 534.156 212.799 533.832 213.327 533.196V534H214.983V524.88H213.291V528.216ZM213.375 530.724C213.375 531.264 213.207 531.708 212.871 532.08C212.535 532.44 212.103 532.62 211.563 532.62C211.023 532.62 210.591 532.44 210.243 532.08C209.907 531.708 209.739 531.264 209.739 530.724C209.739 530.196 209.907 529.752 210.243 529.392C210.591 529.02 211.023 528.84 211.563 528.84C212.103 528.84 212.535 529.02 212.871 529.392C213.207 529.752 213.375 530.196 213.375 530.724ZM222.097 528.24C221.521 527.604 220.825 527.292 220.009 527.292C219.085 527.292 218.305 527.616 217.693 528.264C217.081 528.9 216.769 529.716 216.769 530.7C216.769 531.684 217.069 532.512 217.681 533.172C218.293 533.832 219.073 534.156 220.009 534.156C220.837 534.156 221.533 533.856 222.097 533.244V534H223.705V527.46H222.097V528.24ZM222.121 530.724C222.121 531.252 221.941 531.696 221.593 532.068C221.245 532.44 220.813 532.62 220.285 532.62C219.757 532.62 219.325 532.44 218.977 532.068C218.629 531.696 218.461 531.252 218.461 530.724C218.461 530.208 218.629 529.764 218.965 529.392C219.313 529.02 219.745 528.84 220.285 528.84C220.813 528.84 221.245 529.02 221.593 529.392C221.941 529.764 222.121 530.208 222.121 530.724ZM230.05 532.284C229.654 532.512 229.282 532.62 228.958 532.62C228.346 532.62 228.034 532.236 228.034 531.468V528.876H230.194V527.46H228.034V525.144H226.354V527.46H225.274V528.876H226.342V531.576C226.342 533.268 227.122 534.156 228.622 534.156C229.378 534.156 230.014 533.976 230.554 533.616L230.05 532.284ZM231.516 530.724C231.516 531.696 231.84 532.512 232.5 533.172C233.16 533.832 234 534.168 235.02 534.168C236.04 534.168 236.88 533.832 237.54 533.172C238.2 532.512 238.524 531.696 238.524 530.724C238.524 529.764 238.2 528.948 237.54 528.288C236.88 527.616 236.04 527.28 235.02 527.28C234 527.28 233.16 527.616 232.5 528.288C231.84 528.948 231.516 529.764 231.516 530.724ZM233.724 532.056C233.376 531.684 233.208 531.24 233.208 530.724C233.208 530.208 233.376 529.764 233.724 529.404C234.072 529.044 234.504 528.864 235.02 528.864C235.536 528.864 235.956 529.044 236.304 529.404C236.652 529.764 236.832 530.208 236.832 530.724C236.832 531.24 236.652 531.684 236.304 532.056C235.956 532.416 235.536 532.596 235.02 532.596C234.504 532.596 234.072 532.416 233.724 532.056ZM242.007 534V530.892C242.007 529.536 242.643 528.912 243.603 528.912C243.843 528.912 244.107 528.96 244.383 529.044L244.527 527.424C244.263 527.328 243.999 527.28 243.735 527.28C242.931 527.28 242.331 527.628 241.935 528.336V527.46H240.315V534H242.007Z" fill="#273D51"/>
<rect x="294" y="376" width="8" height="8" fill="#F5F8FD"/>
<rect x="442" y="87" width="7" height="10" fill="#F5F8FD"/>
<path d="M283 462L545 462" stroke="#298DFF" stroke-width="2" stroke-linecap="round" stroke-dasharray="1 6"/>
<path d="M270 462L274.5 466.33L274.5 457.67L270 462Z" fill="#298DFF"/>
<path d="M533 191L343 191" stroke="#298DFF" stroke-width="2" stroke-linecap="round" stroke-dasharray="1 6"/>
<path d="M545.145 191L540.645 195.33L540.645 186.67L545.145 191Z" fill="#298DFF"/>
<path d="M200 377L200 295" stroke="#298DFF" stroke-width="2" stroke-linecap="round" stroke-dasharray="1 6"/>
<path d="M200 387.001L204.33 382.501H195.67L200 387.001Z" fill="#298DFF"/>
<path d="M612 377L612 286" stroke="#298DFF" stroke-width="2" stroke-linecap="round" stroke-dasharray="1 6"/>
<path d="M612 387.001L616.33 382.501H607.67L612 387.001Z" fill="#298DFF"/>
<rect x="345" y="200.91" width="7" height="10" transform="rotate(-45 345 200.91)" fill="#F5F8FD"/>
<rect width="7" height="10" transform="matrix(-0.707107 -0.707107 -0.707107 0.707107 417.023 200.91)" fill="#F5F8FD"/>
<rect width="7" height="10" transform="matrix(-0.707107 -0.707107 -0.707107 0.707107 467.02 305.734)" fill="#F5F8FD"/>
<rect x="96" y="150" width="8" height="8" fill="#F5F8FD"/>
<g filter="url(#filter5_d)">
<circle cx="612" cy="168" r="50" fill="white"/>
</g>
<path d="M612 169C605.383 169 600 174.383 600 181C600 187.617 605.383 193 612 193C618.617 193 624 187.617 624 181C624 174.383 618.617 169 612 169ZM606.873 180.823L611.823 175.873C611.887 175.81 611.962 175.8 612 175.8C612.038 175.8 612.113 175.81 612.177 175.873L617.126 180.823C617.19 180.887 617.2 180.962 617.2 181C617.2 181.039 617.19 181.113 617.126 181.177L612.177 186.126C612.113 186.19 612.038 186.199 612 186.199C611.962 186.199 611.887 186.19 611.823 186.126L606.873 181.177C606.81 181.113 606.8 181.038 606.8 181C606.8 180.961 606.81 180.887 606.873 180.823Z" fill="url(#paint1_linear)"/>
<path d="M579 313C572.383 313 567 318.383 567 325C567 331.617 572.383 337 579 337C585.617 337 591 331.617 591 325C591 318.383 585.617 313 579 313ZM573.873 324.823L578.823 319.873C578.887 319.81 578.962 319.8 579 319.8C579.038 319.8 579.113 319.81 579.177 319.873L584.126 324.823C584.19 324.887 584.2 324.962 584.2 325C584.2 325.039 584.19 325.113 584.126 325.177L579.177 330.126C579.113 330.19 579.038 330.199 579 330.199C578.962 330.199 578.887 330.19 578.823 330.126L573.873 325.177C573.81 325.113 573.8 325.038 573.8 325C573.8 324.961 573.81 324.887 573.873 324.823Z" fill="url(#paint2_linear)"/>
<path opacity="0.5" d="M626.597 148.965L623.227 147.707C622.814 147.552 622.607 147.475 622.395 147.445C622.206 147.417 622.015 147.417 621.826 147.444C621.614 147.475 621.407 147.551 620.994 147.705L613.517 150.481C613.043 150.639 612.506 150.766 612 150.766C611.463 150.766 610.957 150.671 610.483 150.481L603.006 147.705C602.593 147.551 602.386 147.475 602.174 147.444C601.985 147.417 601.794 147.417 601.605 147.445C601.393 147.475 601.186 147.552 600.773 147.707L597.403 148.965C596.866 149.154 596.866 149.912 597.403 150.134L611.273 155.252C611.747 155.41 612.253 155.41 612.727 155.252L626.597 150.134C627.134 149.912 627.134 149.154 626.597 148.965Z" fill="url(#paint3_linear)"/>
<path opacity="0.5" d="M626.597 143.117L623.221 141.857C622.81 141.703 622.605 141.627 622.393 141.596C622.206 141.569 622.015 141.568 621.827 141.595C621.616 141.624 621.41 141.7 620.998 141.851L613.517 144.602C613.043 144.792 612.506 144.886 612 144.886C611.463 144.886 610.957 144.792 610.483 144.602L603.002 141.851C602.59 141.7 602.384 141.624 602.173 141.595C601.985 141.568 601.794 141.569 601.607 141.596C601.395 141.627 601.19 141.703 600.779 141.857L597.403 143.117C596.866 143.307 596.866 144.065 597.403 144.286L611.273 149.373C611.747 149.562 612.253 149.562 612.727 149.373L626.597 144.254C627.134 144.065 627.134 143.307 626.597 143.117Z" fill="url(#paint4_linear)"/>
<path d="M597.403 138.406L611.273 143.524C611.747 143.682 612.253 143.682 612.727 143.524L626.597 138.406C627.134 138.216 627.134 137.427 626.597 137.237L612.727 132.118C612.253 131.961 611.747 131.961 611.273 132.118L597.403 137.237C596.866 137.427 596.866 138.216 597.403 138.406Z" fill="url(#paint5_linear)"/>
<path d="M579.65 245V243.296H575.15V236.132H573.362V245H579.65ZM586.097 239.24C585.521 238.604 584.825 238.292 584.009 238.292C583.085 238.292 582.305 238.616 581.693 239.264C581.081 239.9 580.769 240.716 580.769 241.7C580.769 242.684 581.069 243.512 581.681 244.172C582.293 244.832 583.073 245.156 584.009 245.156C584.837 245.156 585.533 244.856 586.097 244.244V245H587.705V238.46H586.097V239.24ZM586.121 241.724C586.121 242.252 585.941 242.696 585.593 243.068C585.245 243.44 584.813 243.62 584.285 243.62C583.757 243.62 583.325 243.44 582.977 243.068C582.629 242.696 582.461 242.252 582.461 241.724C582.461 241.208 582.629 240.764 582.965 240.392C583.313 240.02 583.745 239.84 584.285 239.84C584.813 239.84 585.245 240.02 585.593 240.392C585.941 240.764 586.121 241.208 586.121 241.724ZM592.743 245.156C594.615 245.156 595.743 244.076 595.743 242.24V238.46H594.051V242.24C594.051 243.068 593.559 243.608 592.743 243.608C591.927 243.608 591.435 243.068 591.435 242.24V238.46H589.743V242.24C589.743 244.076 590.883 245.156 592.743 245.156ZM599.49 245V241.496C599.49 240.524 600.09 239.84 600.99 239.84C601.818 239.84 602.37 240.416 602.37 241.46V245H604.062V241.004C604.062 240.128 603.81 239.456 603.318 238.988C602.826 238.52 602.214 238.28 601.506 238.28C600.582 238.28 599.802 238.736 599.454 239.372V238.46H597.798V245H599.49ZM609.229 245.144C610.573 245.144 611.737 244.472 612.301 243.416L610.933 242.612C610.645 243.188 609.949 243.596 609.265 243.596C608.749 243.596 608.305 243.416 607.957 243.068C607.609 242.708 607.441 242.264 607.441 241.724C607.441 241.196 607.621 240.752 607.969 240.404C608.317 240.044 608.761 239.864 609.301 239.864C610.009 239.864 610.573 240.2 610.969 240.86L612.325 240.116C611.785 238.952 610.609 238.292 609.277 238.292C608.245 238.292 607.405 238.616 606.745 239.264C606.085 239.9 605.761 240.728 605.761 241.724C605.761 242.72 606.085 243.548 606.733 244.184C607.381 244.82 608.209 245.144 609.229 245.144ZM615.631 245V241.496C615.631 240.524 616.231 239.84 617.131 239.84C617.959 239.84 618.499 240.416 618.499 241.46V245H620.191V241.004C620.191 240.128 619.939 239.456 619.447 238.988C618.955 238.52 618.355 238.28 617.647 238.28C616.723 238.28 615.931 238.724 615.583 239.312V235.88H613.939V245H615.631ZM625.994 238.292C625.166 238.292 624.482 238.616 623.918 239.264V238.46H622.238V247.688H623.93V244.244C624.494 244.856 625.178 245.156 625.982 245.156C626.906 245.156 627.674 244.82 628.286 244.16C628.898 243.5 629.21 242.684 629.21 241.724C629.21 240.764 628.91 239.948 628.298 239.288C627.686 238.628 626.918 238.292 625.994 238.292ZM625.694 243.608C625.166 243.608 624.734 243.428 624.398 243.068C624.062 242.708 623.894 242.264 623.894 241.736C623.894 241.208 624.062 240.764 624.398 240.404C624.734 240.044 625.166 239.864 625.694 239.864C626.234 239.864 626.666 240.044 627.002 240.404C627.338 240.764 627.506 241.208 627.506 241.736C627.506 242.264 627.338 242.708 627.002 243.068C626.666 243.428 626.234 243.608 625.694 243.608ZM635.986 239.24C635.41 238.604 634.714 238.292 633.898 238.292C632.974 238.292 632.194 238.616 631.582 239.264C630.97 239.9 630.658 240.716 630.658 241.7C630.658 242.684 630.958 243.512 631.57 244.172C632.182 244.832 632.962 245.156 633.898 245.156C634.726 245.156 635.422 244.856 635.986 244.244V245H637.594V238.46H635.986V239.24ZM636.01 241.724C636.01 242.252 635.83 242.696 635.482 243.068C635.134 243.44 634.702 243.62 634.174 243.62C633.646 243.62 633.214 243.44 632.866 243.068C632.518 242.696 632.35 242.252 632.35 241.724C632.35 241.208 632.518 240.764 632.854 240.392C633.202 240.02 633.634 239.84 634.174 239.84C634.702 239.84 635.134 240.02 635.482 240.392C635.83 240.764 636.01 241.208 636.01 241.724ZM644.6 239.216C644.06 238.604 643.4 238.292 642.608 238.292C641.684 238.292 640.916 238.616 640.292 239.276C639.68 239.936 639.368 240.752 639.368 241.724C639.368 242.708 639.68 243.524 640.292 244.184C640.904 244.832 641.684 245.156 642.608 245.156C643.436 245.156 644.108 244.832 644.636 244.196V245H646.292V235.88H644.6V239.216ZM644.684 241.724C644.684 242.264 644.516 242.708 644.18 243.08C643.844 243.44 643.412 243.62 642.872 243.62C642.332 243.62 641.9 243.44 641.552 243.08C641.216 242.708 641.048 242.264 641.048 241.724C641.048 241.196 641.216 240.752 641.552 240.392C641.9 240.02 642.332 239.84 642.872 239.84C643.412 239.84 643.844 240.02 644.18 240.392C644.516 240.752 644.684 241.196 644.684 241.724ZM585.341 252.132V261H587.117V257.94H588.485C589.577 257.94 590.393 257.664 590.933 257.124C591.473 256.572 591.749 255.888 591.749 255.06C591.749 254.244 591.485 253.548 590.957 252.984C590.441 252.42 589.661 252.132 588.617 252.132H585.341ZM587.117 256.332V253.776H588.641C589.445 253.776 589.937 254.328 589.937 255.036C589.937 255.756 589.457 256.332 588.545 256.332H587.117ZM595.081 261V257.892C595.081 256.536 595.717 255.912 596.677 255.912C596.917 255.912 597.181 255.96 597.457 256.044L597.601 254.424C597.337 254.328 597.073 254.28 596.809 254.28C596.005 254.28 595.405 254.628 595.009 255.336V254.46H593.389V261H595.081ZM598.469 257.724C598.469 258.696 598.793 259.512 599.453 260.172C600.113 260.832 600.953 261.168 601.973 261.168C602.993 261.168 603.833 260.832 604.493 260.172C605.153 259.512 605.477 258.696 605.477 257.724C605.477 256.764 605.153 255.948 604.493 255.288C603.833 254.616 602.993 254.28 601.973 254.28C600.953 254.28 600.113 254.616 599.453 255.288C598.793 255.948 598.469 256.764 598.469 257.724ZM600.677 259.056C600.329 258.684 600.161 258.24 600.161 257.724C600.161 257.208 600.329 256.764 600.677 256.404C601.025 256.044 601.457 255.864 601.973 255.864C602.489 255.864 602.909 256.044 603.257 256.404C603.605 256.764 603.785 257.208 603.785 257.724C603.785 258.24 603.605 258.684 603.257 259.056C602.909 259.416 602.489 259.596 601.973 259.596C601.457 259.596 601.025 259.416 600.677 259.056ZM609.141 253.428C609.537 253.032 609.537 252.336 609.141 251.952C608.745 251.556 608.049 251.556 607.653 251.952C607.257 252.336 607.257 253.032 607.653 253.428C608.049 253.824 608.745 253.824 609.141 253.428ZM606.741 263.784C608.241 263.784 609.249 262.872 609.249 261.096V254.46H607.557V261.012C607.557 261.864 607.197 262.296 606.465 262.296C606.237 262.296 605.937 262.236 605.565 262.104L605.253 263.448C605.601 263.676 606.093 263.784 606.741 263.784ZM617.732 257.58C617.732 256.56 617.42 255.768 616.808 255.18C616.196 254.592 615.404 254.292 614.456 254.292C613.448 254.292 612.632 254.616 611.996 255.264C611.36 255.912 611.048 256.728 611.048 257.724C611.048 258.672 611.348 259.488 611.96 260.148C612.572 260.808 613.448 261.144 614.6 261.144C615.68 261.144 616.628 260.844 617.456 260.244L616.784 259.056C616.22 259.44 615.38 259.716 614.672 259.716C613.64 259.716 613.004 259.248 612.764 258.324H617.672C617.708 258.06 617.732 257.808 617.732 257.58ZM614.456 255.696C615.32 255.696 615.932 256.212 616.088 257.064H612.764C612.968 256.212 613.604 255.696 614.456 255.696ZM622.616 261.144C623.96 261.144 625.124 260.472 625.688 259.416L624.32 258.612C624.032 259.188 623.336 259.596 622.652 259.596C622.136 259.596 621.692 259.416 621.344 259.068C620.996 258.708 620.828 258.264 620.828 257.724C620.828 257.196 621.008 256.752 621.356 256.404C621.704 256.044 622.148 255.864 622.688 255.864C623.396 255.864 623.96 256.2 624.356 256.86L625.712 256.116C625.172 254.952 623.996 254.292 622.664 254.292C621.632 254.292 620.792 254.616 620.132 255.264C619.472 255.9 619.148 256.728 619.148 257.724C619.148 258.72 619.472 259.548 620.12 260.184C620.768 260.82 621.596 261.144 622.616 261.144ZM631.551 259.284C631.155 259.512 630.783 259.62 630.459 259.62C629.847 259.62 629.535 259.236 629.535 258.468V255.876H631.695V254.46H629.535V252.144H627.855V254.46H626.775V255.876H627.843V258.576C627.843 260.268 628.623 261.156 630.123 261.156C630.879 261.156 631.515 260.976 632.055 260.616L631.551 259.284ZM635.642 261.168C636.422 261.168 637.058 260.976 637.526 260.58C638.006 260.184 638.246 259.68 638.246 259.068C638.246 258.348 637.874 257.796 637.142 257.412C636.962 257.316 636.434 257.1 635.57 256.776C635.186 256.644 634.994 256.452 634.994 256.176C634.994 255.876 635.294 255.624 635.738 255.624C636.278 255.624 636.782 255.84 637.238 256.272L638.078 255.18C637.478 254.556 636.71 254.244 635.786 254.244C635.054 254.244 634.454 254.424 634.01 254.796C633.566 255.168 633.338 255.636 633.338 256.212C633.338 256.98 633.71 257.544 634.466 257.904C634.61 257.976 634.886 258.096 635.306 258.252C635.726 258.408 635.978 258.504 636.086 258.552C636.398 258.696 636.554 258.888 636.554 259.116C636.554 259.488 636.17 259.752 635.654 259.752C634.994 259.752 634.31 259.404 633.842 258.84L632.942 259.908C633.602 260.748 634.502 261.168 635.642 261.168Z" fill="#273D51"/>
<g filter="url(#filter6_d)">
<circle cx="612" cy="457" r="50" fill="white"/>
</g>
<path d="M611.15 460.743C612.492 459.852 613.511 458.553 614.057 457.037C614.603 455.522 614.646 453.871 614.181 452.329C613.715 450.787 612.765 449.435 611.472 448.475C610.179 447.515 608.611 446.996 607.001 446.996C605.39 446.996 603.822 447.515 602.529 448.475C601.236 449.435 600.286 450.787 599.821 452.329C599.355 453.871 599.398 455.522 599.944 457.037C600.49 458.553 601.509 459.852 602.851 460.743C600.563 461.587 598.587 463.106 597.182 465.099C597.077 465.249 597.015 465.424 597.002 465.607C596.99 465.79 597.028 465.973 597.112 466.135C597.197 466.298 597.324 466.434 597.481 466.529C597.637 466.624 597.817 466.675 598 466.675L616.001 466.674C616.184 466.674 616.363 466.624 616.52 466.528C616.676 466.433 616.804 466.297 616.888 466.134C616.973 465.972 617.011 465.789 616.998 465.606C616.986 465.424 616.924 465.248 616.818 465.098C615.414 463.106 613.437 461.587 611.15 460.743Z" fill="url(#paint6_linear)"/>
<path opacity="0.5" d="M627.007 465.098C627.007 465.098 627.007 465.098 627.007 465.098C625.935 463.577 624.528 462.331 622.905 461.452C622.276 461.111 622.16 460.156 622.65 459.635C623.466 458.766 624.069 457.71 624.398 456.547C624.886 454.829 624.744 452.993 623.999 451.37C623.253 449.746 621.953 448.443 620.332 447.693C618.71 446.943 616.875 446.796 615.155 447.279C614.999 447.323 614.856 447.405 614.738 447.516C614.62 447.628 614.531 447.766 614.479 447.92C614.427 448.073 614.413 448.237 614.438 448.397C614.463 448.557 614.527 448.709 614.624 448.839C615.754 450.358 616.404 452.18 616.49 454.071C616.575 455.962 616.092 457.836 615.104 459.45C614.973 459.663 614.927 459.917 614.974 460.162C615.022 460.407 615.159 460.626 615.359 460.775C615.739 461.057 616.103 461.358 616.452 461.677C616.47 461.697 616.489 461.716 616.508 461.735C617.843 462.968 618.925 464.45 619.693 466.098C619.774 466.27 619.902 466.416 620.062 466.518C620.223 466.62 620.409 466.675 620.599 466.675L626.19 466.674C626.373 466.674 626.552 466.624 626.709 466.528C626.865 466.433 626.993 466.297 627.077 466.134C627.161 465.972 627.2 465.789 627.187 465.606C627.175 465.424 627.113 465.248 627.007 465.098C627.007 465.098 627.007 465.098 627.007 465.098Z" fill="url(#paint7_linear)"/>
<path d="M583.34 534H585.128V525.132H583.34V534ZM589.131 534V530.496C589.131 529.524 589.731 528.84 590.631 528.84C591.459 528.84 592.011 529.416 592.011 530.46V534H593.703V530.004C593.703 529.128 593.451 528.456 592.959 527.988C592.467 527.52 591.855 527.28 591.147 527.28C590.223 527.28 589.443 527.736 589.095 528.372V527.46H587.439V534H589.131ZM598.312 531.696L596.668 527.46H594.808L597.64 533.988H598.936L601.78 527.46H599.92L598.312 531.696ZM609.248 530.58C609.248 529.56 608.936 528.768 608.324 528.18C607.712 527.592 606.92 527.292 605.972 527.292C604.964 527.292 604.148 527.616 603.512 528.264C602.876 528.912 602.564 529.728 602.564 530.724C602.564 531.672 602.864 532.488 603.476 533.148C604.088 533.808 604.964 534.144 606.116 534.144C607.196 534.144 608.144 533.844 608.972 533.244L608.3 532.056C607.736 532.44 606.896 532.716 606.188 532.716C605.156 532.716 604.52 532.248 604.28 531.324H609.188C609.224 531.06 609.248 530.808 609.248 530.58ZM605.972 528.696C606.836 528.696 607.448 529.212 607.604 530.064H604.28C604.484 529.212 605.12 528.696 605.972 528.696ZM613.161 534.168C613.941 534.168 614.577 533.976 615.045 533.58C615.525 533.184 615.765 532.68 615.765 532.068C615.765 531.348 615.393 530.796 614.661 530.412C614.481 530.316 613.953 530.1 613.089 529.776C612.705 529.644 612.513 529.452 612.513 529.176C612.513 528.876 612.813 528.624 613.257 528.624C613.797 528.624 614.301 528.84 614.757 529.272L615.597 528.18C614.997 527.556 614.229 527.244 613.305 527.244C612.573 527.244 611.973 527.424 611.529 527.796C611.085 528.168 610.857 528.636 610.857 529.212C610.857 529.98 611.229 530.544 611.985 530.904C612.129 530.976 612.405 531.096 612.825 531.252C613.245 531.408 613.497 531.504 613.605 531.552C613.917 531.696 614.073 531.888 614.073 532.116C614.073 532.488 613.689 532.752 613.173 532.752C612.513 532.752 611.829 532.404 611.361 531.84L610.461 532.908C611.121 533.748 612.021 534.168 613.161 534.168ZM621.649 532.284C621.253 532.512 620.881 532.62 620.557 532.62C619.945 532.62 619.633 532.236 619.633 531.468V528.876H621.793V527.46H619.633V525.144H617.953V527.46H616.873V528.876H617.941V531.576C617.941 533.268 618.721 534.156 620.221 534.156C620.977 534.156 621.613 533.976 622.153 533.616L621.649 532.284ZM623.114 530.724C623.114 531.696 623.438 532.512 624.098 533.172C624.758 533.832 625.598 534.168 626.618 534.168C627.638 534.168 628.478 533.832 629.138 533.172C629.798 532.512 630.122 531.696 630.122 530.724C630.122 529.764 629.798 528.948 629.138 528.288C628.478 527.616 627.638 527.28 626.618 527.28C625.598 527.28 624.758 527.616 624.098 528.288C623.438 528.948 623.114 529.764 623.114 530.724ZM625.322 532.056C624.974 531.684 624.806 531.24 624.806 530.724C624.806 530.208 624.974 529.764 625.322 529.404C625.67 529.044 626.102 528.864 626.618 528.864C627.134 528.864 627.554 529.044 627.902 529.404C628.25 529.764 628.43 530.208 628.43 530.724C628.43 531.24 628.25 531.684 627.902 532.056C627.554 532.416 627.134 532.596 626.618 532.596C626.102 532.596 625.67 532.416 625.322 532.056ZM633.606 534V530.892C633.606 529.536 634.242 528.912 635.202 528.912C635.442 528.912 635.706 528.96 635.982 529.044L636.126 527.424C635.862 527.328 635.598 527.28 635.334 527.28C634.53 527.28 633.93 527.628 633.534 528.336V527.46H631.914V534H633.606ZM639.643 534.168C640.423 534.168 641.059 533.976 641.527 533.58C642.007 533.184 642.247 532.68 642.247 532.068C642.247 531.348 641.875 530.796 641.143 530.412C640.963 530.316 640.435 530.1 639.571 529.776C639.187 529.644 638.995 529.452 638.995 529.176C638.995 528.876 639.295 528.624 639.739 528.624C640.279 528.624 640.783 528.84 641.239 529.272L642.079 528.18C641.479 527.556 640.711 527.244 639.787 527.244C639.055 527.244 638.455 527.424 638.011 527.796C637.567 528.168 637.339 528.636 637.339 529.212C637.339 529.98 637.711 530.544 638.467 530.904C638.611 530.976 638.887 531.096 639.307 531.252C639.727 531.408 639.979 531.504 640.087 531.552C640.399 531.696 640.555 531.888 640.555 532.116C640.555 532.488 640.171 532.752 639.655 532.752C638.995 532.752 638.311 532.404 637.843 531.84L636.943 532.908C637.603 533.748 638.503 534.168 639.643 534.168Z" fill="#273D51"/>
<path d="M388.681 223.275C389.521 223.275 390.217 223.035 390.769 222.567C391.333 222.099 391.609 221.487 391.609 220.731C391.609 219.867 391.177 219.183 390.325 218.667C390.121 218.547 389.749 218.355 389.209 218.103C388.669 217.851 388.333 217.671 388.177 217.575C387.673 217.275 387.421 216.903 387.421 216.435C387.421 215.715 388.021 215.235 388.825 215.235C389.533 215.235 390.133 215.547 390.613 216.183L391.417 215.415C390.781 214.539 389.905 214.107 388.813 214.107C388.009 214.107 387.361 214.335 386.869 214.803C386.377 215.259 386.137 215.823 386.137 216.507C386.137 217.347 386.581 218.055 387.469 218.619C387.697 218.751 388.021 218.919 388.465 219.123C388.909 219.327 389.221 219.471 389.377 219.555C389.989 219.903 390.301 220.311 390.301 220.791C390.301 221.547 389.677 222.135 388.669 222.135C387.805 222.135 387.025 221.667 386.545 220.719L385.657 221.451C386.233 222.639 387.397 223.275 388.681 223.275ZM397.245 221.859C396.849 222.111 396.465 222.231 396.093 222.231C395.397 222.231 395.049 221.811 395.049 220.959L395.049 217.683L397.329 217.683L397.329 216.699L395.049 216.699L395.049 214.419L393.921 214.419L393.921 216.699L392.769 216.699L392.769 217.683L393.909 217.683L393.909 220.875C393.909 222.411 394.605 223.287 395.961 223.287C396.645 223.287 397.209 223.107 397.677 222.747L397.245 221.859ZM404.193 217.635C403.593 216.903 402.837 216.543 401.925 216.543C401.001 216.543 400.233 216.855 399.621 217.491C399.009 218.115 398.709 218.907 398.709 219.867C398.709 220.839 399.009 221.643 399.621 222.303C400.233 222.963 401.001 223.287 401.925 223.287C402.861 223.287 403.617 222.927 404.193 222.219L404.193 223.131L405.297 223.131L405.297 216.699L404.193 216.699L404.193 217.635ZM404.265 219.903C404.265 220.563 404.061 221.115 403.653 221.559C403.245 222.003 402.717 222.231 402.057 222.231C401.397 222.231 400.869 222.003 400.473 221.559C400.077 221.115 399.873 220.563 399.873 219.915C399.873 219.267 400.077 218.715 400.473 218.271C400.869 217.827 401.397 217.599 402.057 217.599C402.717 217.599 403.245 217.827 403.653 218.271C404.061 218.715 404.265 219.267 404.265 219.903ZM413.385 223.131L410.265 219.399L413.277 216.699L411.717 216.699L408.837 219.303L408.837 214.047L407.685 214.047L407.685 223.131L408.837 223.131L408.837 220.683L409.449 220.131L411.873 223.131L413.385 223.131ZM415.424 215.787C415.868 215.787 416.24 215.439 416.24 214.959C416.24 214.515 415.868 214.155 415.424 214.155C414.944 214.155 414.584 214.491 414.584 214.959C414.584 215.439 414.944 215.787 415.424 215.787ZM415.976 216.699L414.824 216.699L414.824 223.131L415.976 223.131L415.976 216.699ZM419.518 223.131L419.518 219.567C419.518 218.991 419.686 218.523 420.01 218.151C420.346 217.779 420.778 217.599 421.294 217.599C422.266 217.599 422.938 218.307 422.938 219.555L422.938 223.131L424.078 223.131L424.078 219.231C424.078 218.355 423.838 217.695 423.346 217.227C422.854 216.759 422.254 216.531 421.534 216.531C420.586 216.531 419.902 216.891 419.494 217.611L419.494 216.699L418.366 216.699L418.366 223.131L419.518 223.131ZM431.472 217.539C430.896 216.879 430.164 216.543 429.276 216.543C428.352 216.543 427.572 216.855 426.936 217.491C426.3 218.115 425.988 218.895 425.988 219.831C425.988 220.779 426.3 221.559 426.912 222.195C427.524 222.831 428.292 223.143 429.216 223.143C430.14 223.143 430.896 222.807 431.472 222.135L431.472 222.663C431.472 223.299 431.268 223.815 430.848 224.211C430.428 224.619 429.864 224.823 429.156 224.823C428.328 224.823 427.56 224.559 426.864 224.043L426.324 224.955C427.176 225.567 428.124 225.867 429.168 225.867C430.212 225.867 431.052 225.555 431.676 224.943C432.3 224.331 432.612 223.515 432.612 222.471L432.612 216.699L431.472 216.699L431.472 217.539ZM427.776 221.463C427.356 221.031 427.152 220.491 427.152 219.843C427.152 219.195 427.356 218.655 427.776 218.235C428.196 217.803 428.712 217.587 429.348 217.587C429.984 217.587 430.5 217.803 430.92 218.235C431.34 218.655 431.544 219.195 431.544 219.843C431.544 220.491 431.34 221.031 430.92 221.463C430.5 221.895 429.984 222.111 429.348 222.111C428.712 222.111 428.196 221.895 427.776 221.463ZM444.984 223.131L442.512 219.435C443.844 219.135 444.576 218.067 444.576 216.903C444.576 216.195 444.336 215.571 443.844 215.055C443.364 214.527 442.68 214.263 441.792 214.263L438.78 214.263L438.78 223.131L439.98 223.131L439.98 219.531L441.204 219.531L443.508 223.131L444.984 223.131ZM441.804 215.403C442.8 215.403 443.352 216.039 443.352 216.891C443.352 217.743 442.764 218.403 441.564 218.403L439.98 218.403L439.98 215.403L441.804 215.403ZM452.628 219.795C452.628 218.799 452.34 218.007 451.752 217.419C451.176 216.831 450.432 216.543 449.52 216.543C448.56 216.543 447.78 216.855 447.168 217.491C446.568 218.127 446.268 218.919 446.268 219.891C446.268 221.559 447.276 223.275 449.7 223.275C450.768 223.275 451.824 222.867 452.46 222.375L451.968 221.499C451.38 221.931 450.492 222.219 449.724 222.219C448.38 222.219 447.66 221.475 447.468 220.383L452.592 220.383C452.616 220.071 452.628 219.879 452.628 219.795ZM447.468 219.387C447.66 218.319 448.464 217.563 449.52 217.563C450.576 217.563 451.38 218.271 451.44 219.387L447.468 219.387ZM456.824 223.119L458.564 218.307L460.34 223.119L461.3 223.119L463.448 216.699L462.248 216.699L460.784 221.523L458.96 216.699L458.156 216.699L456.404 221.523L454.88 216.699L453.668 216.699L455.876 223.119L456.824 223.119ZM470.05 217.635C469.45 216.903 468.694 216.543 467.782 216.543C466.858 216.543 466.09 216.855 465.478 217.491C464.866 218.115 464.566 218.907 464.566 219.867C464.566 220.839 464.866 221.643 465.478 222.303C466.09 222.963 466.858 223.287 467.782 223.287C468.718 223.287 469.474 222.927 470.05 222.219L470.05 223.131L471.154 223.131L471.154 216.699L470.05 216.699L470.05 217.635ZM470.122 219.903C470.122 220.563 469.918 221.115 469.51 221.559C469.102 222.003 468.574 222.231 467.914 222.231C467.254 222.231 466.726 222.003 466.33 221.559C465.934 221.115 465.73 220.563 465.73 219.915C465.73 219.267 465.934 218.715 466.33 218.271C466.726 217.827 467.254 217.599 467.914 217.599C468.574 217.599 469.102 217.827 469.51 218.271C469.918 218.715 470.122 219.267 470.122 219.903ZM474.694 223.131L474.694 219.723C474.694 218.343 475.438 217.635 476.458 217.635C476.674 217.635 476.902 217.671 477.13 217.743L477.238 216.627C476.986 216.567 476.734 216.531 476.482 216.531C475.63 216.531 475.006 216.903 474.634 217.647L474.634 216.699L473.542 216.699L473.542 223.131L474.694 223.131ZM483.578 217.635C482.99 216.903 482.246 216.543 481.322 216.543C480.398 216.543 479.63 216.867 479.018 217.527C478.406 218.175 478.106 218.967 478.106 219.903C478.106 220.851 478.406 221.655 479.018 222.315C479.63 222.963 480.41 223.287 481.346 223.287C482.27 223.287 483.014 222.939 483.578 222.231L483.578 223.131L484.73 223.131L484.73 214.047L483.578 214.047L483.578 217.635ZM483.662 219.903C483.662 220.563 483.458 221.115 483.05 221.559C482.654 222.003 482.126 222.231 481.466 222.231C480.806 222.231 480.278 222.003 479.87 221.559C479.474 221.115 479.27 220.563 479.27 219.903C479.27 219.267 479.474 218.715 479.87 218.271C480.278 217.827 480.806 217.599 481.466 217.599C482.126 217.599 482.654 217.827 483.05 218.271C483.458 218.715 483.662 219.267 483.662 219.903ZM488.906 223.275C489.59 223.275 490.142 223.083 490.574 222.711C491.006 222.339 491.222 221.871 491.222 221.319C491.222 220.611 490.862 220.071 490.13 219.699C489.938 219.591 489.65 219.459 489.266 219.303L488.558 218.991C488.198 218.823 488.018 218.571 488.018 218.235C488.018 217.803 488.366 217.455 488.942 217.455C489.518 217.455 489.974 217.707 490.322 218.199L491.054 217.503C490.622 216.831 489.83 216.483 489.014 216.483C488.378 216.483 487.874 216.651 487.49 216.999C487.106 217.335 486.914 217.767 486.914 218.283C486.914 218.967 487.238 219.483 487.898 219.843C488.03 219.915 488.294 220.035 488.69 220.203C489.086 220.371 489.362 220.491 489.494 220.563C489.89 220.767 490.082 221.043 490.082 221.379C490.082 221.871 489.626 222.267 488.942 222.267C488.354 222.267 487.718 221.931 487.346 221.247L486.518 221.883C487.01 222.807 487.946 223.275 488.906 223.275Z" fill="#627B95"/>
<path d="M312.016 498H313.216V490.296H315.844V489.132H309.388V490.296H312.016V498ZM317.801 498V494.592C317.801 493.212 318.545 492.504 319.565 492.504C319.781 492.504 320.009 492.54 320.237 492.612L320.345 491.496C320.093 491.436 319.841 491.4 319.589 491.4C318.737 491.4 318.113 491.772 317.741 492.516V491.568H316.649V498H317.801ZM324.589 498.156C326.305 498.156 327.349 497.124 327.349 495.408V491.568H326.209V495.372C326.209 496.428 325.609 497.088 324.589 497.088C323.581 497.088 322.981 496.428 322.981 495.372V491.568H321.829V495.408C321.829 497.088 322.909 498.156 324.589 498.156ZM331.45 498.144C332.134 498.144 332.686 497.952 333.118 497.58C333.55 497.208 333.766 496.74 333.766 496.188C333.766 495.48 333.406 494.94 332.674 494.568C332.482 494.46 332.194 494.328 331.81 494.172L331.102 493.86C330.742 493.692 330.562 493.44 330.562 493.104C330.562 492.672 330.91 492.324 331.486 492.324C332.062 492.324 332.518 492.576 332.866 493.068L333.598 492.372C333.166 491.7 332.374 491.352 331.558 491.352C330.922 491.352 330.418 491.52 330.034 491.868C329.65 492.204 329.458 492.636 329.458 493.152C329.458 493.836 329.782 494.352 330.442 494.712C330.574 494.784 330.838 494.904 331.234 495.072C331.63 495.24 331.906 495.36 332.038 495.432C332.434 495.636 332.626 495.912 332.626 496.248C332.626 496.74 332.17 497.136 331.486 497.136C330.898 497.136 330.262 496.8 329.89 496.116L329.062 496.752C329.554 497.676 330.49 498.144 331.45 498.144ZM339.408 496.728C339.012 496.98 338.628 497.1 338.256 497.1C337.56 497.1 337.212 496.68 337.212 495.828V492.552H339.492V491.568H337.212V489.288H336.084V491.568H334.932V492.552H336.072V495.744C336.072 497.28 336.768 498.156 338.124 498.156C338.808 498.156 339.372 497.976 339.84 497.616L339.408 496.728ZM342.513 488.916H341.361V498H342.513V488.916ZM350.879 494.664C350.879 493.668 350.591 492.876 350.003 492.288C349.427 491.7 348.683 491.412 347.771 491.412C346.811 491.412 346.031 491.724 345.419 492.36C344.819 492.996 344.519 493.788 344.519 494.76C344.519 496.428 345.527 498.144 347.951 498.144C349.019 498.144 350.075 497.736 350.711 497.244L350.219 496.368C349.631 496.8 348.743 497.088 347.975 497.088C346.631 497.088 345.911 496.344 345.719 495.252H350.843C350.867 494.94 350.879 494.748 350.879 494.664ZM345.719 494.256C345.911 493.188 346.715 492.432 347.771 492.432C348.827 492.432 349.631 493.14 349.691 494.256H345.719ZM354.639 498.144C355.323 498.144 355.875 497.952 356.307 497.58C356.739 497.208 356.955 496.74 356.955 496.188C356.955 495.48 356.595 494.94 355.863 494.568C355.671 494.46 355.383 494.328 354.999 494.172L354.291 493.86C353.931 493.692 353.751 493.44 353.751 493.104C353.751 492.672 354.099 492.324 354.675 492.324C355.251 492.324 355.707 492.576 356.055 493.068L356.787 492.372C356.355 491.7 355.563 491.352 354.747 491.352C354.111 491.352 353.607 491.52 353.223 491.868C352.839 492.204 352.647 492.636 352.647 493.152C352.647 493.836 352.971 494.352 353.631 494.712C353.763 494.784 354.027 494.904 354.423 495.072C354.819 495.24 355.095 495.36 355.227 495.432C355.623 495.636 355.815 495.912 355.815 496.248C355.815 496.74 355.359 497.136 354.675 497.136C354.087 497.136 353.451 496.8 353.079 496.116L352.251 496.752C352.743 497.676 353.679 498.144 354.639 498.144ZM360.676 498.144C361.36 498.144 361.912 497.952 362.344 497.58C362.776 497.208 362.992 496.74 362.992 496.188C362.992 495.48 362.632 494.94 361.9 494.568C361.708 494.46 361.42 494.328 361.036 494.172L360.328 493.86C359.968 493.692 359.788 493.44 359.788 493.104C359.788 492.672 360.136 492.324 360.712 492.324C361.288 492.324 361.744 492.576 362.092 493.068L362.824 492.372C362.392 491.7 361.6 491.352 360.784 491.352C360.148 491.352 359.644 491.52 359.26 491.868C358.876 492.204 358.684 492.636 358.684 493.152C358.684 493.836 359.008 494.352 359.668 494.712C359.8 494.784 360.064 494.904 360.46 495.072C360.856 495.24 361.132 495.36 361.264 495.432C361.66 495.636 361.852 495.912 361.852 496.248C361.852 496.74 361.396 497.136 360.712 497.136C360.124 497.136 359.488 496.8 359.116 496.116L358.288 496.752C358.78 497.676 359.716 498.144 360.676 498.144ZM365.465 496.704C365.045 496.704 364.685 497.052 364.685 497.448C364.685 497.82 364.985 498.132 365.357 498.132H365.405C365.381 498.18 365.357 498.228 365.321 498.264C365.213 498.432 364.913 498.696 364.433 499.056L364.805 499.572C365.801 498.936 366.293 498.276 366.293 497.592C366.293 497.076 365.945 496.704 365.465 496.704ZM378.165 495.456L372.765 489.132H372.225V498H373.413V491.712L378.729 498H379.353V489.132H378.165V495.456ZM384.889 498.156C385.861 498.156 386.665 497.832 387.301 497.184C387.937 496.524 388.261 495.72 388.261 494.772C388.261 493.836 387.937 493.044 387.301 492.384C386.665 491.724 385.861 491.4 384.889 491.4C383.905 491.4 383.089 491.724 382.453 492.384C381.817 493.032 381.505 493.824 381.505 494.772C381.505 495.72 381.817 496.524 382.453 497.184C383.089 497.832 383.905 498.156 384.889 498.156ZM387.109 494.772C387.109 495.408 386.893 495.96 386.461 496.416C386.029 496.872 385.501 497.1 384.889 497.1C384.277 497.1 383.749 496.872 383.317 496.416C382.885 495.96 382.669 495.408 382.669 494.772C382.669 494.136 382.885 493.596 383.317 493.152C383.749 492.696 384.277 492.468 384.889 492.468C385.501 492.468 386.029 492.696 386.461 493.152C386.893 493.596 387.109 494.136 387.109 494.772ZM391.388 498V494.436C391.388 493.86 391.556 493.392 391.88 493.02C392.216 492.648 392.648 492.468 393.164 492.468C394.136 492.468 394.808 493.176 394.808 494.424V498H395.948V494.1C395.948 493.224 395.708 492.564 395.216 492.096C394.724 491.628 394.124 491.4 393.404 491.4C392.456 491.4 391.772 491.76 391.364 492.48V491.568H390.236V498H391.388ZM402.79 495.216V494.136H398.158V495.216H402.79ZM409.289 498.132C410.921 498.132 412.349 497.364 413.177 496.212L412.313 495.48C411.593 496.404 410.537 496.98 409.337 496.98C408.377 496.98 407.573 496.668 406.925 496.032C406.289 495.396 405.965 494.592 405.965 493.608C405.965 492.612 406.289 491.784 406.949 491.124C407.609 490.464 408.401 490.14 409.349 490.14C410.537 490.14 411.509 490.644 412.265 491.664L413.153 490.92C412.769 490.332 412.241 489.864 411.557 489.516C410.873 489.156 410.129 488.976 409.325 488.976C408.053 488.976 406.973 489.408 406.073 490.284C405.173 491.148 404.729 492.252 404.729 493.596C404.729 494.928 405.173 496.008 406.049 496.86C406.937 497.712 408.017 498.132 409.289 498.132ZM417.657 498.156C419.373 498.156 420.417 497.124 420.417 495.408V491.568H419.277V495.372C419.277 496.428 418.677 497.088 417.657 497.088C416.649 497.088 416.049 496.428 416.049 495.372V491.568H414.897V495.408C414.897 497.088 415.977 498.156 417.657 498.156ZM424.518 498.144C425.202 498.144 425.754 497.952 426.186 497.58C426.618 497.208 426.834 496.74 426.834 496.188C426.834 495.48 426.474 494.94 425.742 494.568C425.55 494.46 425.262 494.328 424.878 494.172L424.17 493.86C423.81 493.692 423.63 493.44 423.63 493.104C423.63 492.672 423.978 492.324 424.554 492.324C425.13 492.324 425.586 492.576 425.934 493.068L426.666 492.372C426.234 491.7 425.442 491.352 424.626 491.352C423.99 491.352 423.486 491.52 423.102 491.868C422.718 492.204 422.526 492.636 422.526 493.152C422.526 493.836 422.85 494.352 423.51 494.712C423.642 494.784 423.906 494.904 424.302 495.072C424.698 495.24 424.974 495.36 425.106 495.432C425.502 495.636 425.694 495.912 425.694 496.248C425.694 496.74 425.238 497.136 424.554 497.136C423.966 497.136 423.33 496.8 422.958 496.116L422.13 496.752C422.622 497.676 423.558 498.144 424.518 498.144ZM432.476 496.728C432.08 496.98 431.696 497.1 431.324 497.1C430.628 497.1 430.28 496.68 430.28 495.828V492.552H432.56V491.568H430.28V489.288H429.152V491.568H428V492.552H429.14V495.744C429.14 497.28 429.836 498.156 431.192 498.156C431.876 498.156 432.44 497.976 432.908 497.616L432.476 496.728ZM437.324 498.156C438.296 498.156 439.1 497.832 439.736 497.184C440.372 496.524 440.696 495.72 440.696 494.772C440.696 493.836 440.372 493.044 439.736 492.384C439.1 491.724 438.296 491.4 437.324 491.4C436.34 491.4 435.524 491.724 434.888 492.384C434.252 493.032 433.94 493.824 433.94 494.772C433.94 495.72 434.252 496.524 434.888 497.184C435.524 497.832 436.34 498.156 437.324 498.156ZM439.544 494.772C439.544 495.408 439.328 495.96 438.896 496.416C438.464 496.872 437.936 497.1 437.324 497.1C436.712 497.1 436.184 496.872 435.752 496.416C435.32 495.96 435.104 495.408 435.104 494.772C435.104 494.136 435.32 493.596 435.752 493.152C436.184 492.696 436.712 492.468 437.324 492.468C437.936 492.468 438.464 492.696 438.896 493.152C439.328 493.596 439.544 494.136 439.544 494.772ZM447.746 492.504C447.158 491.772 446.414 491.412 445.49 491.412C444.566 491.412 443.798 491.736 443.186 492.396C442.574 493.044 442.274 493.836 442.274 494.772C442.274 495.72 442.574 496.524 443.186 497.184C443.798 497.832 444.578 498.156 445.514 498.156C446.438 498.156 447.182 497.808 447.746 497.1V498H448.898V488.916H447.746V492.504ZM447.83 494.772C447.83 495.432 447.626 495.984 447.218 496.428C446.822 496.872 446.294 497.1 445.634 497.1C444.974 497.1 444.446 496.872 444.038 496.428C443.642 495.984 443.438 495.432 443.438 494.772C443.438 494.136 443.642 493.584 444.038 493.14C444.446 492.696 444.974 492.468 445.634 492.468C446.294 492.468 446.822 492.696 447.218 493.14C447.626 493.584 447.83 494.136 447.83 494.772ZM451.874 490.656C452.318 490.656 452.69 490.308 452.69 489.828C452.69 489.384 452.318 489.024 451.874 489.024C451.394 489.024 451.034 489.36 451.034 489.828C451.034 490.308 451.394 490.656 451.874 490.656ZM452.426 491.568H451.274V498H452.426V491.568ZM459.903 492.504C459.303 491.772 458.547 491.412 457.635 491.412C456.711 491.412 455.943 491.724 455.331 492.36C454.719 492.984 454.419 493.776 454.419 494.736C454.419 495.708 454.719 496.512 455.331 497.172C455.943 497.832 456.711 498.156 457.635 498.156C458.571 498.156 459.327 497.796 459.903 497.088V498H461.007V491.568H459.903V492.504ZM459.975 494.772C459.975 495.432 459.771 495.984 459.363 496.428C458.955 496.872 458.427 497.1 457.767 497.1C457.107 497.1 456.579 496.872 456.183 496.428C455.787 495.984 455.583 495.432 455.583 494.784C455.583 494.136 455.787 493.584 456.183 493.14C456.579 492.696 457.107 492.468 457.767 492.468C458.427 492.468 458.955 492.696 459.363 493.14C459.771 493.584 459.975 494.136 459.975 494.772ZM464.548 488.916H463.396V498H464.548V488.916ZM472.962 498.144C473.802 498.144 474.498 497.904 475.05 497.436C475.614 496.968 475.89 496.356 475.89 495.6C475.89 494.736 475.458 494.052 474.606 493.536C474.402 493.416 474.03 493.224 473.49 492.972C472.95 492.72 472.614 492.54 472.458 492.444C471.954 492.144 471.702 491.772 471.702 491.304C471.702 490.584 472.302 490.104 473.106 490.104C473.814 490.104 474.414 490.416 474.894 491.052L475.698 490.284C475.062 489.408 474.186 488.976 473.094 488.976C472.29 488.976 471.642 489.204 471.15 489.672C470.658 490.128 470.418 490.692 470.418 491.376C470.418 492.216 470.862 492.924 471.75 493.488C471.978 493.62 472.302 493.788 472.746 493.992C473.19 494.196 473.502 494.34 473.658 494.424C474.27 494.772 474.582 495.18 474.582 495.66C474.582 496.416 473.958 497.004 472.95 497.004C472.086 497.004 471.306 496.536 470.826 495.588L469.938 496.32C470.514 497.508 471.678 498.144 472.962 498.144ZM481.526 496.728C481.13 496.98 480.746 497.1 480.374 497.1C479.678 497.1 479.33 496.68 479.33 495.828V492.552H481.61V491.568H479.33V489.288H478.202V491.568H477.05V492.552H478.19V495.744C478.19 497.28 478.886 498.156 480.242 498.156C480.926 498.156 481.49 497.976 481.958 497.616L481.526 496.728ZM488.474 492.504C487.874 491.772 487.118 491.412 486.206 491.412C485.282 491.412 484.514 491.724 483.902 492.36C483.29 492.984 482.99 493.776 482.99 494.736C482.99 495.708 483.29 496.512 483.902 497.172C484.514 497.832 485.282 498.156 486.206 498.156C487.142 498.156 487.898 497.796 488.474 497.088V498H489.578V491.568H488.474V492.504ZM488.546 494.772C488.546 495.432 488.342 495.984 487.934 496.428C487.526 496.872 486.998 497.1 486.338 497.1C485.678 497.1 485.15 496.872 484.754 496.428C484.358 495.984 484.154 495.432 484.154 494.784C484.154 494.136 484.358 493.584 484.754 493.14C485.15 492.696 485.678 492.468 486.338 492.468C486.998 492.468 487.526 492.696 487.934 493.14C488.342 493.584 488.546 494.136 488.546 494.772ZM497.666 498L494.546 494.268L497.558 491.568H495.998L493.118 494.172V488.916H491.966V498H493.118V495.552L493.73 495L496.154 498H497.666ZM499.705 490.656C500.149 490.656 500.521 490.308 500.521 489.828C500.521 489.384 500.149 489.024 499.705 489.024C499.225 489.024 498.865 489.36 498.865 489.828C498.865 490.308 499.225 490.656 499.705 490.656ZM500.257 491.568H499.105V498H500.257V491.568ZM503.799 498V494.436C503.799 493.86 503.967 493.392 504.291 493.02C504.627 492.648 505.059 492.468 505.575 492.468C506.547 492.468 507.219 493.176 507.219 494.424V498H508.359V494.1C508.359 493.224 508.119 492.564 507.627 492.096C507.135 491.628 506.535 491.4 505.815 491.4C504.867 491.4 504.183 491.76 503.775 492.48V491.568H502.647V498H503.799ZM515.753 492.408C515.177 491.748 514.445 491.412 513.557 491.412C512.633 491.412 511.853 491.724 511.217 492.36C510.581 492.984 510.269 493.764 510.269 494.7C510.269 495.648 510.581 496.428 511.193 497.064C511.805 497.7 512.573 498.012 513.497 498.012C514.421 498.012 515.177 497.676 515.753 497.004V497.532C515.753 498.168 515.549 498.684 515.129 499.08C514.709 499.488 514.145 499.692 513.437 499.692C512.609 499.692 511.841 499.428 511.145 498.912L510.605 499.824C511.457 500.436 512.405 500.736 513.449 500.736C514.493 500.736 515.333 500.424 515.957 499.812C516.581 499.2 516.893 498.384 516.893 497.34V491.568H515.753V492.408ZM512.057 496.332C511.637 495.9 511.433 495.36 511.433 494.712C511.433 494.064 511.637 493.524 512.057 493.104C512.477 492.672 512.993 492.456 513.629 492.456C514.265 492.456 514.781 492.672 515.201 493.104C515.621 493.524 515.825 494.064 515.825 494.712C515.825 495.36 515.621 495.9 515.201 496.332C514.781 496.764 514.265 496.98 513.629 496.98C512.993 496.98 512.477 496.764 512.057 496.332Z" fill="#627B95"/>
<path d="M637.456 363.645L631.132 369.045L631.132 369.585L640 369.585L640 368.397L633.712 368.397L640 363.081L640 362.457L631.132 362.457L631.132 363.645L637.456 363.645ZM636.664 353.932C635.668 353.932 634.876 354.22 634.288 354.808C633.7 355.384 633.412 356.128 633.412 357.04C633.412 358 633.724 358.78 634.36 359.392C634.996 359.992 635.788 360.292 636.76 360.292C638.428 360.292 640.144 359.284 640.144 356.86C640.144 355.792 639.736 354.736 639.244 354.1L638.368 354.592C638.8 355.18 639.088 356.068 639.088 356.836C639.088 358.18 638.344 358.9 637.252 359.092L637.252 353.968C636.94 353.944 636.748 353.932 636.664 353.932ZM636.256 359.092C635.188 358.9 634.432 358.096 634.432 357.04C634.432 355.984 635.14 355.18 636.256 355.12L636.256 359.092ZM639.988 349.737L635.176 347.997L639.988 346.221L639.988 345.261L633.568 343.113L633.568 344.313L638.392 345.777L633.568 347.601L633.568 348.405L638.392 350.157L633.568 351.681L633.568 352.893L639.988 350.685L639.988 349.737ZM638.728 334.325C638.98 334.721 639.1 335.105 639.1 335.477C639.1 336.173 638.68 336.521 637.828 336.521L634.552 336.521L634.552 334.241L633.568 334.241L633.568 336.521L631.288 336.521L631.288 337.649L633.568 337.649L633.568 338.801L634.552 338.801L634.552 337.661L637.744 337.661C639.28 337.661 640.156 336.965 640.156 335.609C640.156 334.925 639.976 334.361 639.616 333.893L638.728 334.325ZM640.156 329.478C640.156 328.506 639.832 327.702 639.184 327.066C638.524 326.43 637.72 326.106 636.772 326.106C635.836 326.106 635.044 326.43 634.384 327.066C633.724 327.702 633.4 328.506 633.4 329.478C633.4 330.462 633.724 331.278 634.384 331.914C635.032 332.55 635.824 332.862 636.772 332.862C637.72 332.862 638.524 332.55 639.184 331.914C639.832 331.278 640.156 330.462 640.156 329.478ZM636.772 327.258C637.408 327.258 637.96 327.474 638.416 327.906C638.872 328.338 639.1 328.866 639.1 329.478C639.1 330.09 638.872 330.618 638.416 331.05C637.96 331.482 637.408 331.698 636.772 331.698C636.136 331.698 635.596 331.482 635.152 331.05C634.696 330.618 634.468 330.09 634.468 329.478C634.468 328.866 634.696 328.338 635.152 327.906C635.596 327.474 636.136 327.258 636.772 327.258ZM640 318.431L636.268 321.551L633.568 318.539L633.568 320.099L636.172 322.979L630.916 322.979L630.916 324.131L640 324.131L640 322.979L637.552 322.979L637 322.367L640 319.943L640 318.431ZM636.664 311.403C635.668 311.403 634.876 311.691 634.288 312.279C633.7 312.855 633.412 313.599 633.412 314.511C633.412 315.471 633.724 316.251 634.36 316.863C634.996 317.463 635.788 317.763 636.76 317.763C638.428 317.763 640.144 316.755 640.144 314.331C640.144 313.263 639.736 312.207 639.244 311.571L638.368 312.063C638.8 312.651 639.088 313.539 639.088 314.307C639.088 315.651 638.344 316.371 637.252 316.563L637.252 311.439C636.94 311.415 636.748 311.403 636.664 311.403ZM636.256 316.563C635.188 316.371 634.432 315.567 634.432 314.511C634.432 313.455 635.14 312.651 636.256 312.591L636.256 316.563ZM640 308.291L636.436 308.291C635.86 308.291 635.392 308.123 635.02 307.799C634.648 307.463 634.468 307.031 634.468 306.515C634.468 305.543 635.176 304.871 636.424 304.871L640 304.871L640 303.731L636.1 303.731C635.224 303.731 634.564 303.971 634.096 304.463C633.628 304.955 633.4 305.555 633.4 306.275C633.4 307.223 633.76 307.907 634.48 308.315L633.568 308.315L633.568 309.443L640 309.443L640 308.291ZM640.144 299.625C640.144 298.941 639.952 298.389 639.58 297.957C639.208 297.525 638.74 297.309 638.188 297.309C637.48 297.309 636.94 297.669 636.568 298.401C636.46 298.593 636.328 298.881 636.172 299.265L635.86 299.973C635.692 300.333 635.44 300.513 635.104 300.513C634.672 300.513 634.324 300.165 634.324 299.589C634.324 299.013 634.576 298.557 635.068 298.209L634.372 297.477C633.7 297.909 633.352 298.701 633.352 299.517C633.352 300.153 633.52 300.657 633.868 301.041C634.204 301.425 634.636 301.617 635.152 301.617C635.836 301.617 636.352 301.293 636.712 300.633C636.784 300.501 636.904 300.237 637.072 299.841C637.24 299.445 637.36 299.169 637.432 299.037C637.636 298.641 637.912 298.449 638.248 298.449C638.74 298.449 639.136 298.905 639.136 299.589C639.136 300.177 638.8 300.813 638.116 301.185L638.752 302.013C639.676 301.521 640.144 300.585 640.144 299.625ZM657 365.264C657 363.956 656.604 362.936 655.812 362.192C655.02 361.436 653.94 361.064 652.584 361.064C651.216 361.064 650.136 361.436 649.332 362.168C648.528 362.9 648.132 363.884 648.132 365.144L648.132 368.444L657 368.444L657 365.264ZM649.272 367.244L649.272 365.216C649.272 364.304 649.584 363.596 650.196 363.08C650.808 362.564 651.588 362.312 652.548 362.312C653.52 362.312 654.312 362.564 654.936 363.08C655.548 363.596 655.86 364.304 655.86 365.216L655.86 367.244L649.272 367.244ZM649.656 358.378C649.656 357.934 649.308 357.562 648.828 357.562C648.384 357.562 648.024 357.934 648.024 358.378C648.024 358.858 648.36 359.218 648.828 359.218C649.308 359.218 649.656 358.858 649.656 358.378ZM650.568 357.826L650.568 358.978L657 358.978L657 357.826L650.568 357.826ZM657.144 353.637C657.144 352.953 656.952 352.401 656.58 351.969C656.208 351.537 655.74 351.321 655.188 351.321C654.48 351.321 653.94 351.681 653.568 352.413C653.46 352.605 653.328 352.893 653.172 353.277L652.86 353.985C652.692 354.345 652.44 354.525 652.104 354.525C651.672 354.525 651.324 354.177 651.324 353.601C651.324 353.025 651.576 352.569 652.068 352.221L651.372 351.489C650.7 351.921 650.352 352.713 650.352 353.529C650.352 354.165 650.52 354.669 650.868 355.053C651.204 355.437 651.636 355.629 652.152 355.629C652.836 355.629 653.352 355.305 653.712 354.645C653.784 354.513 653.904 354.249 654.072 353.853C654.24 353.457 654.36 353.181 654.432 353.049C654.636 352.653 654.912 352.461 655.248 352.461C655.74 352.461 656.136 352.917 656.136 353.601C656.136 354.189 655.8 354.825 655.116 355.197L655.752 356.025C656.676 355.533 657.144 354.597 657.144 353.637ZM655.728 345.678C655.98 346.074 656.1 346.458 656.1 346.83C656.1 347.526 655.68 347.874 654.828 347.874L651.552 347.874L651.552 345.594L650.568 345.594L650.568 347.874L648.288 347.874L648.288 349.002L650.568 349.002L650.568 350.154L651.552 350.154L651.552 349.014L654.744 349.014C656.28 349.014 657.156 348.318 657.156 346.962C657.156 346.278 656.976 345.714 656.616 345.246L655.728 345.678ZM657 342.573L653.592 342.573C652.212 342.573 651.504 341.829 651.504 340.809C651.504 340.593 651.54 340.365 651.612 340.137L650.496 340.029C650.436 340.281 650.4 340.533 650.4 340.785C650.4 341.637 650.772 342.261 651.516 342.633L650.568 342.633L650.568 343.725L657 343.725L657 342.573ZM649.656 337.861C649.656 337.417 649.308 337.045 648.828 337.045C648.384 337.045 648.024 337.417 648.024 337.861C648.024 338.341 648.36 338.701 648.828 338.701C649.308 338.701 649.656 338.341 649.656 337.861ZM650.568 337.309L650.568 338.461L657 338.461L657 337.309L650.568 337.309ZM650.412 331.499C650.412 332.423 650.784 333.179 651.54 333.767L647.916 333.767L647.916 334.919L657 334.919L657 333.767L656.064 333.767C656.796 333.191 657.156 332.435 657.156 331.511C657.156 330.587 656.832 329.831 656.184 329.219C655.524 328.607 654.732 328.295 653.784 328.295C652.836 328.295 652.044 328.607 651.396 329.219C650.736 329.831 650.412 330.587 650.412 331.499ZM656.076 331.643C656.076 332.303 655.86 332.831 655.416 333.227C654.972 333.623 654.432 333.815 653.772 333.815C653.136 333.815 652.596 333.623 652.152 333.227C651.708 332.831 651.492 332.303 651.492 331.643C651.492 330.995 651.708 330.467 652.152 330.071C652.596 329.663 653.136 329.459 653.772 329.459C654.42 329.459 654.972 329.663 655.416 330.071C655.86 330.467 656.076 330.995 656.076 331.643ZM657.156 323.628C657.156 321.912 656.124 320.868 654.408 320.868L650.568 320.868L650.568 322.008L654.372 322.008C655.428 322.008 656.088 322.608 656.088 323.628C656.088 324.636 655.428 325.236 654.372 325.236L650.568 325.236L650.568 326.388L654.408 326.388C656.088 326.388 657.156 325.308 657.156 323.628ZM655.728 314.799C655.98 315.195 656.1 315.579 656.1 315.951C656.1 316.647 655.68 316.995 654.828 316.995L651.552 316.995L651.552 314.715L650.568 314.715L650.568 316.995L648.288 316.995L648.288 318.123L650.568 318.123L650.568 319.275L651.552 319.275L651.552 318.135L654.744 318.135C656.28 318.135 657.156 317.439 657.156 316.083C657.156 315.399 656.976 314.835 656.616 314.367L655.728 314.799ZM649.656 312.246C649.656 311.802 649.308 311.43 648.828 311.43C648.384 311.43 648.024 311.802 648.024 312.246C648.024 312.726 648.36 313.086 648.828 313.086C649.308 313.086 649.656 312.726 649.656 312.246ZM650.568 311.694L650.568 312.846L657 312.846L657 311.694L650.568 311.694ZM657.156 306.317C657.156 305.345 656.832 304.541 656.184 303.905C655.524 303.269 654.72 302.945 653.772 302.945C652.836 302.945 652.044 303.269 651.384 303.905C650.724 304.541 650.4 305.345 650.4 306.317C650.4 307.301 650.724 308.117 651.384 308.753C652.032 309.389 652.824 309.701 653.772 309.701C654.72 309.701 655.524 309.389 656.184 308.753C656.832 308.117 657.156 307.301 657.156 306.317ZM653.772 304.097C654.408 304.097 654.96 304.313 655.416 304.745C655.872 305.177 656.1 305.705 656.1 306.317C656.1 306.929 655.872 307.457 655.416 307.889C654.96 308.321 654.408 308.537 653.772 308.537C653.136 308.537 652.596 308.321 652.152 307.889C651.696 307.457 651.468 306.929 651.468 306.317C651.468 305.705 651.696 305.177 652.152 304.745C652.596 304.313 653.136 304.097 653.772 304.097ZM657 299.818L653.436 299.818C652.86 299.818 652.392 299.65 652.02 299.326C651.648 298.99 651.468 298.558 651.468 298.042C651.468 297.07 652.176 296.398 653.424 296.398L657 296.398L657 295.258L653.1 295.258C652.224 295.258 651.564 295.498 651.096 295.99C650.628 296.482 650.4 297.082 650.4 297.802C650.4 298.75 650.76 299.434 651.48 299.842L650.568 299.842L650.568 300.97L657 300.97L657 299.818Z" fill="#627B95"/>
<path d="M562.858 353H564.058V345.296H566.686V344.132H560.23V345.296H562.858V353ZM570.374 353.156C571.346 353.156 572.15 352.832 572.786 352.184C573.422 351.524 573.746 350.72 573.746 349.772C573.746 348.836 573.422 348.044 572.786 347.384C572.15 346.724 571.346 346.4 570.374 346.4C569.39 346.4 568.574 346.724 567.938 347.384C567.302 348.032 566.99 348.824 566.99 349.772C566.99 350.72 567.302 351.524 567.938 352.184C568.574 352.832 569.39 353.156 570.374 353.156ZM572.594 349.772C572.594 350.408 572.378 350.96 571.946 351.416C571.514 351.872 570.986 352.1 570.374 352.1C569.762 352.1 569.234 351.872 568.802 351.416C568.37 350.96 568.154 350.408 568.154 349.772C568.154 349.136 568.37 348.596 568.802 348.152C569.234 347.696 569.762 347.468 570.374 347.468C570.986 347.468 571.514 347.696 571.946 348.152C572.378 348.596 572.594 349.136 572.594 349.772ZM581.42 353L578.3 349.268L581.312 346.568H579.752L576.872 349.172V343.916H575.72V353H576.872V350.552L577.484 350L579.908 353H581.42ZM588.448 349.664C588.448 348.668 588.16 347.876 587.572 347.288C586.996 346.7 586.252 346.412 585.34 346.412C584.38 346.412 583.6 346.724 582.988 347.36C582.388 347.996 582.088 348.788 582.088 349.76C582.088 351.428 583.096 353.144 585.52 353.144C586.588 353.144 587.644 352.736 588.28 352.244L587.788 351.368C587.2 351.8 586.312 352.088 585.544 352.088C584.2 352.088 583.48 351.344 583.288 350.252H588.412C588.436 349.94 588.448 349.748 588.448 349.664ZM583.288 349.256C583.48 348.188 584.284 347.432 585.34 347.432C586.396 347.432 587.2 348.14 587.26 349.256H583.288ZM591.56 353V349.436C591.56 348.86 591.728 348.392 592.052 348.02C592.388 347.648 592.82 347.468 593.336 347.468C594.308 347.468 594.98 348.176 594.98 349.424V353H596.12V349.1C596.12 348.224 595.88 347.564 595.388 347.096C594.896 346.628 594.296 346.4 593.576 346.4C592.628 346.4 591.944 346.76 591.536 347.48V346.568H590.408V353H591.56Z" fill="#4264F2"/>
<path d="M601.072 205H601.872V199.864H603.624V199.088H599.32V199.864H601.072V205ZM606.082 205.104C606.73 205.104 607.266 204.888 607.69 204.456C608.114 204.016 608.33 203.48 608.33 202.848C608.33 202.224 608.114 201.696 607.69 201.256C607.266 200.816 606.73 200.6 606.082 200.6C605.426 200.6 604.882 200.816 604.458 201.256C604.034 201.688 603.826 202.216 603.826 202.848C603.826 203.48 604.034 204.016 604.458 204.456C604.882 204.888 605.426 205.104 606.082 205.104ZM607.562 202.848C607.562 203.272 607.418 203.64 607.13 203.944C606.842 204.248 606.49 204.4 606.082 204.4C605.674 204.4 605.322 204.248 605.034 203.944C604.746 203.64 604.602 203.272 604.602 202.848C604.602 202.424 604.746 202.064 605.034 201.768C605.322 201.464 605.674 201.312 606.082 201.312C606.49 201.312 606.842 201.464 607.13 201.768C607.418 202.064 607.562 202.424 607.562 202.848ZM613.447 205L611.367 202.512L613.375 200.712H612.335L610.415 202.448V198.944H609.647V205H610.415V203.368L610.823 203L612.439 205H613.447ZM618.132 202.776C618.132 202.112 617.94 201.584 617.548 201.192C617.164 200.8 616.668 200.608 616.06 200.608C615.42 200.608 614.9 200.816 614.492 201.24C614.092 201.664 613.892 202.192 613.892 202.84C613.892 203.952 614.564 205.096 616.18 205.096C616.892 205.096 617.596 204.824 618.02 204.496L617.692 203.912C617.3 204.2 616.708 204.392 616.196 204.392C615.3 204.392 614.82 203.896 614.692 203.168H618.108C618.124 202.96 618.132 202.832 618.132 202.776ZM614.692 202.504C614.82 201.792 615.356 201.288 616.06 201.288C616.764 201.288 617.3 201.76 617.34 202.504H614.692ZM620.207 205V202.624C620.207 202.24 620.319 201.928 620.535 201.68C620.759 201.432 621.047 201.312 621.391 201.312C622.039 201.312 622.487 201.784 622.487 202.616V205H623.247V202.4C623.247 201.816 623.087 201.376 622.759 201.064C622.431 200.752 622.031 200.6 621.551 200.6C620.919 200.6 620.463 200.84 620.191 201.32V200.712H619.439V205H620.207Z" fill="#4264F2"/>
<path d="M233.132 373.752C233.132 372.12 232.364 370.692 231.212 369.864L230.48 370.728C231.404 371.448 231.98 372.504 231.98 373.704C231.98 374.664 231.668 375.468 231.032 376.116C230.396 376.752 229.592 377.076 228.608 377.076C227.612 377.076 226.784 376.752 226.124 376.092C225.464 375.432 225.14 374.64 225.14 373.692C225.14 372.504 225.644 371.532 226.664 370.776L225.92 369.888C225.332 370.272 224.864 370.8 224.516 371.484C224.156 372.168 223.976 372.912 223.976 373.716C223.976 374.988 224.408 376.068 225.284 376.968C226.148 377.868 227.252 378.312 228.596 378.312C229.928 378.312 231.008 377.868 231.86 376.992C232.712 376.104 233.132 375.024 233.132 373.752ZM233.156 365.083C233.156 364.111 232.832 363.307 232.184 362.671C231.524 362.035 230.72 361.711 229.772 361.711C228.836 361.711 228.044 362.035 227.384 362.671C226.724 363.307 226.4 364.111 226.4 365.083C226.4 366.067 226.724 366.883 227.384 367.519C228.032 368.155 228.824 368.467 229.772 368.467C230.72 368.467 231.524 368.155 232.184 367.519C232.832 366.883 233.156 366.067 233.156 365.083ZM229.772 362.863C230.408 362.863 230.96 363.079 231.416 363.511C231.872 363.943 232.1 364.471 232.1 365.083C232.1 365.695 231.872 366.223 231.416 366.655C230.96 367.087 230.408 367.303 229.772 367.303C229.136 367.303 228.596 367.087 228.152 366.655C227.696 366.223 227.468 365.695 227.468 365.083C227.468 364.471 227.696 363.943 228.152 363.511C228.596 363.079 229.136 362.863 229.772 362.863ZM226.4 352.309C226.4 353.317 226.868 354.217 227.6 354.649C226.844 354.997 226.4 355.801 226.4 356.665C226.388 357.517 226.808 358.225 227.516 358.609L226.568 358.609L226.568 359.737L233 359.737L233 358.585L229.4 358.585C228.236 358.585 227.468 357.865 227.468 356.857C227.468 355.897 228.176 355.297 229.376 355.297L233 355.297L233 354.157L229.376 354.157C228.236 354.157 227.468 353.449 227.468 352.441C227.468 351.481 228.152 350.893 229.352 350.893L233 350.893L233 349.741L229.172 349.741C228.32 349.741 227.648 349.969 227.156 350.437C226.652 350.905 226.4 351.529 226.4 352.309ZM226.4 340.025C226.4 341.033 226.868 341.933 227.6 342.365C226.844 342.713 226.4 343.517 226.4 344.381C226.388 345.233 226.808 345.941 227.516 346.325L226.568 346.325L226.568 347.453L233 347.453L233 346.301L229.4 346.301C228.236 346.301 227.468 345.581 227.468 344.573C227.468 343.613 228.176 343.013 229.376 343.013L233 343.013L233 341.873L229.376 341.873C228.236 341.873 227.468 341.165 227.468 340.157C227.468 339.197 228.152 338.609 229.352 338.609L233 338.609L233 337.457L229.172 337.457C228.32 337.457 227.648 337.685 227.156 338.153C226.652 338.621 226.4 339.245 226.4 340.025ZM225.656 334.57C225.656 334.126 225.308 333.754 224.828 333.754C224.384 333.754 224.024 334.126 224.024 334.57C224.024 335.05 224.36 335.41 224.828 335.41C225.308 335.41 225.656 335.05 225.656 334.57ZM226.568 334.018L226.568 335.17L233 335.17L233 334.018L226.568 334.018ZM233.144 329.828C233.144 329.144 232.952 328.592 232.58 328.16C232.208 327.728 231.74 327.512 231.188 327.512C230.48 327.512 229.94 327.872 229.568 328.604C229.46 328.796 229.328 329.084 229.172 329.468L228.86 330.176C228.692 330.536 228.44 330.716 228.104 330.716C227.672 330.716 227.324 330.368 227.324 329.792C227.324 329.216 227.576 328.76 228.068 328.412L227.372 327.68C226.7 328.112 226.352 328.904 226.352 329.72C226.352 330.356 226.52 330.86 226.868 331.244C227.204 331.628 227.636 331.82 228.152 331.82C228.836 331.82 229.352 331.496 229.712 330.836C229.784 330.704 229.904 330.44 230.072 330.044C230.24 329.648 230.36 329.372 230.432 329.24C230.636 328.844 230.912 328.652 231.248 328.652C231.74 328.652 232.136 329.108 232.136 329.792C232.136 330.38 231.8 331.016 231.116 331.388L231.752 332.216C232.676 331.724 233.144 330.788 233.144 329.828ZM233.144 323.791C233.144 323.107 232.952 322.555 232.58 322.123C232.208 321.691 231.74 321.475 231.188 321.475C230.48 321.475 229.94 321.835 229.568 322.567C229.46 322.759 229.328 323.047 229.172 323.431L228.86 324.139C228.692 324.499 228.44 324.679 228.104 324.679C227.672 324.679 227.324 324.331 227.324 323.755C227.324 323.179 227.576 322.723 228.068 322.375L227.372 321.643C226.7 322.075 226.352 322.867 226.352 323.683C226.352 324.319 226.52 324.823 226.868 325.207C227.204 325.591 227.636 325.783 228.152 325.783C228.836 325.783 229.352 325.459 229.712 324.799C229.784 324.667 229.904 324.403 230.072 324.007C230.24 323.611 230.36 323.335 230.432 323.203C230.636 322.807 230.912 322.615 231.248 322.615C231.74 322.615 232.136 323.071 232.136 323.755C232.136 324.343 231.8 324.979 231.116 325.351L231.752 326.179C232.676 325.687 233.144 324.751 233.144 323.791ZM225.656 318.942C225.656 318.498 225.308 318.126 224.828 318.126C224.384 318.126 224.024 318.498 224.024 318.942C224.024 319.422 224.36 319.782 224.828 319.782C225.308 319.782 225.656 319.422 225.656 318.942ZM226.568 318.39L226.568 319.542L233 319.542L233 318.39L226.568 318.39ZM233.156 313.012C233.156 312.04 232.832 311.236 232.184 310.6C231.524 309.964 230.72 309.64 229.772 309.64C228.836 309.64 228.044 309.964 227.384 310.6C226.724 311.236 226.4 312.04 226.4 313.012C226.4 313.996 226.724 314.812 227.384 315.448C228.032 316.084 228.824 316.396 229.772 316.396C230.72 316.396 231.524 316.084 232.184 315.448C232.832 314.812 233.156 313.996 233.156 313.012ZM229.772 310.792C230.408 310.792 230.96 311.008 231.416 311.44C231.872 311.872 232.1 312.4 232.1 313.012C232.1 313.624 231.872 314.152 231.416 314.584C230.96 315.016 230.408 315.232 229.772 315.232C229.136 315.232 228.596 315.016 228.152 314.584C227.696 314.152 227.468 313.624 227.468 313.012C227.468 312.4 227.696 311.872 228.152 311.44C228.596 311.008 229.136 310.792 229.772 310.792ZM233 306.514L229.436 306.514C228.86 306.514 228.392 306.346 228.02 306.022C227.648 305.686 227.468 305.254 227.468 304.738C227.468 303.766 228.176 303.094 229.424 303.094L233 303.094L233 301.954L229.1 301.954C228.224 301.954 227.564 302.194 227.096 302.686C226.628 303.178 226.4 303.778 226.4 304.498C226.4 305.446 226.76 306.13 227.48 306.538L226.568 306.538L226.568 307.666L233 307.666L233 306.514Z" fill="#627B95"/>
<g filter="url(#filter7_d)">
<rect x="80" y="60" width="240" height="215" rx="16" fill="white"/>
</g>
<path opacity="0.6" fill-rule="evenodd" clip-rule="evenodd" d="M187.074 105.382C186.501 105.703 186 105.453 186 104.775V101.993L196.421 96V98.7824C196.421 99.4602 195.956 100.281 195.347 100.602L187.074 105.382Z" fill="#298DFF"/>
<path opacity="0.6" fill-rule="evenodd" clip-rule="evenodd" d="M202.328 124.609C202.901 124.288 202.901 123.717 202.328 123.396L194.02 118.616C193.447 118.295 192.48 118.295 191.907 118.616L189.508 120.007L199.929 126L202.328 124.609Z" fill="#344AE6"/>
<path opacity="0.6" fill-rule="evenodd" clip-rule="evenodd" d="M211.391 100.602C210.818 100.281 210.316 100.53 210.316 101.208V110.768C210.316 111.446 210.782 112.266 211.391 112.587L213.79 113.979V101.993L211.391 100.602Z" fill="#4264F2"/>
<path fill-rule="evenodd" clip-rule="evenodd" d="M186 101.993L196.421 96L205.804 101.386C206.377 101.707 206.377 102.278 205.804 102.599L197.496 107.379C196.923 107.7 195.956 107.7 195.383 107.379L186 101.993Z" fill="#298DFF"/>
<path fill-rule="evenodd" clip-rule="evenodd" d="M189.473 109.198C189.473 108.521 189.938 108.271 190.547 108.592L198.855 113.372C199.428 113.693 199.93 114.513 199.93 115.191V125.964L189.473 119.971V109.198Z" fill="#344AE6"/>
<path fill-rule="evenodd" clip-rule="evenodd" d="M204.442 119.365C203.869 119.686 203.367 119.437 203.367 118.759V109.199C203.367 108.521 203.833 107.701 204.442 107.38L213.824 101.993V113.979L204.442 119.365Z" fill="#4264F2"/>
<path d="M189.531 152.805H186.38L182.297 147.205L180.543 149.309V152.805H178V139H180.543V145.778L186.058 139H189.137L183.981 145.314L189.531 152.805Z" fill="#060817"/>
<path d="M191.355 152.805V139H193.934V152.805H191.355Z" fill="#060817"/>
<path d="M207.939 152.805H204.895L201.816 147.633H200.097V152.805H197.59V139H202.747C204.251 139 205.397 139.428 206.185 140.249C206.973 141.069 207.366 142.103 207.366 143.316C207.366 144.244 207.116 145.064 206.614 145.813C206.113 146.527 205.397 147.062 204.466 147.347L207.939 152.805ZM202.711 141.39H200.097V145.314H202.424C203.176 145.314 203.749 145.136 204.143 144.743C204.537 144.386 204.716 143.887 204.716 143.316C204.716 142.746 204.537 142.282 204.179 141.925C203.821 141.568 203.356 141.39 202.711 141.39Z" fill="#060817"/>
<path d="M221.692 152.805H218.971L217.825 149.666H212.918L211.772 152.805H209.051L214.423 139H216.392L221.692 152.805ZM217.108 147.347L215.389 142.639L213.706 147.347H217.108Z" fill="#060817"/>
<g filter="url(#filter8_d)">
<rect x="109" y="215" width="38" height="20" rx="4" fill="#344AE6" fill-opacity="0.2"/>
<path d="M124.484 229L121.004 224.164L124.256 220.132H122.108L118.748 224.32V220.132H116.972V229H118.748V226.792L119.84 225.484L122.3 229H124.484ZM131.34 229V227.344H127.116V225.352H131.028V223.696H127.116V221.788H131.34V220.132H125.328V229H131.34ZM134.12 229L135.992 225.892L137.84 229H139.892L137.108 224.512L139.904 220.132H137.816L136.004 223.168L134.276 220.132H132.224L134.876 224.512L132.032 229H134.12Z" fill="#4264F2"/>
</g>
<g filter="url(#filter9_d)">
<rect x="157" y="215" width="38" height="20" rx="4" fill="#344AE6" fill-opacity="0.2"/>
<path d="M170.074 224.14C170.794 223.888 171.286 223.12 171.286 222.34C171.286 221.752 171.058 221.236 170.614 220.792C170.17 220.348 169.558 220.132 168.766 220.132H164.902V229H168.946C169.798 229 170.482 228.748 170.986 228.256C171.502 227.764 171.754 227.152 171.754 226.42C171.754 225.328 171.166 224.416 170.074 224.14ZM168.466 221.68C169.126 221.68 169.522 222.1 169.522 222.616C169.522 223.144 169.126 223.612 168.394 223.612H166.654V221.68H168.466ZM166.654 227.44V225.1H168.598C169.462 225.1 169.918 225.64 169.918 226.276C169.918 226.9 169.45 227.44 168.598 227.44H166.654ZM174.739 229H176.539V221.848H179.071V220.132H172.207V221.848H174.739V229ZM183.946 229.132C185.59 229.132 187.042 228.364 187.858 227.248L186.634 226.132C185.95 226.996 185.086 227.428 184.054 227.428C183.25 227.428 182.578 227.164 182.038 226.624C181.498 226.084 181.234 225.412 181.234 224.596C181.234 223.756 181.51 223.06 182.05 222.52C182.59 221.968 183.262 221.692 184.066 221.692C185.062 221.692 185.902 222.124 186.598 222.976L187.786 221.812C187.006 220.708 185.566 219.976 183.97 219.976C182.698 219.976 181.618 220.408 180.718 221.284C179.83 222.148 179.386 223.252 179.386 224.596C179.386 225.928 179.818 227.02 180.694 227.872C181.57 228.712 182.662 229.132 183.946 229.132Z" fill="#4264F2"/>
</g>
<g filter="url(#filter10_d)">
<rect x="205" y="215" width="38" height="20" rx="4" fill="#344AE6" fill-opacity="0.2"/>
<path d="M218.961 229V227.344H214.737V225.352H218.649V223.696H214.737V221.788H218.961V220.132H212.949V229H218.961ZM222.305 229H224.105V221.848H226.637V220.132H219.773V221.848H222.305V229ZM229.561 229V225.388H233.281V229H235.057V220.132H233.281V223.672H229.561V220.132H227.785V229H229.561Z" fill="#4264F2"/>
</g>
<g filter="url(#filter11_d)">
<rect x="253" y="215" width="38" height="20" rx="4" fill="#344AE6" fill-opacity="0.2"/>
<path d="M266.492 226.876C267.032 226.876 267.5 226.684 267.884 226.3C268.28 225.916 268.472 225.46 268.472 224.92C268.472 224.38 268.28 223.912 267.884 223.528C267.5 223.132 267.032 222.94 266.492 222.94C265.952 222.94 265.496 223.132 265.112 223.528C264.728 223.912 264.536 224.38 264.536 224.92C264.536 225.46 264.728 225.916 265.112 226.3C265.496 226.684 265.952 226.876 266.492 226.876ZM271.988 226.876C272.528 226.876 272.996 226.684 273.38 226.3C273.776 225.916 273.968 225.46 273.968 224.92C273.968 224.38 273.776 223.912 273.38 223.528C272.996 223.132 272.528 222.94 271.988 222.94C271.448 222.94 270.992 223.132 270.608 223.528C270.224 223.912 270.032 224.38 270.032 224.92C270.032 225.46 270.224 225.916 270.608 226.3C270.992 226.684 271.448 226.876 271.988 226.876ZM277.484 226.876C278.024 226.876 278.492 226.684 278.876 226.3C279.272 225.916 279.464 225.46 279.464 224.92C279.464 224.38 279.272 223.912 278.876 223.528C278.492 223.132 278.024 222.94 277.484 222.94C276.944 222.94 276.488 223.132 276.104 223.528C275.72 223.912 275.528 224.38 275.528 224.92C275.528 225.46 275.72 225.916 276.104 226.3C276.488 226.684 276.944 226.876 277.484 226.876Z" fill="#4264F2"/>
</g>
<path d="M118.336 191.14C119.056 190.888 119.548 190.12 119.548 189.34C119.548 188.752 119.32 188.236 118.876 187.792C118.432 187.348 117.82 187.132 117.028 187.132H113.164V196H117.208C118.06 196 118.744 195.748 119.248 195.256C119.764 194.764 120.016 194.152 120.016 193.42C120.016 192.328 119.428 191.416 118.336 191.14ZM116.728 188.68C117.388 188.68 117.784 189.1 117.784 189.616C117.784 190.144 117.388 190.612 116.656 190.612H114.916V188.68H116.728ZM114.916 194.44V192.1H116.86C117.724 192.1 118.18 192.64 118.18 193.276C118.18 193.9 117.712 194.44 116.86 194.44H114.916ZM123.548 186.88H121.856V196H123.548V186.88ZM125.319 192.724C125.319 193.696 125.643 194.512 126.303 195.172C126.963 195.832 127.803 196.168 128.823 196.168C129.843 196.168 130.683 195.832 131.343 195.172C132.003 194.512 132.327 193.696 132.327 192.724C132.327 191.764 132.003 190.948 131.343 190.288C130.683 189.616 129.843 189.28 128.823 189.28C127.803 189.28 126.963 189.616 126.303 190.288C125.643 190.948 125.319 191.764 125.319 192.724ZM127.527 194.056C127.179 193.684 127.011 193.24 127.011 192.724C127.011 192.208 127.179 191.764 127.527 191.404C127.875 191.044 128.307 190.864 128.823 190.864C129.339 190.864 129.759 191.044 130.107 191.404C130.455 191.764 130.635 192.208 130.635 192.724C130.635 193.24 130.455 193.684 130.107 194.056C129.759 194.416 129.339 194.596 128.823 194.596C128.307 194.596 127.875 194.416 127.527 194.056ZM137.239 196.144C138.583 196.144 139.747 195.472 140.311 194.416L138.943 193.612C138.655 194.188 137.959 194.596 137.275 194.596C136.759 194.596 136.315 194.416 135.967 194.068C135.619 193.708 135.451 193.264 135.451 192.724C135.451 192.196 135.631 191.752 135.979 191.404C136.327 191.044 136.771 190.864 137.311 190.864C138.019 190.864 138.583 191.2 138.979 191.86L140.335 191.116C139.795 189.952 138.619 189.292 137.287 189.292C136.255 189.292 135.415 189.616 134.755 190.264C134.095 190.9 133.771 191.728 133.771 192.724C133.771 193.72 134.095 194.548 134.743 195.184C135.391 195.82 136.219 196.144 137.239 196.144ZM148.321 196L145.237 192.136L148.153 189.46H146.017L143.641 191.692V186.88H141.949V196H143.641V193.6L144.085 193.204L146.245 196H148.321ZM162.824 194.044C163.1 193.72 163.424 193.3 163.772 192.784L162.728 191.908C162.428 192.364 162.116 192.772 161.804 193.132L160.256 191.752L159.8 191.344C160.148 191.164 160.412 191.02 160.604 190.912C160.796 190.792 161.012 190.636 161.252 190.444C161.732 190.048 161.948 189.568 161.948 188.956C161.948 188.404 161.732 187.936 161.288 187.564C160.856 187.18 160.328 186.988 159.704 186.988C158.96 186.988 158.348 187.216 157.88 187.684C157.412 188.152 157.184 188.68 157.184 189.292C157.184 189.892 157.352 190.456 157.7 190.972C156.656 191.632 156.128 192.472 156.128 193.516C156.128 194.248 156.404 194.872 156.968 195.376C157.532 195.868 158.264 196.12 159.152 196.12C160.172 196.12 161.084 195.76 161.888 195.04L163.16 196.192L164.096 195.172L162.824 194.044ZM159.62 188.26C160.088 188.26 160.424 188.596 160.424 189.028C160.424 189.412 160.04 189.76 159.704 189.952L158.924 190.336C158.72 190 158.624 189.664 158.624 189.328C158.624 188.716 159.032 188.26 159.62 188.26ZM159.272 194.692C158.396 194.692 157.808 194.14 157.808 193.384C157.808 192.868 158.072 192.412 158.588 192.028C158.732 192.136 158.96 192.388 159.104 192.508L160.844 194.08C160.34 194.488 159.812 194.692 159.272 194.692ZM171.07 196V192.472H174.706V190.804H171.07V188.812H175.21V187.132H169.294V196H171.07ZM183.057 192.58C183.057 191.56 182.745 190.768 182.133 190.18C181.521 189.592 180.729 189.292 179.781 189.292C178.773 189.292 177.957 189.616 177.321 190.264C176.685 190.912 176.373 191.728 176.373 192.724C176.373 193.672 176.673 194.488 177.285 195.148C177.897 195.808 178.773 196.144 179.925 196.144C181.005 196.144 181.953 195.844 182.781 195.244L182.109 194.056C181.545 194.44 180.705 194.716 179.997 194.716C178.965 194.716 178.329 194.248 178.089 193.324H182.997C183.033 193.06 183.057 192.808 183.057 192.58ZM179.781 190.696C180.645 190.696 181.257 191.212 181.413 192.064H178.089C178.293 191.212 178.929 190.696 179.781 190.696ZM191.169 192.58C191.169 191.56 190.857 190.768 190.245 190.18C189.633 189.592 188.841 189.292 187.893 189.292C186.885 189.292 186.069 189.616 185.433 190.264C184.797 190.912 184.485 191.728 184.485 192.724C184.485 193.672 184.785 194.488 185.397 195.148C186.009 195.808 186.885 196.144 188.037 196.144C189.117 196.144 190.065 195.844 190.893 195.244L190.221 194.056C189.657 194.44 188.817 194.716 188.109 194.716C187.077 194.716 186.441 194.248 186.201 193.324H191.109C191.145 193.06 191.169 192.808 191.169 192.58ZM187.893 190.696C188.757 190.696 189.369 191.212 189.525 192.064H186.201C186.405 191.212 187.041 190.696 187.893 190.696ZM207.059 196L204.911 192.544C206.111 192.112 206.711 191.092 206.711 189.94C206.711 189.148 206.447 188.488 205.931 187.948C205.415 187.408 204.659 187.132 203.675 187.132H200.279V196H202.055V192.772H203.111L204.983 196H207.059ZM203.663 188.776C204.431 188.776 204.887 189.292 204.887 189.964C204.887 190.648 204.431 191.176 203.507 191.176H202.055V188.776H203.663ZM214.897 192.58C214.897 191.56 214.585 190.768 213.973 190.18C213.361 189.592 212.569 189.292 211.621 189.292C210.613 189.292 209.797 189.616 209.161 190.264C208.525 190.912 208.213 191.728 208.213 192.724C208.213 193.672 208.513 194.488 209.125 195.148C209.737 195.808 210.613 196.144 211.765 196.144C212.845 196.144 213.793 195.844 214.621 195.244L213.949 194.056C213.385 194.44 212.545 194.716 211.837 194.716C210.805 194.716 210.169 194.248 209.929 193.324H214.837C214.873 193.06 214.897 192.808 214.897 192.58ZM211.621 190.696C212.485 190.696 213.097 191.212 213.253 192.064H209.929C210.133 191.212 210.769 190.696 211.621 190.696ZM219.474 195.988L220.926 191.896L222.402 195.988H223.878L226.086 189.46H224.31L223.038 193.744L221.514 189.46H220.326L218.85 193.744L217.542 189.46H215.766L217.998 195.988H219.474ZM232.343 190.24C231.767 189.604 231.071 189.292 230.255 189.292C229.331 189.292 228.551 189.616 227.939 190.264C227.327 190.9 227.015 191.716 227.015 192.7C227.015 193.684 227.315 194.512 227.927 195.172C228.539 195.832 229.319 196.156 230.255 196.156C231.083 196.156 231.779 195.856 232.343 195.244V196H233.951V189.46H232.343V190.24ZM232.367 192.724C232.367 193.252 232.187 193.696 231.839 194.068C231.491 194.44 231.059 194.62 230.531 194.62C230.003 194.62 229.571 194.44 229.223 194.068C228.875 193.696 228.707 193.252 228.707 192.724C228.707 192.208 228.875 191.764 229.211 191.392C229.559 191.02 229.991 190.84 230.531 190.84C231.059 190.84 231.491 191.02 231.839 191.392C232.187 191.764 232.367 192.208 232.367 192.724ZM237.764 196V192.892C237.764 191.536 238.4 190.912 239.36 190.912C239.6 190.912 239.864 190.96 240.14 191.044L240.284 189.424C240.02 189.328 239.756 189.28 239.492 189.28C238.688 189.28 238.088 189.628 237.692 190.336V189.46H236.072V196H237.764ZM246.384 190.216C245.844 189.604 245.184 189.292 244.392 189.292C243.468 189.292 242.7 189.616 242.076 190.276C241.464 190.936 241.152 191.752 241.152 192.724C241.152 193.708 241.464 194.524 242.076 195.184C242.688 195.832 243.468 196.156 244.392 196.156C245.22 196.156 245.892 195.832 246.42 195.196V196H248.076V186.88H246.384V190.216ZM246.468 192.724C246.468 193.264 246.3 193.708 245.964 194.08C245.628 194.44 245.196 194.62 244.656 194.62C244.116 194.62 243.684 194.44 243.336 194.08C243 193.708 242.832 193.264 242.832 192.724C242.832 192.196 243 191.752 243.336 191.392C243.684 191.02 244.116 190.84 244.656 190.84C245.196 190.84 245.628 191.02 245.964 191.392C246.3 191.752 246.468 192.196 246.468 192.724ZM252.393 196.168C253.173 196.168 253.809 195.976 254.277 195.58C254.757 195.184 254.997 194.68 254.997 194.068C254.997 193.348 254.625 192.796 253.893 192.412C253.713 192.316 253.185 192.1 252.321 191.776C251.937 191.644 251.745 191.452 251.745 191.176C251.745 190.876 252.045 190.624 252.489 190.624C253.029 190.624 253.533 190.84 253.989 191.272L254.829 190.18C254.229 189.556 253.461 189.244 252.537 189.244C251.805 189.244 251.205 189.424 250.761 189.796C250.317 190.168 250.089 190.636 250.089 191.212C250.089 191.98 250.461 192.544 251.217 192.904C251.361 192.976 251.637 193.096 252.057 193.252C252.477 193.408 252.729 193.504 252.837 193.552C253.149 193.696 253.305 193.888 253.305 194.116C253.305 194.488 252.921 194.752 252.405 194.752C251.745 194.752 251.061 194.404 250.593 193.84L249.693 194.908C250.353 195.748 251.253 196.168 252.393 196.168ZM260.543 187.132V196H262.319V192.94H263.687C264.779 192.94 265.595 192.664 266.135 192.124C266.675 191.572 266.951 190.888 266.951 190.06C266.951 189.244 266.687 188.548 266.159 187.984C265.643 187.42 264.863 187.132 263.819 187.132H260.543ZM262.319 191.332V188.776H263.843C264.647 188.776 265.139 189.328 265.139 190.036C265.139 190.756 264.659 191.332 263.747 191.332H262.319ZM268.126 192.724C268.126 193.696 268.45 194.512 269.11 195.172C269.77 195.832 270.61 196.168 271.63 196.168C272.65 196.168 273.49 195.832 274.15 195.172C274.81 194.512 275.134 193.696 275.134 192.724C275.134 191.764 274.81 190.948 274.15 190.288C273.49 189.616 272.65 189.28 271.63 189.28C270.61 189.28 269.77 189.616 269.11 190.288C268.45 190.948 268.126 191.764 268.126 192.724ZM270.334 194.056C269.986 193.684 269.818 193.24 269.818 192.724C269.818 192.208 269.986 191.764 270.334 191.404C270.682 191.044 271.114 190.864 271.63 190.864C272.146 190.864 272.566 191.044 272.914 191.404C273.262 191.764 273.442 192.208 273.442 192.724C273.442 193.24 273.262 193.684 272.914 194.056C272.566 194.416 272.146 194.596 271.63 194.596C271.114 194.596 270.682 194.416 270.334 194.056ZM276.578 192.724C276.578 193.696 276.902 194.512 277.562 195.172C278.222 195.832 279.062 196.168 280.082 196.168C281.102 196.168 281.942 195.832 282.602 195.172C283.262 194.512 283.586 193.696 283.586 192.724C283.586 191.764 283.262 190.948 282.602 190.288C281.942 189.616 281.102 189.28 280.082 189.28C279.062 189.28 278.222 189.616 277.562 190.288C276.902 190.948 276.578 191.764 276.578 192.724ZM278.786 194.056C278.438 193.684 278.27 193.24 278.27 192.724C278.27 192.208 278.438 191.764 278.786 191.404C279.134 191.044 279.566 190.864 280.082 190.864C280.598 190.864 281.018 191.044 281.366 191.404C281.714 191.764 281.894 192.208 281.894 192.724C281.894 193.24 281.714 193.684 281.366 194.056C281.018 194.416 280.598 194.596 280.082 194.596C279.566 194.596 279.134 194.416 278.786 194.056ZM287.069 186.88H285.377V196H287.069V186.88Z" fill="#4264F2"/>
<defs>
<filter id="filter0_d" x="487" y="537" width="118" height="100" filterUnits="userSpaceOnUse" color-interpolation-filters="sRGB">
<feFlood flood-opacity="0" result="BackgroundImageFix"/>
<feColorMatrix in="SourceAlpha" type="matrix" values="0 0 0 0 0 0 0 0 0 0 0 0 0 0 0 0 0 0 127 0"/>
<feOffset dx="6" dy="20"/>
<feGaussianBlur stdDeviation="20"/>
<feColorMatrix type="matrix" values="0 0 0 0 0.0941667 0 0 0 0 0.270179 0 0 0 0 0.470833 0 0 0 0.05 0"/>
<feBlend mode="normal" in2="BackgroundImageFix" result="effect1_dropShadow"/>
<feBlend mode="normal" in="SourceGraphic" in2="effect1_dropShadow" result="shape"/>
</filter>
<filter id="filter1_d" x="535" y="537" width="118" height="100" filterUnits="userSpaceOnUse" color-interpolation-filters="sRGB">
<feFlood flood-opacity="0" result="BackgroundImageFix"/>
<feColorMatrix in="SourceAlpha" type="matrix" values="0 0 0 0 0 0 0 0 0 0 0 0 0 0 0 0 0 0 127 0"/>
<feOffset dx="6" dy="20"/>
<feGaussianBlur stdDeviation="20"/>
<feColorMatrix type="matrix" values="0 0 0 0 0.0941667 0 0 0 0 0.270179 0 0 0 0 0.470833 0 0 0 0.05 0"/>
<feBlend mode="normal" in2="BackgroundImageFix" result="effect1_dropShadow"/>
<feBlend mode="normal" in="SourceGraphic" in2="effect1_dropShadow" result="shape"/>
</filter>
<filter id="filter2_d" x="583" y="537" width="118" height="100" filterUnits="userSpaceOnUse" color-interpolation-filters="sRGB">
<feFlood flood-opacity="0" result="BackgroundImageFix"/>
<feColorMatrix in="SourceAlpha" type="matrix" values="0 0 0 0 0 0 0 0 0 0 0 0 0 0 0 0 0 0 127 0"/>
<feOffset dx="6" dy="20"/>
<feGaussianBlur stdDeviation="20"/>
<feColorMatrix type="matrix" values="0 0 0 0 0.0941667 0 0 0 0 0.270179 0 0 0 0 0.470833 0 0 0 0.05 0"/>
<feBlend mode="normal" in2="BackgroundImageFix" result="effect1_dropShadow"/>
<feBlend mode="normal" in="SourceGraphic" in2="effect1_dropShadow" result="shape"/>
</filter>
<filter id="filter3_d" x="631" y="537" width="118" height="100" filterUnits="userSpaceOnUse" color-interpolation-filters="sRGB">
<feFlood flood-opacity="0" result="BackgroundImageFix"/>
<feColorMatrix in="SourceAlpha" type="matrix" values="0 0 0 0 0 0 0 0 0 0 0 0 0 0 0 0 0 0 127 0"/>
<feOffset dx="6" dy="20"/>
<feGaussianBlur stdDeviation="20"/>
<feColorMatrix type="matrix" values="0 0 0 0 0.0941667 0 0 0 0 0.270179 0 0 0 0 0.470833 0 0 0 0.05 0"/>
<feBlend mode="normal" in2="BackgroundImageFix" result="effect1_dropShadow"/>
<feBlend mode="normal" in="SourceGraphic" in2="effect1_dropShadow" result="shape"/>
</filter>
<filter id="filter4_d" x="116" y="387" width="180" height="180" filterUnits="userSpaceOnUse" color-interpolation-filters="sRGB">
<feFlood flood-opacity="0" result="BackgroundImageFix"/>
<feColorMatrix in="SourceAlpha" type="matrix" values="0 0 0 0 0 0 0 0 0 0 0 0 0 0 0 0 0 0 127 0"/>
<feOffset dx="6" dy="20"/>
<feGaussianBlur stdDeviation="20"/>
<feColorMatrix type="matrix" values="0 0 0 0 0.0941667 0 0 0 0 0.270179 0 0 0 0 0.470833 0 0 0 0.05 0"/>
<feBlend mode="normal" in2="BackgroundImageFix" result="effect1_dropShadow"/>
<feBlend mode="normal" in="SourceGraphic" in2="effect1_dropShadow" result="shape"/>
</filter>
<filter id="filter5_d" x="528" y="98" width="180" height="180" filterUnits="userSpaceOnUse" color-interpolation-filters="sRGB">
<feFlood flood-opacity="0" result="BackgroundImageFix"/>
<feColorMatrix in="SourceAlpha" type="matrix" values="0 0 0 0 0 0 0 0 0 0 0 0 0 0 0 0 0 0 127 0"/>
<feOffset dx="6" dy="20"/>
<feGaussianBlur stdDeviation="20"/>
<feColorMatrix type="matrix" values="0 0 0 0 0.0941667 0 0 0 0 0.270179 0 0 0 0 0.470833 0 0 0 0.05 0"/>
<feBlend mode="normal" in2="BackgroundImageFix" result="effect1_dropShadow"/>
<feBlend mode="normal" in="SourceGraphic" in2="effect1_dropShadow" result="shape"/>
</filter>
<filter id="filter6_d" x="528" y="387" width="180" height="180" filterUnits="userSpaceOnUse" color-interpolation-filters="sRGB">
<feFlood flood-opacity="0" result="BackgroundImageFix"/>
<feColorMatrix in="SourceAlpha" type="matrix" values="0 0 0 0 0 0 0 0 0 0 0 0 0 0 0 0 0 0 127 0"/>
<feOffset dx="6" dy="20"/>
<feGaussianBlur stdDeviation="20"/>
<feColorMatrix type="matrix" values="0 0 0 0 0.0941667 0 0 0 0 0.270179 0 0 0 0 0.470833 0 0 0 0.05 0"/>
<feBlend mode="normal" in2="BackgroundImageFix" result="effect1_dropShadow"/>
<feBlend mode="normal" in="SourceGraphic" in2="effect1_dropShadow" result="shape"/>
</filter>
<filter id="filter7_d" x="46" y="40" width="320" height="295" filterUnits="userSpaceOnUse" color-interpolation-filters="sRGB">
<feFlood flood-opacity="0" result="BackgroundImageFix"/>
<feColorMatrix in="SourceAlpha" type="matrix" values="0 0 0 0 0 0 0 0 0 0 0 0 0 0 0 0 0 0 127 0"/>
<feOffset dx="6" dy="20"/>
<feGaussianBlur stdDeviation="20"/>
<feColorMatrix type="matrix" values="0 0 0 0 0.0941667 0 0 0 0 0.270179 0 0 0 0 0.470833 0 0 0 0.05 0"/>
<feBlend mode="normal" in2="BackgroundImageFix" result="effect1_dropShadow"/>
<feBlend mode="normal" in="SourceGraphic" in2="effect1_dropShadow" result="shape"/>
</filter>
<filter id="filter8_d" x="75" y="195" width="118" height="100" filterUnits="userSpaceOnUse" color-interpolation-filters="sRGB">
<feFlood flood-opacity="0" result="BackgroundImageFix"/>
<feColorMatrix in="SourceAlpha" type="matrix" values="0 0 0 0 0 0 0 0 0 0 0 0 0 0 0 0 0 0 127 0"/>
<feOffset dx="6" dy="20"/>
<feGaussianBlur stdDeviation="20"/>
<feColorMatrix type="matrix" values="0 0 0 0 0.0941667 0 0 0 0 0.270179 0 0 0 0 0.470833 0 0 0 0.05 0"/>
<feBlend mode="normal" in2="BackgroundImageFix" result="effect1_dropShadow"/>
<feBlend mode="normal" in="SourceGraphic" in2="effect1_dropShadow" result="shape"/>
</filter>
<filter id="filter9_d" x="123" y="195" width="118" height="100" filterUnits="userSpaceOnUse" color-interpolation-filters="sRGB">
<feFlood flood-opacity="0" result="BackgroundImageFix"/>
<feColorMatrix in="SourceAlpha" type="matrix" values="0 0 0 0 0 0 0 0 0 0 0 0 0 0 0 0 0 0 127 0"/>
<feOffset dx="6" dy="20"/>
<feGaussianBlur stdDeviation="20"/>
<feColorMatrix type="matrix" values="0 0 0 0 0.0941667 0 0 0 0 0.270179 0 0 0 0 0.470833 0 0 0 0.05 0"/>
<feBlend mode="normal" in2="BackgroundImageFix" result="effect1_dropShadow"/>
<feBlend mode="normal" in="SourceGraphic" in2="effect1_dropShadow" result="shape"/>
</filter>
<filter id="filter10_d" x="171" y="195" width="118" height="100" filterUnits="userSpaceOnUse" color-interpolation-filters="sRGB">
<feFlood flood-opacity="0" result="BackgroundImageFix"/>
<feColorMatrix in="SourceAlpha" type="matrix" values="0 0 0 0 0 0 0 0 0 0 0 0 0 0 0 0 0 0 127 0"/>
<feOffset dx="6" dy="20"/>
<feGaussianBlur stdDeviation="20"/>
<feColorMatrix type="matrix" values="0 0 0 0 0.0941667 0 0 0 0 0.270179 0 0 0 0 0.470833 0 0 0 0.05 0"/>
<feBlend mode="normal" in2="BackgroundImageFix" result="effect1_dropShadow"/>
<feBlend mode="normal" in="SourceGraphic" in2="effect1_dropShadow" result="shape"/>
</filter>
<filter id="filter11_d" x="219" y="195" width="118" height="100" filterUnits="userSpaceOnUse" color-interpolation-filters="sRGB">
<feFlood flood-opacity="0" result="BackgroundImageFix"/>
<feColorMatrix in="SourceAlpha" type="matrix" values="0 0 0 0 0 0 0 0 0 0 0 0 0 0 0 0 0 0 127 0"/>
<feOffset dx="6" dy="20"/>
<feGaussianBlur stdDeviation="20"/>
<feColorMatrix type="matrix" values="0 0 0 0 0.0941667 0 0 0 0 0.270179 0 0 0 0 0.470833 0 0 0 0.05 0"/>
<feBlend mode="normal" in2="BackgroundImageFix" result="effect1_dropShadow"/>
<feBlend mode="normal" in="SourceGraphic" in2="effect1_dropShadow" result="shape"/>
</filter>
<linearGradient id="paint0_linear" x1="200" y1="445" x2="200" y2="469.956" gradientUnits="userSpaceOnUse">
<stop stop-color="#298DFF"/>
<stop offset="1" stop-color="#344AE6"/>
</linearGradient>
<linearGradient id="paint1_linear" x1="612" y1="169" x2="612" y2="193" gradientUnits="userSpaceOnUse">
<stop stop-color="#298DFF"/>
<stop offset="1" stop-color="#344AE6"/>
</linearGradient>
<linearGradient id="paint2_linear" x1="579" y1="313" x2="579" y2="337" gradientUnits="userSpaceOnUse">
<stop stop-color="#298DFF"/>
<stop offset="1" stop-color="#344AE6"/>
</linearGradient>
<linearGradient id="paint3_linear" x1="597" y1="151.128" x2="627" y2="151.128" gradientUnits="userSpaceOnUse">
<stop stop-color="#344AE6" stop-opacity="0.6"/>
<stop offset="1" stop-color="#298DFF" stop-opacity="0.4"/>
</linearGradient>
<linearGradient id="paint4_linear" x1="597" y1="145.277" x2="627" y2="145.277" gradientUnits="userSpaceOnUse">
<stop stop-color="#344AE6" stop-opacity="0.6"/>
<stop offset="1" stop-color="#298DFF" stop-opacity="0.4"/>
</linearGradient>
<linearGradient id="paint5_linear" x1="612" y1="132" x2="612" y2="143.643" gradientUnits="userSpaceOnUse">
<stop stop-color="#298DFF"/>
<stop offset="1" stop-color="#344AE6"/>
</linearGradient>
<linearGradient id="paint6_linear" x1="607" y1="446.996" x2="607" y2="466.675" gradientUnits="userSpaceOnUse">
<stop stop-color="#298DFF"/>
<stop offset="1" stop-color="#344AE6"/>
</linearGradient>
<linearGradient id="paint7_linear" x1="614.426" y1="456.345" x2="627.189" y2="456.345" gradientUnits="userSpaceOnUse">
<stop stop-color="#344AE6" stop-opacity="0.6"/>
<stop offset="1" stop-color="#298DFF" stop-opacity="0.4"/>
</linearGradient>
</defs>
</svg>
