<svg width="20" height="20" viewBox="0 0 20 20" fill="none" xmlns="http://www.w3.org/2000/svg">
<path d="M0 1.46696C0 0.679347 0.662031 0.0400391 1.47813 0.0400391H18.5219C19.3383 0.0400391 20 0.679347 20 1.46696V18.5333C20 19.3212 19.3383 19.96 18.5219 19.96H1.47813C0.662109 19.96 0 19.3213 0 18.5336V1.46673V1.46696Z" fill="#43596E"/>
<path d="M6.07937 16.7101V7.74205H3.08656V16.7101H6.07969H6.07937ZM4.58359 6.51782C5.62703 6.51782 6.27664 5.82918 6.27664 4.96858C6.25711 4.08837 5.62703 3.41895 4.60344 3.41895C3.57914 3.41895 2.91016 4.08837 2.91016 4.9685C2.91016 5.82911 3.55953 6.51775 4.56398 6.51775H4.58336L4.58359 6.51782ZM7.73594 16.7101H10.7285V11.7025C10.7285 11.4348 10.748 11.1664 10.8271 10.9752C11.0434 10.4395 11.5358 9.88492 12.3627 9.88492C13.4454 9.88492 13.8787 10.7072 13.8787 11.9129V16.7101H16.8712V11.5681C16.8712 8.8136 15.395 7.5318 13.426 7.5318C11.8117 7.5318 11.1027 8.43045 10.7088 9.04253H10.7287V7.74236H7.73609C7.77516 8.58367 7.73586 16.7104 7.73586 16.7104L7.73594 16.7101Z" fill="white"/>
</svg>
