<svg width="102" height="38" viewBox="0 0 102 38" fill="none" xmlns="http://www.w3.org/2000/svg">
<g clip-path="url(#clip0_961_188)">
<path d="M0.523438 8.28366L7.66647 4.0732L16.7879 9.58611L19.4879 8.02804L10.3503 2.52571L12.9943 0.953125L25.56 8.41869L13.069 15.7261L0.523438 8.28366Z" fill="white"/>
<path d="M17.3797 37.9012L10.223 33.7147L10.3564 22.9241L7.67973 21.3248L7.56339 32.1245L4.90234 30.5819L4.97635 15.7812L17.444 23.1297L17.3797 37.9012Z" fill="white"/>
<path d="M34.1976 16.8031L34.184 8.40625L21.5741 15.7353L21.5508 30.3912L34.1905 23.0559L34.1734 19.9408L24.9194 25.2382L24.9427 22.0809L34.1976 16.8031Z" fill="white"/>
<path d="M50.151 21.8203H46.7931L46.793 25.7053H50.151V21.8203Z" fill="white"/>
<path d="M53.6427 18.7043H46.8008V8.25782H50.1407V16.2397H51.5729L49.8647 18.7043L57.1054 8.25781L60.9144 8.25782L53.6427 18.7043Z" fill="white"/>
<path d="M53.5117 21.8203L55.0678 25.7053H58.9059L57.3597 21.8203H53.5117Z" fill="white"/>
<path d="M64.0938 21.8203V25.7053H67.4314V21.8203H64.0938Z" fill="white"/>
<path d="M70.6289 21.8203V25.7053H73.975V21.8203H70.6289Z" fill="white"/>
<path d="M78.0977 21.8203L79.6528 25.7053H83.4815L81.9388 21.8203H78.0977Z" fill="white"/>
<path fill-rule="evenodd" clip-rule="evenodd" d="M79.575 18.7043H70.6289V8.25781H77.1068C78.9962 8.25781 80.4358 8.79891 81.4255 9.836C82.4151 10.8732 82.91 12.1808 82.91 13.7139C82.91 14.8863 82.5951 15.9234 81.9653 16.8702C81.3921 17.691 80.5953 18.3251 79.575 18.7043ZM77.0619 11.2789H70.6289V16.239H76.702C77.6466 16.239 78.3664 16.0135 78.8612 15.5175C79.3562 15.0666 79.5811 14.4353 79.5811 13.7139C79.5811 12.9924 79.3561 12.4062 78.9062 11.9553C78.4564 11.5044 77.8716 11.2789 77.0619 11.2789Z" fill="white"/>
<path d="M86.5297 21.8203L85.0273 25.7053H88.8194L90.3632 21.8203H86.5297Z" fill="white"/>
<path d="M97.4871 25.7081H101.306L95.6051 8.25781H91.7739L87.7344 18.7043H91.4959L95.6051 8.25781L93.53 13.5334L97.4871 25.7081Z" fill="white"/>
<path d="M67.4314 18.7043H64.0938V8.25781H67.4314V18.7043Z" fill="white"/>
</g>
<defs>
<clipPath id="clip0_961_188">
<rect width="102" height="38" fill="white"/>
</clipPath>
</defs>
</svg>
