<svg width="168" height="54" viewBox="0 0 168 54" fill="none" xmlns="http://www.w3.org/2000/svg">
<path d="M32.4609 2.66649V21.2693L38.9931 20.5184V2.66649H32.4609ZM32.4609 48.3611H38.9931V30.5002L32.4609 29.7511V48.3611ZM57.4064 17.0099C57.3363 16.2525 57.3043 15.4921 57.3105 14.7315C57.3093 13.9892 57.3742 13.2483 57.5047 12.5176C57.6142 11.8611 57.8425 11.2302 58.1785 10.6559C58.5077 10.1106 58.9705 9.65858 59.523 9.34275C60.0997 9.00053 60.8366 8.82942 61.7337 8.82942C63.3982 8.82942 64.5831 9.37518 65.2885 10.4667C65.9938 11.5582 66.3463 12.8527 66.3459 14.3501V15.8244H72.8744V12.6149C72.8756 11.3239 72.6141 10.0462 72.1059 8.85986C71.5866 7.62779 70.8363 6.50689 69.8958 5.55785C68.9073 4.55094 67.7341 3.74471 66.4406 3.1834C65.0376 2.56934 63.5195 2.26402 61.9887 2.28806C60.1114 2.28488 58.4666 2.61456 57.0543 3.27711C55.7054 3.8902 54.5123 4.80111 53.5646 5.94165C52.6101 7.11363 51.901 8.46623 51.4795 9.91875C51.0025 11.499 50.7651 13.1421 50.7754 14.793C50.7622 16.2452 50.9124 17.6943 51.2233 19.1127L57.762 18.3624C57.5678 17.9341 57.447 17.476 57.4046 17.0075L57.4064 17.0099ZM66.3423 35.3972C66.3423 36.4234 66.2996 37.3641 66.2142 38.2193C66.1605 38.9699 65.9531 39.7014 65.6048 40.3681C65.2848 40.9519 64.793 41.4227 64.1965 41.7165C63.5757 42.0384 62.7109 42.1988 61.6021 42.1976C59.9376 42.1976 58.7529 41.7165 58.048 40.7543C57.3521 39.8182 56.9807 38.6798 56.9906 37.5126V35.4622H50.4608V37.8993C50.4358 40.0541 51.0658 42.1654 52.2672 43.9528C53.4686 45.7402 55.1844 47.1189 57.1866 47.9057C58.5907 48.4725 60.0925 48.7565 61.6063 48.7413C63.6973 48.7413 65.4692 48.3991 66.9219 47.7147C68.3026 47.0956 69.5036 46.1352 70.4123 44.9236C71.286 43.7533 71.9151 42.3428 72.2996 40.6922C72.6965 38.9338 72.8898 37.1354 72.8756 35.3327C72.8756 35.008 72.8756 34.6916 72.8631 34.3872L66.3024 33.6345C66.328 34.1604 66.3423 34.7442 66.3423 35.3972ZM84.3398 48.3611H90.8731V36.4531L84.3398 35.7034V48.3611ZM84.3398 2.66649V15.3153L90.8731 14.5674V2.66649H84.3398ZM111.081 9.95039C111.297 9.77127 111.528 9.61149 111.772 9.47287C112.508 9.05155 113.34 8.82995 114.187 8.83002C115.322 8.83018 116.421 9.2273 117.294 9.95278C117.749 10.3463 118.093 10.8535 118.289 11.4229L124.858 10.6702C124.405 8.51107 123.282 6.55067 121.65 5.06899C120.618 4.15605 119.422 3.44827 118.126 2.98344C115.585 2.04198 112.79 2.04198 110.249 2.98344C108.952 3.44819 107.757 4.15598 106.725 5.06899C105.639 6.03778 104.775 7.23143 104.195 8.56738C103.589 9.90045 103.272 11.4261 103.242 13.1444L109.844 12.3863C110.003 11.331 110.415 10.5186 111.081 9.94919V9.95039ZM117.293 41.076C117.076 41.2558 116.845 41.4166 116.601 41.5565C116.112 41.8363 115.578 42.0291 115.024 42.1265C114.469 42.2236 113.902 42.2236 113.347 42.1265C112.793 42.0291 112.259 41.8363 111.771 41.5565C111.527 41.4167 111.295 41.2559 111.079 41.076C110.411 40.505 109.998 39.6892 109.842 38.6287L103.239 37.8719C103.271 39.6311 103.588 41.1705 104.192 42.4901C104.78 43.8115 105.642 44.9919 106.722 45.952C107.753 46.8674 108.949 47.5766 110.247 48.0412C112.789 48.9828 115.583 48.9828 118.125 48.0412C119.421 47.5769 120.617 46.8691 121.648 45.9556C122.728 44.9953 123.59 43.815 124.178 42.4936C124.489 41.8102 124.721 41.0932 124.87 40.3568L118.291 39.6017C118.096 40.1742 117.752 40.6842 117.294 41.079L117.293 41.076ZM153.707 48.3611H159.856V44.3679L151.923 43.457L153.707 48.3611ZM137.053 48.3611H143.587V42.5014L137.053 41.7511V48.3611ZM153.321 2.66649V7.40165L159.856 6.65255V2.66649H153.321ZM137.053 2.66649V9.26933L145.354 8.31609L143.33 2.66649H137.053Z" fill="#0F8283"/>
<path d="M32.457 21.2701V29.7519L38.991 30.5022V20.5192L32.457 21.2701ZM71.6213 27.4079C71.1252 26.3918 70.416 25.4949 69.5422 24.7786C68.6474 24.0301 67.4747 23.3775 66.0239 22.8208L61.0305 20.8295C60.3218 20.5641 59.645 20.2199 59.0127 19.8035C58.5537 19.498 58.1701 19.0918 57.891 18.6157C57.8463 18.5357 57.8076 18.4515 57.7629 18.3668L51.2242 19.1159C51.4385 20.0983 51.7718 21.0509 52.2167 21.9523C53.1774 23.8572 55.0667 25.3868 57.8844 26.5412L62.5603 28.4656C63.2332 28.7401 63.8861 29.0614 64.5143 29.4272C64.9882 29.7094 65.3836 30.1066 65.664 30.5822C65.942 31.0529 66.1235 31.6733 66.2085 32.4433C66.2467 32.7937 66.2747 33.1936 66.2967 33.6323L72.858 34.3886C72.8402 33.2138 72.7591 32.0407 72.615 30.8747C72.474 29.6743 72.1388 28.505 71.6225 27.4127L71.6213 27.4079ZM84.3377 15.3172V35.7041L90.871 36.4538V14.5669L84.3377 15.3172ZM125.138 13.4496C125.143 12.5152 125.048 11.5829 124.856 10.6686L118.287 11.4231C118.511 12.0745 118.619 12.7606 118.605 13.4496V37.5802C118.618 38.2666 118.512 38.9501 118.289 39.5995L124.868 40.3575C125.052 39.4448 125.143 38.5156 125.138 37.5844V13.4496ZM109.765 37.5802V13.4484C109.764 13.0942 109.79 12.7404 109.842 12.3901L103.24 13.1493V37.8727L109.842 38.6295C109.791 38.2821 109.766 37.9314 109.766 37.5802H109.765ZM153.32 7.40362V30.1996H153.191L145.352 8.31686L137.051 9.26891V41.7519L143.585 42.5022V20.894H143.713L151.921 43.459L159.854 44.3686V6.65332L153.32 7.40362Z" fill="#F15F24"/>
<path d="M18.9108 5.45155C17.9644 4.48255 16.8455 3.69949 15.6117 3.14276C14.3364 2.55735 12.9479 2.26101 11.5452 2.27488C10.2689 2.27939 8.99868 2.45177 7.76714 2.78761C6.5031 3.12095 5.32561 3.72337 4.31491 4.55382C3.29105 5.38947 2.4479 6.49134 1.78545 7.85942C1.123 9.2275 0.792176 10.9603 0.79297 13.0578V37.9638C0.79297 40.0612 1.1238 41.794 1.78545 43.1621C2.4471 44.5302 3.29026 45.6317 4.31491 46.4665C5.3259 47.298 6.50467 47.9001 7.77012 48.2315C9.00179 48.5678 10.2722 48.7404 11.5488 48.7449C12.9519 48.7593 14.3408 48.4631 15.6164 47.8776C16.8505 47.3207 17.9696 46.5375 18.9162 45.5682C19.8622 44.5981 20.6127 43.4542 21.1263 42.1993C21.6617 40.9185 21.9338 39.5427 21.9264 38.1542V34.0296L15.3287 32.9045V34.9053C15.3287 36.2489 15.3495 39.3098 14.5852 40.5161C14.4034 40.8086 14.183 41.0753 13.9299 41.3088C13.5593 41.6089 13.1346 41.835 12.6789 41.9749C12.343 42.0804 11.997 42.1504 11.6465 42.1838C11.5494 42.1838 11.4511 42.1969 11.3457 42.1969H11.301C9.80572 42.1969 8.77034 41.7475 8.19487 40.8485C7.6194 39.9496 7.33087 38.8378 7.32928 37.5131V13.5036C7.32928 12.1773 7.61781 11.0657 8.19487 10.1688C8.77193 9.27187 9.80731 8.82241 11.301 8.82042H11.3457C11.4493 8.82042 11.5482 8.82818 11.6465 8.83415C11.9947 8.86858 12.3385 8.93879 12.6724 9.04366C13.1279 9.18407 13.5525 9.41037 13.9234 9.71039C14.176 9.94386 14.3963 10.21 14.5787 10.5019C15.3466 11.7106 15.3227 14.7714 15.3227 16.1127V18.1164L21.9264 16.9877V12.8626C21.9341 11.4746 21.6619 10.0993 21.1263 8.81922C20.6129 7.56423 19.862 6.42065 18.915 5.45155H18.9108Z" fill="#0F8283"/>
</svg>
