<svg width="156" height="50" viewBox="0 0 156 50" fill="none" xmlns="http://www.w3.org/2000/svg">
<path d="M33.4877 1.01517C34.6023 1.01517 35.7223 1.01517 36.8416 1.00746C36.8292 5.00281 36.8818 8.99892 36.8169 12.9943C36.7882 15.573 35.6976 18.3214 33.3285 19.6007C30.6509 20.961 27.256 20.9533 24.631 19.475C22.3964 18.1702 21.3104 15.4874 21.3707 12.9858C21.383 8.99429 21.3745 5.0028 21.3792 1.01132H24.6341C24.6426 4.46685 24.6264 7.91853 24.638 11.3741C24.6952 12.9619 24.6991 14.69 25.656 16.0434C26.9422 17.8101 29.6406 17.9767 31.4532 16.9819C33.0935 15.9948 33.4436 13.9366 33.4761 12.1784C33.5039 8.45834 33.4792 4.73522 33.4877 1.01517ZM48.0179 1.08843C50.8377 0.252504 53.9844 0.759922 56.4958 2.25827C56.4803 3.42734 56.4803 4.59255 56.4803 5.75853C54.3725 4.19078 51.5681 3.03791 48.9509 3.95095C47.8193 4.28872 47.0788 5.64749 47.6237 6.74098C48.0712 7.78821 49.2887 8.09281 50.2518 8.48302C52.3272 9.30738 54.7203 9.75002 56.2593 11.4998C58.2373 13.8834 57.7364 18.1271 54.8386 19.5768C51.5782 21.2618 47.5039 20.7258 44.378 18.9715C44.3741 17.7692 44.3741 16.5716 44.3618 15.3694C46.7147 17.177 49.9789 18.2489 52.8605 17.1485C54.432 16.5801 54.6314 14.141 53.2068 13.2989C50.9961 11.9632 48.2815 11.691 46.1612 10.1765C44.2976 8.83929 43.748 6.18884 44.5218 4.10133C45.0992 2.58678 46.4959 1.53493 48.0179 1.08843ZM78.278 0.722907C82.7141 4.7838 87.0287 8.98272 91.3836 13.1323V1.01132H94.6394V20.6163C90.1987 16.4089 85.8809 12.0766 81.4155 7.89231V20.1883C80.3619 20.1961 79.3114 20.1961 78.2618 20.1999C78.2672 13.7091 78.2347 7.21987 78.278 0.722907ZM103.192 1.00746C107.12 1.00746 111.044 1.02751 114.968 0.995124C114.992 1.9822 114.992 2.9685 114.992 3.95558C112.176 3.95558 109.363 3.95095 106.546 3.95558V8.51541C109.058 8.52389 111.565 8.51541 114.076 8.52389V11.4635C111.565 11.4671 109.055 11.4671 106.546 11.4635C106.546 13.3914 106.546 15.3255 106.555 17.2541C109.363 17.2418 112.176 17.2541 114.98 17.2456C114.984 18.2612 114.988 19.2799 114.988 20.2955H103.185C103.192 13.8672 103.181 7.43965 103.192 1.00746ZM124.532 1.76242C127.585 0.000336945 131.484 0.540144 134.48 2.16496C134.537 3.35871 134.537 4.55554 134.533 5.75005C132.359 4.126 129.431 2.96465 126.763 4.02884C125.249 4.56865 125.073 6.84663 126.449 7.63398C128.691 8.91718 131.431 9.17628 133.527 10.7525C136.344 12.8477 136.136 17.9196 132.917 19.5437C129.656 21.2495 125.542 20.7459 122.424 18.9429C122.424 17.7569 122.424 16.5716 122.404 15.3856C124.675 17.005 127.565 18.1062 130.365 17.3513C131.399 17.0914 132.347 16.1652 132.2 15.0286C132.221 14.1595 131.61 13.396 130.845 13.039C128.647 11.9015 126.053 11.5807 124.06 10.0423C121.459 8.03189 121.631 3.42348 124.532 1.76242ZM144.069 1.82797C147.097 0.000336945 151.061 0.491561 154.053 2.16034C154.065 3.34251 154.065 4.52006 154.074 5.70147C151.92 4.07742 148.981 2.97699 146.349 4.04889C144.88 4.61723 144.712 6.83044 146.055 7.63398C148.35 8.96653 151.208 9.17628 153.308 10.879C155.115 12.3002 155.477 14.9353 154.777 17.0143C154.121 18.865 152.253 19.9447 150.417 20.3395C147.601 20.9202 144.593 20.4004 142.09 18.9961C142.049 17.7901 142.049 16.584 142.045 15.3779C144.414 17.1323 147.642 18.2566 150.519 17.1515C152.086 16.5832 152.327 14.1872 150.914 13.3181C148.643 11.9008 145.777 11.6987 143.649 10.0168C141.139 8.00799 141.256 3.51834 144.069 1.82797ZM0.517578 1.01132C3.93022 1.21028 7.47428 0.51084 10.7764 1.58428C14.4433 2.75721 14.9643 8.47916 11.6189 10.3384C14.6675 11.5977 15.367 15.91 13.2754 18.2975C11.9892 19.8244 9.88902 20.23 7.9883 20.2871C5.49703 20.3279 3.01039 20.2871 0.519124 20.2994V1.01132H0.517578ZM3.7795 3.95944C3.77537 5.64877 3.77537 7.33786 3.7795 9.02668C5.52949 8.94185 7.34519 9.27036 9.05422 8.77914C11.118 8.18227 11.1343 4.79151 9.08282 4.17459C7.35292 3.7358 5.54186 4.03655 3.7795 3.95944ZM3.7795 11.8738C3.77177 13.7006 3.77563 15.5283 3.7795 17.349C5.78921 17.2071 7.94733 17.743 9.84805 16.9025C11.7325 15.9848 11.5617 12.8578 9.58757 12.1552C7.71544 11.573 5.70882 12.001 3.7795 11.8738ZM65.7436 1.01132H69.0024V20.2994H65.7436V1.01132ZM52.4014 30.9583C55.4415 29.0373 59.4957 29.5702 62.4994 31.3037C62.4832 32.4651 62.4832 33.6265 62.4871 34.787C60.2895 33.1838 57.2695 31.9453 54.6237 33.1753C53.3174 33.7969 53.1465 35.7332 54.3222 36.5738C56.7323 38.1007 59.9355 38.1739 62.0148 40.2615C63.4061 41.5724 63.638 43.6638 63.2809 45.4505C62.8658 47.2373 61.3029 48.5691 59.5807 49.075C56.5661 50.0003 53.1829 49.5014 50.4721 47.9298C50.4806 46.7399 50.4844 45.5508 50.4721 44.3609C52.7639 46.0783 55.8774 47.2072 58.6941 46.2001C60.3946 45.7451 60.7332 43.1386 59.1942 42.2857C56.9194 40.8683 54.0254 40.6902 51.933 38.9358C49.5607 36.9355 49.7153 32.6309 52.4014 30.9583ZM13.4423 30.1462H16.6942C16.7019 36.5052 16.7032 42.8667 16.6981 49.2307H13.4423V30.1462ZM25.9536 29.6997C30.2845 33.8246 34.6054 37.9665 38.9742 42.0521C38.9904 38.0482 38.9781 34.0483 38.9819 30.0491C40.0641 30.0444 41.1496 30.0429 42.2384 30.0444C42.2462 36.5537 42.2299 43.0584 42.2462 49.5677C37.8302 45.3919 33.5001 41.1221 29.1173 36.9092C29.0965 41.0149 29.1173 45.1236 29.1088 49.233H25.9544C25.9502 42.7199 25.95 36.2088 25.9536 29.6997ZM71.7464 30.1462H75.0029V49.2307H71.7464V30.1462ZM84.3682 30.1462C86.9896 30.1462 89.6135 30.1434 92.2401 30.1378C95.223 30.1015 98.304 31.6245 99.7618 34.2842C101.329 37.0774 101.43 40.5491 100.457 43.5581C99.4155 46.7199 96.3136 48.9562 93.0092 49.1698C90.1314 49.3163 87.2498 49.1906 84.3682 49.2307V30.1462ZM87.7221 33.0897V46.2826C90.0541 46.1978 92.5655 46.6404 94.7345 45.5523C96.8215 44.4797 97.7753 42.0436 97.7142 39.8018C97.7993 37.5362 96.9977 34.9945 94.906 33.8331C92.7116 32.6108 90.1113 33.2447 87.7221 33.0897ZM107.767 30.1462C111.666 30.1426 115.567 30.1426 119.469 30.1462C119.469 31.1287 119.465 32.1111 119.465 33.0944C116.649 33.0861 113.835 33.0861 111.023 33.0944V37.5524C113.531 37.557 116.041 37.5586 118.553 37.557V40.3995C116.042 40.3995 113.529 40.3949 111.023 40.3995V46.2788C113.836 46.2872 116.653 46.2788 119.469 46.2834V49.2269H107.767V30.1462ZM129.038 30.1424C131.679 30.1663 134.321 30.1177 136.959 30.1586C139.2 30.2149 141.57 31.5027 142.215 33.7599C142.793 35.7217 142.654 38.0482 141.392 39.7247C140.619 40.7272 139.366 41.1059 138.194 41.4267C140.481 44.0044 142.75 46.6006 145.003 49.2153C143.714 49.24 142.431 49.24 141.153 49.2153C138.971 46.6289 136.747 44.0787 134.555 41.5084C133.83 41.513 133.11 41.513 132.39 41.513C132.383 44.0833 132.386 46.6535 132.386 49.2246C131.267 49.2282 130.148 49.2282 129.029 49.2246V30.1362L129.038 30.1424ZM132.386 32.9895C132.379 34.8819 132.383 36.7743 132.386 38.6659C134.125 38.5688 135.942 38.9382 137.625 38.3983C139.705 37.5655 139.75 34.2341 137.702 33.3465C136.019 32.7042 134.158 33.082 132.396 32.9926" fill="#060817"/>
</svg>
