<svg width="83" height="30" viewBox="0 0 83 30" fill="none" xmlns="http://www.w3.org/2000/svg">
<path opacity="0.6" fill-rule="evenodd" clip-rule="evenodd" d="M1.07435 9.38169C0.501364 9.70273 0 9.45303 0 8.77527V5.99286L10.4212 0V2.7824C10.4212 3.46017 9.95565 4.28062 9.34685 4.60166L1.07435 9.38169Z" fill="#298DFF"/>
<path opacity="0.6" fill-rule="evenodd" clip-rule="evenodd" d="M16.3284 28.6086C16.9014 28.2876 16.9014 27.7169 16.3284 27.3958L8.02009 22.6158C7.4471 22.2947 6.48018 22.2947 5.9072 22.6158L3.50781 24.007L13.929 29.9998L16.3284 28.6086Z" fill="#344AE6"/>
<path opacity="0.6" fill-rule="evenodd" clip-rule="evenodd" d="M25.3908 4.60169C24.8178 4.28064 24.3164 4.53034 24.3164 5.20811V14.7682C24.3164 15.4459 24.782 16.2664 25.3908 16.5874L27.7901 17.9786V5.99289L25.3908 4.60169Z" fill="#4264F2"/>
<path fill-rule="evenodd" clip-rule="evenodd" d="M0 5.99287L10.4212 0L19.8039 5.38644C20.3769 5.70749 20.3769 6.27824 19.8039 6.59929L11.4956 11.3793C10.9226 11.7004 9.95565 11.7004 9.38266 11.3793L0 5.99287Z" fill="#298DFF"/>
<path fill-rule="evenodd" clip-rule="evenodd" d="M3.47266 13.1983C3.47266 12.5206 3.93821 12.2709 4.54701 12.5919L12.8553 17.3719C13.4283 17.693 13.9297 18.5134 13.9297 19.1912V29.9641L3.47266 23.9712V13.1983Z" fill="#344AE6"/>
<path fill-rule="evenodd" clip-rule="evenodd" d="M18.4415 23.3653C17.8686 23.6864 17.3672 23.4367 17.3672 22.7589V13.1989C17.3672 12.5211 17.8327 11.7007 18.4415 11.3796L27.8242 5.99316V17.9789L18.4415 23.3653Z" fill="#4264F2"/>
<path d="M50.3165 20.6902H47.1651L43.0826 15.0898L41.3278 17.1944V20.6902H38.7852V6.88525H41.3278V13.6629L46.8428 6.88525H49.9226L44.7657 13.1992L50.3165 20.6902Z" fill="white"/>
<path d="M52.1406 20.6898V6.88477H54.7191V20.6898H52.1406Z" fill="white"/>
<path d="M68.7246 20.6902H65.6806L62.6008 15.5178H60.8818V20.6902H58.375V6.88525H63.5319C65.036 6.88525 66.1819 7.31332 66.9698 8.13377C67.7577 8.95422 68.1516 9.9887 68.1516 11.2015C68.1516 12.129 67.9009 12.9495 67.3995 13.6986C66.8982 14.412 66.1819 14.9471 65.2508 15.2325L68.7246 20.6902ZM63.4961 9.27527H60.8818V13.1992H63.2096C63.9616 13.1992 64.5346 13.0208 64.9285 12.6284C65.3225 12.2717 65.5015 11.7723 65.5015 11.2015C65.5015 10.6308 65.3225 10.1671 64.9643 9.81034C64.6062 9.45362 64.1407 9.27527 63.4961 9.27527Z" fill="white"/>
<path d="M82.4775 20.6898H79.7558L78.6098 17.5506H73.7036L72.5576 20.6898H69.8359L75.2077 6.88477H77.1773L82.4775 20.6898ZM77.8936 15.232L76.1746 10.5233L74.4915 15.232H77.8936Z" fill="white"/>
</svg>
