<svg width="98" height="36" viewBox="0 0 98 36" fill="none" xmlns="http://www.w3.org/2000/svg">
<path d="M0.5 7.84901L7.36291 3.86016L16.1266 9.08291L18.7208 7.60685L9.94147 2.39411L12.4818 0.904297L24.5547 7.97694L12.5536 14.8997L0.5 7.84901Z" fill="white"/>
<path d="M16.6976 35.9043L9.82156 31.9382L9.94979 21.7155L7.37805 20.2004L7.26627 30.4317L4.70958 28.9703L4.78068 14.9486L16.7594 21.9103L16.6976 35.9043Z" fill="white"/>
<path d="M32.8578 15.9159L32.8447 7.96095L20.7293 14.9043L20.7069 28.7888L32.8509 21.8396L32.8345 18.8884L23.9434 23.907L23.9658 20.9159L32.8578 15.9159Z" fill="white"/>
<path d="M48.1819 20.6727H44.9557L44.9556 24.3532H48.1819V20.6727Z" fill="white"/>
<path d="M51.5374 17.718H44.9638V7.82131H48.1727V15.3831H49.5488L47.9076 17.718L54.8643 7.8213L58.5239 7.82131L51.5374 17.718Z" fill="white"/>
<path d="M51.4131 20.6727L52.9082 24.3532H56.5957L55.1102 20.6727H51.4131Z" fill="white"/>
<path d="M61.5821 20.6727V24.3532H64.7889V20.6727H61.5821Z" fill="white"/>
<path d="M67.8591 20.6727V24.3532H71.074V20.6727H67.8591Z" fill="white"/>
<path d="M75.0353 20.6727L76.5295 24.3532H80.208L78.7258 20.6727H75.0353Z" fill="white"/>
<path fill-rule="evenodd" clip-rule="evenodd" d="M76.4544 17.718H67.8591V7.82131H74.083C75.8983 7.82131 77.2814 8.33393 78.2323 9.31644C79.1831 10.299 79.6586 11.5378 79.6586 12.9902C79.6586 14.1009 79.356 15.0834 78.7509 15.9804C78.2002 16.758 77.4347 17.3587 76.4544 17.718ZM74.0398 10.6834H67.8591V15.3824H73.694C74.6016 15.3824 75.2932 15.1688 75.7686 14.6989C76.2441 14.2717 76.4602 13.6737 76.4602 12.9902C76.4602 12.3067 76.2441 11.7514 75.8118 11.3242C75.3796 10.897 74.8178 10.6834 74.0398 10.6834Z" fill="white"/>
<path d="M83.1348 20.6727L81.6914 24.3532H85.3347L86.818 20.6727H83.1348Z" fill="white"/>
<path d="M93.6638 24.3532H97.3333L91.8556 7.82131H88.1746L84.2935 17.718H87.9075L91.8556 7.82131L89.8618 12.8192L93.6638 24.3532Z" fill="white"/>
<path d="M64.7889 17.718H61.5821V7.82131H64.7889V17.718Z" fill="white"/>
</svg>
