<svg width="64" height="64" viewBox="0 0 64 64" fill="none" xmlns="http://www.w3.org/2000/svg">
<path fill-rule="evenodd" clip-rule="evenodd" d="M35.4997 47.9964H28.5237C27.4197 47.9964 26.5238 47.1004 26.5238 45.9964C26.5238 44.8924 27.4197 43.9964 28.5237 43.9964H35.4997C36.6037 43.9964 37.4997 44.8924 37.4997 45.9964C37.4997 47.1004 36.6037 47.9964 35.4997 47.9964ZM56.9157 46.1777L53.6357 39.0391H10.3852L7.05985 46.2791C6.35852 48.1991 6.63852 50.3431 7.80918 52.0177C8.97985 53.6924 10.8972 54.6924 12.9398 54.6924H51.0784C53.1211 54.6924 55.0384 53.6924 56.2091 52.0177C57.3797 50.3431 57.6597 48.1964 56.9157 46.1777Z" fill="#74CF7F"/>
<path opacity="0.4" fill-rule="evenodd" clip-rule="evenodd" d="M53.232 17.1184C53.232 12.8011 49.72 9.28906 45.4027 9.28906H18.6106C14.2932 9.28906 10.7812 12.8011 10.7812 17.1184V35.041H53.232V17.1184Z" fill="#74CF7F"/>
</svg>
