<svg width="64" height="64" viewBox="0 0 64 64" fill="none" xmlns="http://www.w3.org/2000/svg">
<path d="M49.3044 55.6371C47.9432 55.6371 46.8429 54.5343 46.8429 53.1755V30.2983H44.5123C43.1511 30.2983 42.0508 29.1955 42.0508 27.8367C42.0508 26.478 43.1511 25.3752 44.5123 25.3752H49.2707L49.3044 25.375L49.3382 25.3752H54.1049C55.4662 25.3752 56.5665 26.478 56.5665 27.8367C56.5665 29.1955 55.4662 30.2983 54.1049 30.2983H51.766V53.1755C51.766 54.5343 50.6657 55.6371 49.3044 55.6371Z" fill="#74CF7F"/>
<path d="M12.1241 31.3371H9.79357C8.43234 31.3371 7.33203 30.2343 7.33203 28.8756C7.33203 27.5168 8.43234 26.4141 9.79357 26.4141H19.3837C20.745 26.4141 21.8453 27.5168 21.8453 28.8756C21.8453 30.2343 20.745 31.3371 19.3837 31.3371H17.0472V53.1737C17.0472 54.5324 15.9469 55.6352 14.5856 55.6352C13.2244 55.6352 12.1241 54.5324 12.1241 53.1737V31.3371Z" fill="#74CF7F"/>
<path d="M36.7392 47.3996H34.4076V53.1702C34.4076 54.529 33.3073 55.6318 31.9461 55.6318C30.5849 55.6318 29.4845 54.529 29.4845 53.1702V47.3996H27.149C25.7881 47.3996 24.6875 46.2969 24.6875 44.9381C24.6875 43.5793 25.7881 42.4766 27.149 42.4766H36.7392C38.1004 42.4766 39.2007 43.5793 39.2007 44.9381C39.2007 46.2969 38.1004 47.3996 36.7392 47.3996Z" fill="#74CF7F"/>
<g opacity="0.4">
<path d="M49.3014 20.2708C47.9402 20.2708 46.8398 19.168 46.8398 17.8092V10.8209C46.8398 9.46214 47.9402 8.35938 49.3014 8.35938C50.6626 8.35938 51.7629 9.46214 51.7629 10.8209V17.8092C51.7629 19.168 50.6626 20.2708 49.3014 20.2708Z" fill="#74CF7F"/>
<path d="M12.1211 18.8554C12.1211 20.2141 13.2214 21.3169 14.5826 21.3169C15.9439 21.3169 17.0442 20.2141 17.0442 18.8554V10.8209C17.0442 9.46214 15.9439 8.35938 14.5826 8.35938C13.2214 8.35938 12.1211 9.46214 12.1211 10.8209V18.8554Z" fill="#74CF7F"/>
<path d="M29.4766 34.9193C29.4766 36.278 30.5769 37.3808 31.9381 37.3808C33.2993 37.3808 34.3996 36.278 34.3996 34.9193V10.8209C34.3996 9.46214 33.2993 8.35938 31.9381 8.35938C30.5769 8.35938 29.4766 9.46214 29.4766 10.8209V34.9193Z" fill="#74CF7F"/>
</g>
</svg>
