<svg width="48" height="48" viewBox="0 0 48 48" fill="none" xmlns="http://www.w3.org/2000/svg">
<g id="3 User">
<path id="Vector" fill-rule="evenodd" clip-rule="evenodd" d="M30.0781 22.6198C31.0234 23.1459 32.0923 23.4432 33.248 23.4432C36.872 23.4432 39.8129 20.5004 39.8129 16.8764C39.8129 13.2709 36.872 10.3281 33.248 10.3281C32.5298 10.3281 31.8467 10.4518 31.1987 10.6604C32.144 12.1854 32.6867 13.9872 32.6867 15.8961C32.6867 18.4881 31.723 20.8345 30.0781 22.6198Z" fill="#74CF7F"/>
<path id="Vector_2" fill-rule="evenodd" clip-rule="evenodd" d="M11.9886 23.4276C13.1443 23.4276 14.2114 23.1303 15.1585 22.6042C13.5117 20.8189 12.548 18.4725 12.548 15.8805C12.548 13.9734 13.0908 12.1697 14.0379 10.6467C13.3899 10.4362 12.7068 10.3125 11.9886 10.3125C8.36464 10.3125 5.42188 13.2553 5.42188 16.8608C5.42188 20.4866 8.36464 23.4276 11.9886 23.4276Z" fill="#74CF7F"/>
<path id="Vector_3" fill-rule="evenodd" clip-rule="evenodd" d="M22.6193 24.2212C27.2088 24.2212 30.9417 20.4882 30.9417 15.8987C30.9417 11.311 27.2088 7.57812 22.6193 7.57812C18.0298 7.57812 14.2969 11.311 14.2969 15.8987C14.2969 20.4882 18.0298 24.2212 22.6193 24.2212Z" fill="#74CF7F"/>
<g id="Group" opacity="0.4">
<path id="Vector_4" fill-rule="evenodd" clip-rule="evenodd" d="M43.099 32.4326C41.7513 28.2123 38.179 25.7975 33.2774 25.7975H33.2424C31.2448 25.779 29.4596 26.1815 27.9531 26.9513C32.1568 28.3009 35.2731 31.2953 36.7076 35.5322C38.9839 35.2166 40.963 34.5169 42.7131 33.4479L43.291 33.0806L43.099 32.4326Z" fill="#74CF7F"/>
<path id="Vector_5" fill-rule="evenodd" clip-rule="evenodd" d="M17.1886 26.9175C15.7172 26.1827 13.9837 25.7969 12.023 25.7969H11.9529C7.05135 25.7969 3.47904 28.2135 2.14796 32.432L1.9375 33.08L2.51535 33.4473C4.17873 34.4646 6.14119 35.1458 8.32889 35.4966C9.78181 31.243 12.9517 28.2301 17.1886 26.9175Z" fill="#74CF7F"/>
<path id="Vector_6" fill-rule="evenodd" clip-rule="evenodd" d="M22.5553 27.875C22.5258 27.875 22.4981 27.875 22.4704 27.875C16.1676 27.875 11.5726 30.9728 9.86302 36.3802L9.65625 37.0338L10.2415 37.3919C13.5793 39.4264 17.567 40.4159 22.4316 40.4159H22.5886C27.4569 40.4159 31.4464 39.4264 34.7843 37.3919L35.3713 37.0338L35.1646 36.3802C33.4532 30.9728 28.8599 27.875 22.5553 27.875Z" fill="#74CF7F"/>
</g>
</g>
</svg>
