<svg width="48" height="48" viewBox="0 0 48 48" fill="none" xmlns="http://www.w3.org/2000/svg">
<path opacity="0.4" fill-rule="evenodd" clip-rule="evenodd" d="M15.1194 42.2228C8.99652 39.2048 4.83074 33.2274 4.08206 26.385C3.28738 16.1289 8.46022 10.2147 11.146 8.53962C18.4651 2.48679 28.9921 2.48679 36.3111 8.53962C43.8171 14.5854 44.4421 22.9556 43.8165 26.385C43.0679 33.2274 38.9021 39.2048 32.7793 42.2228C25.5391 45.4416 17.9893 43.564 15.1194 42.2228ZM23.9961 32C28.4143 32 31.9961 28.4182 31.9961 24C31.9961 19.5817 28.4143 16 23.9961 16C19.5778 16 15.9961 19.5817 15.9961 24C15.9961 28.4182 19.5778 32 23.9961 32Z" fill="#74CF7F"/>
<path d="M24.0078 32C28.4261 32 32.0078 28.4183 32.0078 24C32.0078 19.5817 28.4261 16 24.0078 16C19.5895 16 16.0078 19.5817 16.0078 24C16.0078 28.4183 19.5895 32 24.0078 32Z" stroke="#74CF7F" stroke-width="3" stroke-linecap="round" stroke-linejoin="round"/>
<path d="M44 18H43.98M4.0199 18H4M24.01 44H23.99" stroke="#74CF7F" stroke-width="4" stroke-linecap="round" stroke-linejoin="round"/>
<path d="M15.1111 42C8.94728 38.9998 4.75366 33.057 4 26.2546M32.8888 42C39.0528 38.9998 43.2464 33.057 44 26.2546M11.1111 8.51315C18.4791 2.49562 29.0764 2.49562 36.4444 8.51315" stroke="#74CF7F" stroke-width="3" stroke-linecap="round" stroke-linejoin="round"/>
</svg>
