<svg width="48" height="48" viewBox="0 0 48 48" fill="none" xmlns="http://www.w3.org/2000/svg">
<path fill-rule="evenodd" clip-rule="evenodd" d="M31.0348 22.7808C31.2652 22.5581 31.4149 22.2605 31.4572 21.9418C31.557 21.1661 31.0098 20.4499 30.2399 20.3501L27.0604 19.8912C26.9068 19.8701 26.7743 19.776 26.7052 19.6359L25.2844 16.8001L25.2805 16.7943C25.1423 16.5255 24.9272 16.3124 24.6661 16.1799C24.3224 16.0013 23.9308 15.9668 23.564 16.0839C23.1954 16.1991 22.8959 16.4525 22.7154 16.8001L21.2965 19.6359C21.2255 19.776 21.0911 19.872 20.9356 19.8951L17.7579 20.3501C17.4392 20.3962 17.1435 20.5459 16.9265 20.7744C16.3851 21.337 16.4024 22.2375 16.963 22.7827L19.2651 24.9888C19.3745 25.0944 19.4245 25.2461 19.3995 25.3959L18.8542 28.5159C18.8043 28.8231 18.8561 29.1418 19.0021 29.4183C19.1825 29.7562 19.4821 30.0039 19.8488 30.1152C19.987 30.1594 20.1291 30.1805 20.2712 30.1805C20.5016 30.1805 20.7301 30.1229 20.9356 30.0135L23.7752 28.5427C23.9154 28.4717 24.0844 28.4717 24.2264 28.5427L27.0584 30.0115C27.3388 30.1613 27.6517 30.2035 27.9589 30.1613C28.3372 30.0999 28.6693 29.8944 28.892 29.5853C29.1167 29.2743 29.2069 28.896 29.1455 28.5101L28.6002 25.3959C28.5752 25.2461 28.6252 25.0925 28.7365 24.9869L31.0348 22.7808Z" fill="#74CF7F"/>
<path fill-rule="evenodd" clip-rule="evenodd" d="M24.0025 42.5193C23.2076 42.5193 22.5625 41.8742 22.5625 41.0793V35.4556C22.5625 34.6607 23.2076 34.0156 24.0025 34.0156C24.7974 34.0156 25.4425 34.6607 25.4425 35.4556V41.0793C25.4425 41.8742 24.7974 42.5193 24.0025 42.5193Z" fill="#74CF7F" fill-opacity="0.4"/>
<path fill-rule="evenodd" clip-rule="evenodd" d="M31.6037 16.9977C31.2293 16.9977 30.8568 16.8537 30.5746 16.5638C30.0178 15.9974 30.0293 15.0835 30.5976 14.5286L39.301 6.01914C39.8712 5.46426 40.7813 5.47386 41.3362 6.04218C41.893 6.6105 41.8834 7.5225 41.315 8.07738L32.6098 16.5868C32.3294 16.8614 31.9666 16.9977 31.6037 16.9977Z" fill="#74CF7F" fill-opacity="0.4"/>
<path fill-rule="evenodd" clip-rule="evenodd" d="M28.143 13.176C27.9433 13.176 27.7398 13.1357 27.5439 13.0454C26.822 12.7152 26.5033 11.8589 26.8335 11.1369L29.1625 6.04703C29.4927 5.32127 30.3491 5.00063 31.071 5.33663C31.7929 5.66687 32.1116 6.52127 31.7814 7.24319L29.4543 12.335C29.2124 12.8649 28.6902 13.176 28.143 13.176Z" fill="#74CF7F" fill-opacity="0.4"/>
<path fill-rule="evenodd" clip-rule="evenodd" d="M37.2139 19.5587C36.6417 19.5587 36.1003 19.2151 35.8757 18.6506C35.5819 17.9114 35.9429 17.0743 36.6821 16.7806L40.7505 15.1639C41.4897 14.8721 42.3269 15.2311 42.6187 15.9703C42.9144 16.7114 42.5534 17.5466 41.8142 17.8404L37.7457 19.457C37.571 19.5261 37.3905 19.5587 37.2139 19.5587Z" fill="#74CF7F" fill-opacity="0.4"/>
<path fill-rule="evenodd" clip-rule="evenodd" d="M41.1604 32.7731C40.9646 32.7731 40.7668 32.7328 40.5767 32.6502L33.7012 29.6012C32.9735 29.2787 32.6452 28.4262 32.9678 27.7004C33.2903 26.9728 34.139 26.6444 34.8686 26.9689L41.746 30.016C42.4718 30.3385 42.8001 31.191 42.4775 31.9168C42.2394 32.4544 41.7134 32.7731 41.1604 32.7731Z" fill="#74CF7F" fill-opacity="0.4"/>
<path fill-rule="evenodd" clip-rule="evenodd" d="M39.9041 41.3733C39.5335 41.3733 39.1611 41.2312 38.8807 40.9452L33.2609 35.2639C32.7003 34.6994 32.706 33.7874 33.2705 33.2287C33.8369 32.67 34.7489 32.6738 35.3076 33.2402L40.9275 38.9215C41.4881 39.486 41.4823 40.398 40.9159 40.9567C40.6356 41.2351 40.2689 41.3733 39.9041 41.3733Z" fill="#74CF7F" fill-opacity="0.4"/>
<path fill-rule="evenodd" clip-rule="evenodd" d="M16.3942 16.9977C16.0313 16.9977 15.6684 16.8614 15.3881 16.5868L6.68281 8.07738C6.11449 7.5225 6.10489 6.6105 6.65977 6.04218C7.21657 5.47386 8.12857 5.46426 8.69689 6.01914L17.4002 14.5286C17.9686 15.0835 17.9801 15.9974 17.4233 16.5638C17.141 16.8537 16.7686 16.9977 16.3942 16.9977Z" fill="#74CF7F" fill-opacity="0.4"/>
<path fill-rule="evenodd" clip-rule="evenodd" d="M19.8469 13.176C19.2997 13.176 18.7775 12.8649 18.5355 12.335L16.2085 7.24319C15.8783 6.52127 16.197 5.66687 16.9208 5.33663C17.6408 5.00063 18.4971 5.32127 18.8293 6.04703L21.1564 11.1369C21.4866 11.8589 21.1679 12.7152 20.446 13.0454C20.2501 13.1357 20.0466 13.176 19.8469 13.176Z" fill="#74CF7F" fill-opacity="0.4"/>
<path fill-rule="evenodd" clip-rule="evenodd" d="M10.7883 19.5587C10.6116 19.5587 10.4311 19.5261 10.2564 19.457L6.18987 17.8404C5.45067 17.5466 5.08971 16.7114 5.38347 15.9703C5.67723 15.2311 6.51819 14.8721 7.25355 15.1639L11.3201 16.7806C12.0593 17.0743 12.4203 17.9114 12.1265 18.6506C11.9019 19.2151 11.3604 19.5587 10.7883 19.5587Z" fill="#74CF7F" fill-opacity="0.4"/>
<path fill-rule="evenodd" clip-rule="evenodd" d="M6.83961 32.7731C6.28665 32.7731 5.76057 32.4544 5.52249 31.9168C5.19993 31.191 5.52825 30.3385 6.25401 30.016L13.1315 26.9689C13.8591 26.6444 14.7078 26.9728 15.0323 27.7004C15.3548 28.4262 15.0265 29.2787 14.2988 29.6012L7.42329 32.6502C7.23321 32.7328 7.03545 32.7731 6.83961 32.7731Z" fill="#74CF7F" fill-opacity="0.4"/>
<path fill-rule="evenodd" clip-rule="evenodd" d="M8.09652 41.3733C7.73172 41.3733 7.36499 41.2351 7.08467 40.9567C6.51827 40.398 6.51252 39.486 7.07316 38.9215L12.693 33.2402C13.2517 32.6738 14.1656 32.67 14.7301 33.2287C15.2946 33.7874 15.3004 34.6994 14.7397 35.2639L9.11987 40.9452C8.83955 41.2312 8.46708 41.3733 8.09652 41.3733Z" fill="#74CF7F" fill-opacity="0.4"/>
<path fill-rule="evenodd" clip-rule="evenodd" d="M24.0025 9.10643C23.2076 9.10643 22.5625 8.46131 22.5625 7.66643C22.5625 6.87155 23.2076 6.21875 24.0025 6.21875C24.7974 6.21875 25.4425 6.85427 25.4425 7.64915V7.66643C25.4425 8.46131 24.7974 9.10643 24.0025 9.10643Z" fill="#74CF7F"/>
<path fill-rule="evenodd" clip-rule="evenodd" d="M29.3072 41.999C28.5123 41.999 27.8672 41.3539 27.8672 40.559C27.8672 39.7641 28.5123 39.1094 29.3072 39.1094C30.1021 39.1094 30.7472 39.7468 30.7472 40.5417V40.559C30.7472 41.3539 30.1021 41.999 29.3072 41.999Z" fill="#74CF7F"/>
<path fill-rule="evenodd" clip-rule="evenodd" d="M39.9009 25.6064C39.1061 25.6064 38.4609 24.9613 38.4609 24.1664C38.4609 23.3715 39.1061 22.7188 39.9009 22.7188C40.6958 22.7188 41.3409 23.3543 41.3409 24.1491V24.1664C41.3409 24.9613 40.6958 25.6064 39.9009 25.6064Z" fill="#74CF7F"/>
<path fill-rule="evenodd" clip-rule="evenodd" d="M18.69 41.999C17.8951 41.999 17.25 41.3539 17.25 40.559C17.25 39.7641 17.8951 39.1094 18.69 39.1094C19.4849 39.1094 20.13 39.7468 20.13 40.5417V40.559C20.13 41.3539 19.4849 41.999 18.69 41.999Z" fill="#74CF7F"/>
<path fill-rule="evenodd" clip-rule="evenodd" d="M8.09625 25.6064C7.30137 25.6064 6.65625 24.9613 6.65625 24.1664C6.65625 23.3715 7.30137 22.7188 8.09625 22.7188C8.89113 22.7188 9.53625 23.3543 9.53625 24.1491V24.1664C9.53625 24.9613 8.89113 25.6064 8.09625 25.6064Z" fill="#74CF7F"/>
</svg>
