<svg width="64" height="64" viewBox="0 0 64 64" fill="none" xmlns="http://www.w3.org/2000/svg">
<path opacity="0.4" fill-rule="evenodd" clip-rule="evenodd" d="M44.3498 22.4615C44.1172 22.4327 43.9314 22.251 43.8989 22.0188C43.1742 16.831 38.9541 10.3516 30.7764 10.3516C21.9876 10.3516 18.3704 17.5133 17.6715 22.0251C17.636 22.2543 17.4512 22.4323 17.2211 22.4604C11.4118 23.1719 7.48047 27.6243 7.48047 33.741C7.48047 38.2038 10.1094 42.2752 14.2226 44.1336C15.4445 44.6301 16.5568 44.8605 17.432 44.9661C17.6597 44.9937 17.8386 44.8111 17.8386 44.5816C17.8386 40.6653 19.5125 37.1478 22.1709 34.6764C22.2546 34.5927 22.3137 34.4943 22.4023 34.4155C22.4934 34.3367 22.5992 34.2801 22.6903 34.2038C23.1112 33.8543 23.5543 33.5318 24.0146 33.2315C24.2509 33.0789 24.4872 32.9336 24.7309 32.7958C25.2232 32.5201 25.7327 32.269 26.2595 32.0549C26.4786 31.9663 26.7001 31.8899 26.9241 31.8112C27.505 31.6093 28.1007 31.4346 28.7161 31.3115C28.8712 31.2819 29.0287 31.2647 29.1838 31.2401C29.8484 31.1343 30.5229 31.0653 31.217 31.0555C31.2441 31.0555 31.2737 31.0481 31.3007 31.0481C31.313 31.0481 31.3229 31.0506 31.3352 31.0506C31.3475 31.0506 31.3573 31.0481 31.3697 31.0481C38.8429 31.0481 44.9032 37.1084 44.9032 44.5816C44.9032 44.7151 45.012 44.8177 45.1427 44.7914C45.8196 44.655 46.5719 44.4517 47.3844 44.1263C51.446 42.2875 54.07 38.2112 54.07 33.741C54.07 27.629 50.1463 23.1799 44.3498 22.4615Z" fill="#74CF7F"/>
<path fill-rule="evenodd" clip-rule="evenodd" d="M31.2951 35.3516C29.065 35.3516 26.916 36.1639 25.2471 37.6383C24.4841 38.3128 24.4127 39.4796 25.0896 40.2426C25.7616 41.0082 26.9333 41.0771 27.6939 40.4051C28.6859 39.5263 29.9659 39.0439 31.2951 39.0439C34.3031 39.0439 36.7474 41.4906 36.7474 44.4962C36.7474 45.5153 37.5745 46.3423 38.5936 46.3423C39.6127 46.3423 40.4397 45.5153 40.4397 44.4962C40.4397 39.4549 36.3388 35.3516 31.2951 35.3516Z" fill="#74CF7F"/>
<path fill-rule="evenodd" clip-rule="evenodd" d="M34.9045 48.5832C33.9076 49.462 32.6251 49.9469 31.2984 49.9469C28.2928 49.9469 25.8485 47.5026 25.8485 44.4946C25.8485 43.4755 25.0215 42.6484 24.0024 42.6484C22.9833 42.6484 22.1562 43.4755 22.1562 44.4946C22.1562 49.5383 26.2571 53.6392 31.2984 53.6392C33.5261 53.6392 35.675 52.8269 37.3464 51.3524C38.1119 50.678 38.1858 49.5112 37.5113 48.7457C36.8319 47.9801 35.6651 47.9112 34.9045 48.5832Z" fill="#74CF7F"/>
</svg>
