<svg width="63" height="63" viewBox="0 0 63 63" fill="none" xmlns="http://www.w3.org/2000/svg">
<g opacity="0.4">
<path fill-rule="evenodd" clip-rule="evenodd" d="M47.5106 22.4698C44.1191 24.3887 40.4441 25.2733 36.7008 25.8403C34.9552 26.1055 33.1912 26.2631 31.4325 26.3891C28.0278 26.6279 24.6258 26.5177 21.2343 26.1317C18.7773 25.8535 16.3465 25.4072 13.9525 24.7273C12.0599 24.1918 10.2119 23.5251 8.47417 22.525C8.25603 22.3987 8.03966 22.2685 7.81748 22.1333C7.46822 21.9205 7.02404 22.1694 7.02515 22.5783C7.03019 24.4721 7.03859 28.7778 7.01205 31.1036C6.99892 32.2507 7.37955 33.1642 8.11192 33.9412C9.20917 35.1014 10.5505 35.8259 11.9523 36.4349C14.005 37.3274 16.1444 37.8892 18.3205 38.3092C20.4442 38.7187 22.5835 38.9707 24.736 39.0914C28.8915 39.3198 33.0311 39.1308 37.1445 38.3906C39.6461 37.9417 42.1031 37.3038 44.442 36.2118C45.6915 35.6291 46.8832 34.9308 47.8492 33.8598C48.5238 33.1091 48.8835 32.2402 48.873 31.1587C48.8525 28.7862 48.8496 24.4135 48.8454 22.5439C48.8446 22.1457 48.4299 21.9171 48.0905 22.1255C47.8959 22.2448 47.7046 22.3599 47.5106 22.4698Z" fill="#74CF7F"/>
<path fill-rule="evenodd" clip-rule="evenodd" d="M32.928 44.7771C33.2147 44.354 32.8834 43.6555 32.3736 43.6928C30.6876 43.8167 29.0016 43.8618 27.3158 43.8618C25.0057 43.8356 22.7219 43.7305 20.4644 43.3893C18.5219 43.1005 16.6057 42.7068 14.6894 42.2606C12.4582 41.7618 10.3057 40.9743 8.28442 39.7668C8.13275 39.6757 7.9811 39.5846 7.82494 39.4907C7.47369 39.2793 7.02616 39.53 7.02747 39.9401C7.03353 41.8222 7.04479 46.0676 7.02442 48.3506C6.99817 49.7418 7.49692 50.7393 8.41567 51.6056C9.49192 52.5768 10.6994 53.2331 11.9857 53.7843C14.2957 54.7556 16.6582 55.3593 19.0994 55.7531C21.3832 56.1468 23.6932 56.3831 26.0294 56.4618C27.9067 56.508 29.7633 56.493 31.6179 56.3623C31.9786 56.3371 32.2006 55.9581 32.0933 55.6126C31.9006 54.9936 31.8045 54.3371 31.8045 53.6531V48.4556C31.8045 47.0979 32.2148 45.8298 32.928 44.7771Z" fill="#74CF7F"/>
</g>
<path fill-rule="evenodd" clip-rule="evenodd" d="M8.38173 16.9167C9.58398 18.0664 11.0146 18.7804 12.4977 19.3763C15.1726 20.4499 17.9525 21.0379 20.7717 21.4186C23.15 21.7388 25.5414 21.9016 27.4708 21.8727C31.9701 21.8779 35.9601 21.4973 39.8897 20.5077C41.8453 20.0142 43.759 19.3711 45.5492 18.3552C46.5336 17.7987 47.4523 17.1451 48.1637 16.1948C49.1035 14.9348 49.1192 13.4674 48.1611 12.2258C47.8356 11.8006 47.455 11.4068 47.0481 11.0734C45.523 9.82655 43.7668 9.10205 41.9635 8.50355C38.7505 7.44043 35.4482 6.91543 32.1092 6.67918C27.5522 6.35368 23.0135 6.51905 18.5037 7.35905C16.0546 7.81318 13.6527 8.45105 11.3664 9.52993C10.1457 10.1048 8.98286 10.7899 8.04836 11.8452C7.27136 12.7219 6.81461 13.7221 7.14273 14.9742C7.35011 15.7722 7.82261 16.3838 8.38173 16.9167Z" fill="#74CF7F"/>
<path fill-rule="evenodd" clip-rule="evenodd" d="M38.3594 46.4922C37.2726 46.4922 36.3906 47.3742 36.3906 48.4609V53.6584C36.3906 54.7478 37.2726 55.6272 38.3594 55.6272C39.4461 55.6272 40.3281 54.7478 40.3281 53.6584V48.4609C40.3281 47.3742 39.4461 46.4922 38.3594 46.4922Z" fill="#74CF7F"/>
<path fill-rule="evenodd" clip-rule="evenodd" d="M46.1953 41.2656C45.1086 41.2656 44.2266 42.1476 44.2266 43.2344V53.6556C44.2266 54.7424 45.1086 55.6244 46.1953 55.6244C47.2821 55.6244 48.1641 54.7424 48.1641 53.6556V43.2344C48.1641 42.1476 47.2821 41.2656 46.1953 41.2656Z" fill="#74CF7F"/>
<path fill-rule="evenodd" clip-rule="evenodd" d="M54.0156 36.0547C52.9289 36.0547 52.0469 36.9367 52.0469 38.0234V53.6684C52.0469 54.7552 52.9289 55.6372 54.0156 55.6372C55.1024 55.6372 55.9844 54.7552 55.9844 53.6684V38.0234C55.9844 36.9367 55.1024 36.0547 54.0156 36.0547Z" fill="#74CF7F"/>
</svg>
