<svg width="24" height="24" viewBox="0 0 24 24" fill="none" xmlns="http://www.w3.org/2000/svg">
<path fill-rule="evenodd" clip-rule="evenodd" d="M10.492 13.3058C10.4928 13.2871 10.4916 13.2684 10.489 13.2499C10.4613 13.0547 10.4514 12.8548 10.3951 12.6677C10.1841 11.9617 9.74808 11.4547 9.00608 11.3047C8.29208 11.1617 7.71308 11.4347 7.28508 12.0137C6.70508 12.7957 6.76108 13.9607 7.40208 14.6937C8.09108 15.4807 9.21108 15.5017 9.92408 14.7347C10.2967 14.3336 10.4673 13.8513 10.492 13.3058ZM17.1383 13.289C17.1389 13.2722 17.1379 13.2553 17.1357 13.2386C17.1133 13.0695 17.1039 12.8956 17.0601 12.7317C16.8721 12.0317 16.4651 11.5167 15.7441 11.3267C15.1071 11.1587 14.5481 11.3417 14.0951 11.8167C13.3501 12.5977 13.3461 13.9327 14.0781 14.7247C14.7981 15.5017 15.9331 15.4867 16.6201 14.6857C16.9636 14.2851 17.1192 13.8139 17.1383 13.289ZM17.0985 17.7858C17.2736 17.7017 17.3406 17.4556 17.1828 17.3424C17.0669 17.2593 16.9741 17.2912 16.7571 17.3837C13.5891 18.7317 10.4191 18.7177 7.24908 17.3927C7.02096 17.2973 6.93273 17.2595 6.82129 17.3305C6.65302 17.4378 6.71802 17.6976 6.89748 17.7848C7.23862 17.9507 7.58016 18.1168 7.93832 18.2908C8.09958 18.3691 8.15678 18.5704 8.06083 18.7218C7.77619 19.1711 7.49507 19.6158 7.20508 20.0537C7.17408 20.0997 7.04108 20.1147 6.97208 20.0937C5.25708 19.5527 3.67108 18.7537 2.22008 17.6907C2.14608 17.6367 2.08208 17.5237 2.07408 17.4317C1.74508 13.8007 2.51308 10.4137 4.35508 7.26769C5.05808 6.06669 5.05608 6.04569 6.55408 5.56969C7.34208 5.31969 8.15408 5.14769 8.95308 4.93069C9.12908 4.88369 9.21708 4.93569 9.28708 5.09469C9.37508 5.29169 9.50608 5.47169 9.57408 5.67469C9.65508 5.91669 9.77908 5.97369 10.0301 5.93769C11.4051 5.73969 12.7811 5.76969 14.1551 5.95069C14.2295 5.96132 14.3009 5.91651 14.3344 5.84924C14.4633 5.59094 14.5956 5.33387 14.7171 5.07069C14.7801 4.93269 14.8581 4.89469 15.0111 4.92369C16.3001 5.16769 17.5471 5.54269 18.7421 6.08469C18.8641 6.14069 18.9861 6.24169 19.0601 6.35269C20.4731 8.46269 21.4261 10.7567 21.8121 13.2737C22.0241 14.6527 22.0491 16.0387 21.9241 17.4267C21.9151 17.5257 21.8391 17.6477 21.7561 17.7067C20.3161 18.7517 18.7501 19.5517 17.0491 20.0817C16.9661 20.1077 16.8091 20.0927 16.7731 20.0387C16.4849 19.6076 16.2096 19.1677 15.9282 18.7194C15.8329 18.5676 15.8907 18.3665 16.0522 18.2888C16.4087 18.1173 16.7514 17.9526 17.0985 17.7858Z" fill="#AEAEAE"/>
</svg>
