<svg width="64" height="64" viewBox="0 0 64 64" fill="none" xmlns="http://www.w3.org/2000/svg">
<g opacity="0.4">
<path fill-rule="evenodd" clip-rule="evenodd" d="M14.1067 22.4948C14.6133 22.2281 15.0933 22.0148 15.6267 21.8281C16.48 21.5348 17.36 21.3215 18.2933 21.2681H18.32C18.56 21.2415 18.8267 21.2415 19.0667 21.2415H44.9333C45.1733 21.2415 45.44 21.2415 45.68 21.2681H45.7067C46.6133 21.3481 47.52 21.5348 48.3467 21.8548H48.3733C48.9067 22.0148 49.4133 22.2281 49.8933 22.4948C52.3733 20.8681 54 18.0681 54 14.8948C54 9.90812 49.92 5.82812 44.9333 5.82812H19.0667C14.08 5.82812 10 9.90812 10 14.8948C10 18.0681 11.6267 20.8681 14.1067 22.4948Z" fill="#74CF7F"/>
<path fill-rule="evenodd" clip-rule="evenodd" d="M49.5733 25.4597C48.2133 24.633 46.64 24.1797 44.9333 24.1797H19.0667C17.36 24.1797 15.7867 24.633 14.4267 25.4597C11.7867 27.0329 10 29.9396 10 33.2463C10 36.2329 11.4667 38.8996 13.7333 40.5529C15.2267 41.6729 17.0667 42.3129 19.0667 42.3129H30.1333H34.1333H44.9333C46.9333 42.3129 48.7733 41.6729 50.2667 40.5529C52.5333 38.8996 54 36.2329 54 33.2463C54 29.9396 52.2133 27.0329 49.5733 25.4597Z" fill="#74CF7F"/>
</g>
<path fill-rule="evenodd" clip-rule="evenodd" d="M20.3945 12.6484H24.3945C25.4879 12.6484 26.3945 13.5284 26.3945 14.6484C26.3945 15.7418 25.4879 16.6484 24.3945 16.6484H20.3945C19.3012 16.6484 18.3945 15.7418 18.3945 14.6484C18.3945 13.5284 19.3012 12.6484 20.3945 12.6484Z" fill="#74CF7F"/>
<path fill-rule="evenodd" clip-rule="evenodd" d="M20.3945 35.25H24.3945C25.4879 35.25 26.3945 34.3433 26.3945 33.25C26.3945 32.1567 25.4879 31.25 24.3945 31.25H20.3945C19.3012 31.25 18.3945 32.1567 18.3945 33.25C18.3945 34.3433 19.3012 35.25 20.3945 35.25Z" fill="#74CF7F"/>
<path fill-rule="evenodd" clip-rule="evenodd" d="M30.1389 42.3125V45.9658C28.2455 46.5792 26.8055 48.0192 26.1921 49.9125H15.6055C14.5121 49.9125 13.6055 50.8192 13.6055 51.9125C13.6055 53.0058 14.5121 53.9125 15.6055 53.9125H26.1921C26.9922 56.4192 29.3122 58.1792 32.1389 58.1792C34.9655 58.1792 37.2855 56.4192 38.0855 53.9125H48.6722C49.7655 53.9125 50.6722 53.0058 50.6722 51.9125C50.6722 50.8192 49.7655 49.9125 48.6722 49.9125H38.0855C37.4722 48.0192 36.0322 46.5792 34.1389 45.9658V42.3125H30.1389ZM32.1389 54.1792C33.4189 54.1792 34.4055 53.1925 34.4055 51.9125C34.4055 50.6325 33.4189 49.6458 32.1389 49.6458C30.8589 49.6458 29.8722 50.6325 29.8722 51.9125C29.8722 53.1925 30.8589 54.1792 32.1389 54.1792Z" fill="#74CF7F"/>
</svg>
