<svg width="48" height="48" viewBox="0 0 48 48" fill="none" xmlns="http://www.w3.org/2000/svg">
<path opacity="0.4" fill-rule="evenodd" clip-rule="evenodd" d="M24.0012 7.48937C30.9324 7.48937 36.846 11.9822 38.9772 18.1838C35.3292 16.0718 29.5693 14.9774 24.0012 14.9774C18.4332 14.9774 12.6732 16.0718 9.02525 18.1838C11.1564 11.9822 17.0701 7.48937 24.0012 7.48937ZM42.702 22.8302C42.4524 12.7502 34.158 4.60938 24.0012 4.60938C13.8444 4.60938 5.55005 12.7502 5.30045 22.8302C5.28125 23.003 5.28125 23.1566 5.28125 23.3294C5.28125 23.5022 5.28125 23.6558 5.30045 23.8286C5.55005 33.9278 13.8444 42.0494 24.0012 42.0494C34.158 42.0494 42.4524 33.9278 42.702 23.8286C42.7212 23.6558 42.7212 23.5022 42.7212 23.3294C42.7212 23.1566 42.7212 23.003 42.702 22.8302Z" fill="#74CF7F"/>
<path d="M8.15625 23.3314C8.15625 25.6162 14.185 28.8034 23.9962 28.8034C33.8074 28.8034 39.8362 25.6162 39.8362 23.3314C39.8362 21.0466 33.8074 17.8594 23.9962 17.8594C14.185 17.8594 8.15625 21.0466 8.15625 23.3314Z" fill="#74CF7F"/>
</svg>
